Le-patin-helvete.ufo
<glyph name="zero" format="1">
  <advance width="577"/>
  <unicode hex="0030"/>
  <outline>
    <contour>
      <point x="56" y="343" type="qcurve" smooth="yes"/>
      <point x="56" y="432"/>
      <point x="86" y="568"/>
      <point x="132" y="645"/>
      <point x="196" y="693"/>
      <point x="255" y="709"/>
      <point x="288" y="709" type="qcurve" smooth="yes"/>
      <point x="520" y="709"/>
      <point x="520" y="337" type="qcurve" smooth="yes"/>
      <point x="520" y="162"/>
      <point x="401" y="-23"/>
      <point x="288" y="-23" type="qcurve" smooth="yes"/>
      <point x="174" y="-23"/>
      <point x="56" y="164"/>
    </contour>
    <contour>
      <point x="146" y="342" type="qcurve" smooth="yes"/>
      <point x="146" y="50"/>
      <point x="286" y="50" type="qcurve" smooth="yes"/>
      <point x="360" y="50"/>
      <point x="430" y="194"/>
      <point x="430" y="345" type="qcurve" smooth="yes"/>
      <point x="430" y="631"/>
      <point x="146" y="631"/>
    </contour>
  </outline>
</glyph>
<glyph name="one" format="1">
  <advance width="425"/>
  <unicode hex="0031"/>
  <outline>
    <contour>
      <point x="203" y="505" type="line"/>
      <point x="46" y="505" type="line"/>
      <point x="46" y="568" type="line"/>
      <point x="148" y="581"/>
      <point x="210" y="627"/>
      <point x="233" y="709" type="qcurve"/>
      <point x="291" y="709" type="line"/>
      <point x="291" y="81" type="line"/>
      <point x="385" y="81" type="line"/>
      <point x="385" y="0" type="line"/>
      <point x="109" y="0" type="line"/>
      <point x="109" y="81" type="line"/>
      <point x="203" y="81" type="line"/>
    </contour>
  </outline>
</glyph>
<glyph name="two" format="1">
  <advance width="595"/>
  <unicode hex="0032"/>
  <outline>
    <contour>
      <point x="71" y="463" type="line"/>
      <point x="78" y="709"/>
      <point x="305" y="709" type="qcurve" smooth="yes"/>
      <point x="406" y="709"/>
      <point x="532" y="593"/>
      <point x="532" y="501" type="qcurve" smooth="yes"/>
      <point x="532" y="369"/>
      <point x="382" y="287" type="qcurve" smooth="yes"/>
      <point x="282" y="233" type="line" smooth="yes"/>
      <point x="217" y="198"/>
      <point x="161" y="132"/>
      <point x="154" y="87" type="qcurve"/>
      <point x="433" y="87" type="line"/>
      <point x="433" y="168" type="line"/>
      <point x="527" y="168" type="line"/>
      <point x="527" y="0" type="line"/>
      <point x="55" y="0" type="line"/>
      <point x="61" y="117"/>
      <point x="143" y="244"/>
      <point x="254" y="307" type="qcurve" smooth="yes"/>
      <point x="346" y="359" type="line" smooth="yes"/>
      <point x="442" y="414"/>
      <point x="442" y="499" type="qcurve" smooth="yes"/>
      <point x="442" y="556"/>
      <point x="362" y="632"/>
      <point x="302" y="632" type="qcurve" smooth="yes"/>
      <point x="169" y="632"/>
      <point x="159" y="463" type="qcurve"/>
    </contour>
  </outline>
</glyph>
<glyph name="three" format="1">
  <advance width="593"/>
  <unicode hex="0033"/>
  <outline>
    <contour>
      <point x="298" y="632" type="qcurve" smooth="yes"/>
      <point x="222" y="632"/>
      <point x="165" y="549"/>
      <point x="163" y="480" type="qcurve"/>
      <point x="75" y="480" type="line"/>
      <point x="80" y="709"/>
      <point x="297" y="709" type="qcurve" smooth="yes"/>
      <point x="398" y="709"/>
      <point x="513" y="605"/>
      <point x="513" y="514" type="qcurve" smooth="yes"/>
      <point x="513" y="406"/>
      <point x="414" y="367" type="qcurve"/>
      <point x="478" y="345"/>
      <point x="534" y="266"/>
      <point x="534" y="198" type="qcurve" smooth="yes"/>
      <point x="534" y="97"/>
      <point x="403" y="-23"/>
      <point x="294" y="-23" type="qcurve" smooth="yes"/>
      <point x="76" y="-23"/>
      <point x="60" y="206" type="qcurve"/>
      <point x="148" y="206" type="line"/>
      <point x="153" y="129"/>
      <point x="225" y="55"/>
      <point x="297" y="55" type="qcurve" smooth="yes"/>
      <point x="366" y="55"/>
      <point x="444" y="130"/>
      <point x="444" y="197" type="qcurve" smooth="yes"/>
      <point x="444" y="326"/>
      <point x="297" y="326" type="qcurve"/>
      <point x="260" y="325" type="line"/>
      <point x="249" y="325" type="line"/>
      <point x="249" y="400" type="line"/>
      <point x="344" y="402"/>
      <point x="423" y="446"/>
      <point x="423" y="511" type="qcurve" smooth="yes"/>
      <point x="423" y="567"/>
      <point x="356" y="632"/>
    </contour>
  </outline>
</glyph>
<glyph name="four" format="1">
  <advance width="591"/>
  <unicode hex="0034"/>
  <outline>
    <contour>
      <point x="345" y="170" type="line"/>
      <point x="46" y="170" type="line"/>
      <point x="46" y="263" type="line"/>
      <point x="368" y="709" type="line"/>
      <point x="433" y="709" type="line"/>
      <point x="433" y="249" type="line"/>
      <point x="538" y="249" type="line"/>
      <point x="538" y="170" type="line"/>
      <point x="433" y="170" type="line"/>
      <point x="433" y="81" type="line"/>
      <point x="527" y="81" type="line"/>
      <point x="527" y="0" type="line"/>
      <point x="251" y="0" type="line"/>
      <point x="251" y="81" type="line"/>
      <point x="345" y="81" type="line"/>
    </contour>
    <contour>
      <point x="345" y="249" type="line"/>
      <point x="345" y="559" type="line"/>
      <point x="123" y="249" type="line"/>
    </contour>
  </outline>
</glyph>
<glyph name="five" format="1">
  <advance width="587"/>
  <unicode hex="0035"/>
  <outline>
    <contour>
      <point x="497" y="709" type="line"/>
      <point x="497" y="622" type="line"/>
      <point x="202" y="622" type="line"/>
      <point x="174" y="424" type="line"/>
      <point x="233" y="467"/>
      <point x="305" y="467" type="qcurve" smooth="yes"/>
      <point x="407" y="467"/>
      <point x="534" y="336"/>
      <point x="534" y="231" type="qcurve" smooth="yes"/>
      <point x="534" y="119"/>
      <point x="398" y="-23"/>
      <point x="291" y="-23" type="qcurve" smooth="yes"/>
      <point x="250" y="-23"/>
      <point x="181" y="-5"/>
      <point x="136" y="20"/>
      <point x="99" y="61"/>
      <point x="80" y="92"/>
      <point x="63" y="139"/>
      <point x="59" y="157"/>
      <point x="56" y="174" type="qcurve"/>
      <point x="144" y="174" type="line"/>
      <point x="175" y="55"/>
      <point x="289" y="55" type="qcurve" smooth="yes"/>
      <point x="361" y="55"/>
      <point x="444" y="143"/>
      <point x="444" y="219" type="qcurve" smooth="yes"/>
      <point x="444" y="298"/>
      <point x="360" y="389"/>
      <point x="289" y="389" type="qcurve" smooth="yes"/>
      <point x="248" y="389"/>
      <point x="190" y="360"/>
      <point x="159" y="323" type="qcurve"/>
      <point x="78" y="323" type="line"/>
      <point x="131" y="709" type="line"/>
    </contour>
  </outline>
</glyph>
<glyph name="six" format="1">
  <advance width="585"/>
  <unicode hex="0036"/>
  <outline>
    <contour>
      <point x="56" y="323" type="qcurve" smooth="yes"/>
      <point x="56" y="417"/>
      <point x="90" y="560"/>
      <point x="141" y="642"/>
      <point x="212" y="693"/>
      <point x="275" y="709"/>
      <point x="310" y="709" type="qcurve" smooth="yes"/>
      <point x="391" y="709"/>
      <point x="498" y="611"/>
      <point x="511" y="524" type="qcurve"/>
      <point x="423" y="524" type="line"/>
      <point x="412" y="575"/>
      <point x="350" y="631"/>
      <point x="304" y="631" type="qcurve" smooth="yes"/>
      <point x="228" y="631"/>
      <point x="147" y="492"/>
      <point x="146" y="362" type="qcurve"/>
      <point x="204" y="441"/>
      <point x="309" y="441" type="qcurve" smooth="yes"/>
      <point x="404" y="441"/>
      <point x="526" y="315"/>
      <point x="526" y="216" type="qcurve" smooth="yes"/>
      <point x="526" y="112"/>
      <point x="395" y="-23"/>
      <point x="294" y="-23" type="qcurve" smooth="yes"/>
      <point x="56" y="-23"/>
    </contour>
    <contour>
      <point x="298" y="363" type="qcurve" smooth="yes"/>
      <point x="233" y="363"/>
      <point x="151" y="280"/>
      <point x="151" y="214" type="qcurve" smooth="yes"/>
      <point x="151" y="146"/>
      <point x="233" y="55"/>
      <point x="295" y="55" type="qcurve" smooth="yes"/>
      <point x="356" y="55"/>
      <point x="436" y="142"/>
      <point x="436" y="209" type="qcurve" smooth="yes"/>
      <point x="436" y="280"/>
      <point x="362" y="363"/>
    </contour>
  </outline>
</glyph>
<glyph name="seven" format="1">
  <advance width="530"/>
  <unicode hex="0037"/>
  <outline>
    <contour>
      <point x="514" y="709" type="line"/>
      <point x="514" y="635" type="line"/>
      <point x="394" y="475"/>
      <point x="255" y="170"/>
      <point x="226" y="0" type="qcurve"/>
      <point x="132" y="0" type="line"/>
      <point x="172" y="175"/>
      <point x="296" y="441"/>
      <point x="423" y="622" type="qcurve"/>
      <point x="134" y="622" type="line"/>
      <point x="134" y="541" type="line"/>
      <point x="40" y="541" type="line"/>
      <point x="40" y="709" type="line"/>
    </contour>
  </outline>
</glyph>
<glyph name="eight" format="1">
  <advance width="593"/>
  <unicode hex="0038"/>
  <outline>
    <contour>
      <point x="413" y="373" type="qcurve"/>
      <point x="535" y="315"/>
      <point x="535" y="196" type="qcurve" smooth="yes"/>
      <point x="535" y="99"/>
      <point x="402" y="-23"/>
      <point x="192" y="-23"/>
      <point x="59" y="100"/>
      <point x="59" y="197" type="qcurve" smooth="yes"/>
      <point x="59" y="315"/>
      <point x="180" y="373" type="qcurve"/>
      <point x="126" y="407"/>
      <point x="84" y="471"/>
      <point x="84" y="520" type="qcurve" smooth="yes"/>
      <point x="84" y="603"/>
      <point x="203" y="709"/>
      <point x="391" y="709"/>
      <point x="510" y="603"/>
      <point x="510" y="520" type="qcurve" smooth="yes"/>
      <point x="510" y="470"/>
      <point x="468" y="406"/>
    </contour>
    <contour>
      <point x="174" y="519" type="qcurve" smooth="yes"/>
      <point x="174" y="469"/>
      <point x="241" y="408"/>
      <point x="297" y="408" type="qcurve" smooth="yes"/>
      <point x="352" y="408"/>
      <point x="420" y="468"/>
      <point x="420" y="518" type="qcurve" smooth="yes"/>
      <point x="420" y="570"/>
      <point x="353" y="631"/>
      <point x="241" y="631"/>
      <point x="174" y="570"/>
    </contour>
    <contour>
      <point x="295" y="55" type="qcurve" smooth="yes"/>
      <point x="362" y="55"/>
      <point x="445" y="132"/>
      <point x="445" y="195" type="qcurve" smooth="yes"/>
      <point x="445" y="257"/>
      <point x="363" y="334"/>
      <point x="231" y="334"/>
      <point x="149" y="257"/>
      <point x="149" y="133"/>
      <point x="230" y="55"/>
    </contour>
  </outline>
</glyph>
<glyph name="nine" format="1">
  <advance width="585"/>
  <unicode hex="0039"/>
  <outline>
    <contour>
      <point x="529" y="363" type="qcurve" smooth="yes"/>
      <point x="529" y="269"/>
      <point x="495" y="126"/>
      <point x="444" y="44"/>
      <point x="373" y="-7"/>
      <point x="309" y="-23"/>
      <point x="274" y="-23" type="qcurve" smooth="yes"/>
      <point x="193" y="-23"/>
      <point x="86" y="75"/>
      <point x="73" y="162" type="qcurve"/>
      <point x="161" y="162" type="line"/>
      <point x="172" y="111"/>
      <point x="234" y="55"/>
      <point x="280" y="55" type="qcurve" smooth="yes"/>
      <point x="356" y="55"/>
      <point x="437" y="194"/>
      <point x="438" y="324" type="qcurve"/>
      <point x="372" y="245"/>
      <point x="180" y="245"/>
      <point x="58" y="371"/>
      <point x="58" y="470" type="qcurve" smooth="yes"/>
      <point x="58" y="574"/>
      <point x="189" y="709"/>
      <point x="290" y="709" type="qcurve" smooth="yes"/>
      <point x="529" y="709"/>
    </contour>
    <contour>
      <point x="289" y="632" type="qcurve" smooth="yes"/>
      <point x="228" y="632"/>
      <point x="148" y="544"/>
      <point x="148" y="477" type="qcurve" smooth="yes"/>
      <point x="148" y="406"/>
      <point x="222" y="323"/>
      <point x="350" y="323"/>
      <point x="433" y="407"/>
      <point x="433" y="472" type="qcurve" smooth="yes"/>
      <point x="433" y="541"/>
      <point x="351" y="632"/>
    </contour>
  </outline>
</glyph>
<glyph name="at" format="1">
  <advance width="1045"/>
  <unicode hex="0040"/>
  <outline>
    <contour>
      <point x="695" y="501" type="line"/>
      <point x="789" y="501" type="line"/>
      <point x="789" y="420" type="line"/>
      <point x="752" y="420" type="line"/>
      <point x="688" y="221" type="line" smooth="yes"/>
      <point x="676" y="186"/>
      <point x="676" y="171" type="qcurve" smooth="yes"/>
      <point x="676" y="153"/>
      <point x="706" y="127"/>
      <point x="726" y="127" type="qcurve" smooth="yes"/>
      <point x="790" y="127"/>
      <point x="894" y="269"/>
      <point x="894" y="357" type="qcurve" smooth="yes"/>
      <point x="894" y="482"/>
      <point x="685" y="664"/>
      <point x="542" y="664" type="qcurve" smooth="yes"/>
      <point x="384" y="664"/>
      <point x="149" y="430"/>
      <point x="149" y="273" type="qcurve" smooth="yes"/>
      <point x="149" y="130"/>
      <point x="365" y="-65"/>
      <point x="524" y="-65" type="qcurve" smooth="yes"/>
      <point x="603" y="-65"/>
      <point x="717" y="-33" type="qcurve"/>
      <point x="745" y="-100" type="line"/>
      <point x="633" y="-142"/>
      <point x="519" y="-142" type="qcurve" smooth="yes"/>
      <point x="395" y="-142"/>
      <point x="185" y="-35"/>
      <point x="64" y="149"/>
      <point x="64" y="258" type="qcurve" smooth="yes"/>
      <point x="64" y="356"/>
      <point x="148" y="545"/>
      <point x="222" y="612" type="qcurve" smooth="yes"/>
      <point x="288" y="672"/>
      <point x="466" y="741"/>
      <point x="555" y="741" type="qcurve" smooth="yes"/>
      <point x="730" y="741"/>
      <point x="981" y="521"/>
      <point x="981" y="369" type="qcurve" smooth="yes"/>
      <point x="981" y="246"/>
      <point x="895" y="146" type="qcurve" smooth="yes"/>
      <point x="819" y="57"/>
      <point x="709" y="57" type="qcurve" smooth="yes"/>
      <point x="613" y="57"/>
      <point x="599" y="134" type="qcurve"/>
      <point x="533" y="62"/>
      <point x="457" y="62" type="qcurve" smooth="yes"/>
      <point x="387" y="62"/>
      <point x="294" y="167"/>
      <point x="294" y="245" type="qcurve" smooth="yes"/>
      <point x="294" y="354"/>
      <point x="450" y="522"/>
      <point x="551" y="522" type="qcurve" smooth="yes"/>
      <point x="635" y="522"/>
      <point x="673" y="435" type="qcurve"/>
    </contour>
    <contour>
      <point x="483" y="126" type="qcurve" smooth="yes"/>
      <point x="548" y="126"/>
      <point x="639" y="292"/>
      <point x="639" y="368" type="qcurve" smooth="yes"/>
      <point x="639" y="406"/>
      <point x="585" y="458"/>
      <point x="545" y="458" type="qcurve" smooth="yes"/>
      <point x="482" y="458"/>
      <point x="384" y="328"/>
      <point x="384" y="244" type="qcurve" smooth="yes"/>
      <point x="384" y="195"/>
      <point x="442" y="126"/>
    </contour>
  </outline>
</glyph>
<glyph name="A" format="1">
  <advance width="904"/>
  <unicode hex="0041"/>
  <outline>
    <contour>
      <point x="542" y="0" type="line"/>
      <point x="542" y="81" type="line"/>
      <point x="638" y="81" type="line"/>
      <point x="591" y="219" type="line"/>
      <point x="310" y="219" type="line"/>
      <point x="261" y="81" type="line"/>
      <point x="357" y="81" type="line"/>
      <point x="357" y="0" type="line"/>
      <point x="70" y="0" type="line"/>
      <point x="70" y="81" type="line"/>
      <point x="163" y="81" type="line"/>
      <point x="365" y="648" type="line"/>
      <point x="300" y="648" type="line"/>
      <point x="300" y="729" type="line"/>
      <point x="514" y="729" type="line"/>
      <point x="742" y="81" type="line"/>
      <point x="834" y="81" type="line"/>
      <point x="834" y="0" type="line"/>
    </contour>
    <contour>
      <point x="565" y="297" type="line"/>
      <point x="453" y="629" type="line"/>
      <point x="333" y="297" type="line"/>
    </contour>
  </outline>
</glyph>
<glyph name="B" format="1">
  <advance width="811"/>
  <unicode hex="0042"/>
  <outline>
    <contour>
      <point x="717" y="208" type="qcurve" smooth="yes"/>
      <point x="717" y="114"/>
      <point x="599" y="0"/>
      <point x="502" y="0" type="qcurve" smooth="yes"/>
      <point x="79" y="0" type="line"/>
      <point x="79" y="81" type="line"/>
      <point x="173" y="81" type="line"/>
      <point x="173" y="648" type="line"/>
      <point x="79" y="648" type="line"/>
      <point x="79" y="729" type="line"/>
      <point x="469" y="729" type="line" smooth="yes"/>
      <point x="530" y="729"/>
      <point x="620" y="693"/>
      <point x="665" y="634"/>
      <point x="685" y="575"/>
      <point x="685" y="544" type="qcurve" smooth="yes"/>
      <point x="685" y="432"/>
      <point x="584" y="385" type="qcurve"/>
      <point x="654" y="358"/>
      <point x="717" y="274"/>
    </contour>
    <contour>
      <point x="493" y="82" type="line" smooth="yes"/>
      <point x="542" y="82"/>
      <point x="604" y="125"/>
      <point x="624" y="177"/>
      <point x="624" y="207" type="qcurve" smooth="yes"/>
      <point x="624" y="264"/>
      <point x="556" y="333"/>
      <point x="493" y="333" type="qcurve" smooth="yes"/>
      <point x="266" y="333" type="line"/>
      <point x="266" y="82" type="line"/>
    </contour>
    <contour>
      <point x="446" y="647" type="qcurve" smooth="yes"/>
      <point x="266" y="647" type="line"/>
      <point x="266" y="415" type="line"/>
      <point x="446" y="415" type="line" smooth="yes"/>
      <point x="592" y="415"/>
      <point x="592" y="647"/>
    </contour>
  </outline>
</glyph>
<glyph name="C" format="1">
  <advance width="821"/>
  <unicode hex="0043"/>
  <outline>
    <contour>
      <point x="423" y="741" type="qcurve" smooth="yes"/>
      <point x="472" y="741"/>
      <point x="574" y="708"/>
      <point x="616" y="659" type="qcurve"/>
      <point x="616" y="742" type="line"/>
      <point x="704" y="742" type="line"/>
      <point x="704" y="503" type="line"/>
      <point x="609" y="503" type="line"/>
      <point x="593" y="581"/>
      <point x="500" y="659"/>
      <point x="412" y="659" type="qcurve" smooth="yes"/>
      <point x="305" y="659"/>
      <point x="244" y="578" type="qcurve" smooth="yes"/>
      <point x="183" y="498"/>
      <point x="183" y="358" type="qcurve" smooth="yes"/>
      <point x="183" y="219"/>
      <point x="247" y="139" type="qcurve" smooth="yes"/>
      <point x="312" y="59"/>
      <point x="420" y="59" type="qcurve" smooth="yes"/>
      <point x="510" y="59"/>
      <point x="606" y="160"/>
      <point x="623" y="266" type="qcurve"/>
      <point x="719" y="266" type="line"/>
      <point x="686" y="-23"/>
      <point x="419" y="-23" type="qcurve" smooth="yes"/>
      <point x="344" y="-23"/>
      <point x="225" y="28"/>
      <point x="189" y="67" type="qcurve"/>
      <point x="153" y="108"/>
      <point x="130" y="158" type="qcurve"/>
      <point x="107" y="212"/>
      <point x="90" y="307"/>
      <point x="90" y="356" type="qcurve" smooth="yes"/>
      <point x="90" y="407"/>
      <point x="107" y="503"/>
      <point x="131" y="557" type="qcurve" smooth="yes"/>
      <point x="155" y="609"/>
      <point x="190" y="649" type="qcurve" smooth="yes"/>
      <point x="226" y="689"/>
      <point x="347" y="741"/>
    </contour>
  </outline>
</glyph>
<glyph name="D" format="1">
  <advance width="842"/>
  <unicode hex="0044"/>
  <outline>
    <contour>
      <point x="173" y="729" type="line"/>
      <point x="454" y="729" type="line" smooth="yes"/>
      <point x="593" y="729"/>
      <point x="751" y="535"/>
      <point x="751" y="195"/>
      <point x="592" y="0"/>
      <point x="454" y="0" type="qcurve" smooth="yes"/>
      <point x="79" y="0" type="line"/>
      <point x="79" y="81" type="line"/>
      <point x="173" y="81" type="line"/>
      <point x="173" y="648" type="line"/>
      <point x="79" y="648" type="line"/>
      <point x="79" y="729" type="line"/>
    </contour>
    <contour>
      <point x="266" y="82" type="line"/>
      <point x="438" y="82" type="line" smooth="yes"/>
      <point x="546" y="82"/>
      <point x="658" y="226"/>
      <point x="658" y="364" type="qcurve" smooth="yes"/>
      <point x="658" y="503"/>
      <point x="546" y="647"/>
      <point x="438" y="647" type="qcurve" smooth="yes"/>
      <point x="266" y="647" type="line"/>
    </contour>
  </outline>
</glyph>
<glyph name="E" format="1">
  <advance width="792"/>
  <unicode hex="0045"/>
  <outline>
    <contour>
      <point x="173" y="730" type="line"/>
      <point x="678" y="730" type="line"/>
      <point x="678" y="547" type="line"/>
      <point x="589" y="547" type="line"/>
      <point x="589" y="648" type="line"/>
      <point x="266" y="648" type="line"/>
      <point x="266" y="415" type="line"/>
      <point x="663" y="415" type="line"/>
      <point x="663" y="333" type="line"/>
      <point x="266" y="333" type="line"/>
      <point x="266" y="83" type="line"/>
      <point x="607" y="83" type="line"/>
      <point x="607" y="184" type="line"/>
      <point x="696" y="184" type="line"/>
      <point x="696" y="1" type="line"/>
      <point x="79" y="1" type="line"/>
      <point x="79" y="82" type="line"/>
      <point x="173" y="82" type="line"/>
      <point x="173" y="649" type="line"/>
      <point x="79" y="649" type="line"/>
      <point x="79" y="730" type="line"/>
    </contour>
  </outline>
</glyph>
<glyph name="F" format="1">
  <advance width="740"/>
  <unicode hex="0046"/>
  <outline>
    <contour>
      <point x="173" y="729" type="line"/>
      <point x="662" y="729" type="line"/>
      <point x="662" y="566" type="line"/>
      <point x="568" y="566" type="line"/>
      <point x="568" y="647" type="line"/>
      <point x="266" y="647" type="line"/>
      <point x="266" y="414" type="line"/>
      <point x="614" y="414" type="line"/>
      <point x="614" y="332" type="line"/>
      <point x="266" y="332" type="line"/>
      <point x="266" y="81" type="line"/>
      <point x="360" y="81" type="line"/>
      <point x="360" y="0" type="line"/>
      <point x="79" y="0" type="line"/>
      <point x="79" y="81" type="line"/>
      <point x="173" y="81" type="line"/>
      <point x="173" y="648" type="line"/>
      <point x="79" y="648" type="line"/>
      <point x="79" y="729" type="line"/>
    </contour>
  </outline>
</glyph>
<glyph name="G" format="1">
  <advance width="863"/>
  <unicode hex="0047"/>
  <outline>
    <contour>
      <point x="183" y="362" type="qcurve" smooth="yes"/>
      <point x="183" y="318"/>
      <point x="206" y="212"/>
      <point x="264" y="121"/>
      <point x="366" y="59"/>
      <point x="444" y="59" type="qcurve" smooth="yes"/>
      <point x="543" y="59"/>
      <point x="608" y="122" type="qcurve" smooth="yes"/>
      <point x="673" y="185"/>
      <point x="673" y="283" type="qcurve" smooth="yes"/>
      <point x="673" y="303" type="line"/>
      <point x="451" y="303" type="line"/>
      <point x="451" y="385" type="line"/>
      <point x="755" y="385" type="line"/>
      <point x="755" y="-4" type="line"/>
      <point x="696" y="-4" type="line"/>
      <point x="673" y="93" type="line"/>
      <point x="569" y="-23"/>
      <point x="424" y="-23" type="qcurve" smooth="yes"/>
      <point x="276" y="-23"/>
      <point x="183" y="83" type="qcurve" smooth="yes"/>
      <point x="90" y="189"/>
      <point x="90" y="357" type="qcurve" smooth="yes"/>
      <point x="90" y="405"/>
      <point x="108" y="501"/>
      <point x="133" y="555" type="qcurve" smooth="yes"/>
      <point x="146" y="581"/>
      <point x="176" y="628"/>
      <point x="195" y="648" type="qcurve" smooth="yes"/>
      <point x="233" y="688"/>
      <point x="359" y="741"/>
      <point x="440" y="741" type="qcurve" smooth="yes"/>
      <point x="518" y="741"/>
      <point x="623" y="698"/>
      <point x="656" y="656" type="qcurve"/>
      <point x="656" y="747" type="line"/>
      <point x="745" y="747" type="line"/>
      <point x="745" y="508" type="line"/>
      <point x="650" y="508" type="line"/>
      <point x="635" y="578"/>
      <point x="523" y="659"/>
      <point x="439" y="659" type="qcurve" smooth="yes"/>
      <point x="323" y="659"/>
      <point x="253" y="577" type="qcurve"/>
      <point x="183" y="497"/>
    </contour>
  </outline>
</glyph>
<glyph name="H" format="1">
  <advance width="903"/>
  <unicode hex="0048"/>
  <outline>
    <contour>
      <point x="641" y="332" type="line"/>
      <point x="266" y="332" type="line"/>
      <point x="266" y="81" type="line"/>
      <point x="360" y="81" type="line"/>
      <point x="360" y="0" type="line"/>
      <point x="79" y="0" type="line"/>
      <point x="79" y="81" type="line"/>
      <point x="173" y="81" type="line"/>
      <point x="173" y="648" type="line"/>
      <point x="79" y="648" type="line"/>
      <point x="79" y="729" type="line"/>
      <point x="360" y="729" type="line"/>
      <point x="360" y="648" type="line"/>
      <point x="266" y="648" type="line"/>
      <point x="266" y="414" type="line"/>
      <point x="641" y="414" type="line"/>
      <point x="641" y="648" type="line"/>
      <point x="547" y="648" type="line"/>
      <point x="547" y="729" type="line"/>
      <point x="641" y="729" type="line"/>
      <point x="828" y="729" type="line"/>
      <point x="828" y="648" type="line"/>
      <point x="734" y="648" type="line"/>
      <point x="734" y="81" type="line"/>
      <point x="828" y="81" type="line"/>
      <point x="828" y="0" type="line"/>
      <point x="547" y="0" type="line"/>
      <point x="547" y="81" type="line"/>
      <point x="641" y="81" type="line"/>
    </contour>
  </outline>
</glyph>
<glyph name="I" format="1">
  <advance width="436"/>
  <unicode hex="0049"/>
  <outline>
    <contour>
      <point x="267" y="729" type="line"/>
      <point x="361" y="729" type="line"/>
      <point x="361" y="648" type="line"/>
      <point x="267" y="648" type="line"/>
      <point x="267" y="81" type="line"/>
      <point x="361" y="81" type="line"/>
      <point x="361" y="0" type="line"/>
      <point x="79" y="0" type="line"/>
      <point x="79" y="81" type="line"/>
      <point x="173" y="81" type="line"/>
      <point x="173" y="648" type="line"/>
      <point x="79" y="648" type="line"/>
      <point x="79" y="729" type="line"/>
    </contour>
  </outline>
</glyph>
<glyph name="J" format="1">
  <advance width="641"/>
  <unicode hex="004A"/>
  <outline>
    <contour>
      <point x="285" y="55" type="qcurve" smooth="yes"/>
      <point x="349" y="55"/>
      <point x="397" y="139"/>
      <point x="397" y="216" type="qcurve" smooth="yes"/>
      <point x="397" y="648" type="line"/>
      <point x="303" y="648" type="line"/>
      <point x="303" y="729" type="line"/>
      <point x="584" y="729" type="line"/>
      <point x="584" y="648" type="line"/>
      <point x="490" y="648" type="line"/>
      <point x="490" y="182" type="line" smooth="yes"/>
      <point x="490" y="87"/>
      <point x="379" y="-23"/>
      <point x="284" y="-23" type="qcurve" smooth="yes"/>
      <point x="190" y="-23"/>
      <point x="81" y="81"/>
      <point x="81" y="170" type="qcurve" smooth="yes"/>
      <point x="81" y="234" type="line"/>
      <point x="176" y="234" type="line"/>
      <point x="176" y="187" type="line" smooth="yes"/>
      <point x="176" y="123"/>
      <point x="232" y="55"/>
    </contour>
  </outline>
</glyph>
<glyph name="K" format="1">
  <advance width="810"/>
  <unicode hex="004B"/>
  <outline>
    <contour>
      <point x="756" y="729" type="line"/>
      <point x="756" y="648" type="line"/>
      <point x="668" y="648" type="line"/>
      <point x="452" y="432" type="line"/>
      <point x="695" y="81" type="line"/>
      <point x="796" y="81" type="line"/>
      <point x="796" y="0" type="line"/>
      <point x="545" y="0" type="line"/>
      <point x="545" y="81" type="line"/>
      <point x="586" y="81" type="line"/>
      <point x="385" y="374" type="line"/>
      <point x="266" y="255" type="line"/>
      <point x="266" y="81" type="line"/>
      <point x="360" y="81" type="line"/>
      <point x="360" y="0" type="line"/>
      <point x="79" y="0" type="line"/>
      <point x="79" y="81" type="line"/>
      <point x="173" y="81" type="line"/>
      <point x="173" y="648" type="line"/>
      <point x="79" y="648" type="line"/>
      <point x="79" y="729" type="line"/>
      <point x="173" y="729" type="line"/>
      <point x="266" y="729" type="line"/>
      <point x="360" y="729" type="line"/>
      <point x="360" y="648" type="line"/>
      <point x="266" y="648" type="line"/>
      <point x="266" y="360" type="line"/>
      <point x="549" y="648" type="line"/>
      <point x="505" y="648" type="line"/>
      <point x="505" y="729" type="line"/>
    </contour>
  </outline>
</glyph>
<glyph name="L" format="1">
  <advance width="707"/>
  <unicode hex="004C"/>
  <outline>
    <contour>
      <point x="626" y="183" type="line"/>
      <point x="626" y="0" type="line"/>
      <point x="79" y="0" type="line"/>
      <point x="79" y="81" type="line"/>
      <point x="173" y="81" type="line"/>
      <point x="173" y="648" type="line"/>
      <point x="79" y="648" type="line"/>
      <point x="79" y="729" type="line"/>
      <point x="173" y="729" type="line"/>
      <point x="266" y="729" type="line"/>
      <point x="360" y="729" type="line"/>
      <point x="360" y="648" type="line"/>
      <point x="266" y="648" type="line"/>
      <point x="266" y="82" type="line"/>
      <point x="537" y="82" type="line"/>
      <point x="537" y="183" type="line"/>
    </contour>
  </outline>
</glyph>
<glyph name="M" format="1">
  <advance width="1028"/>
  <unicode hex="004D"/>
  <outline>
    <contour>
      <point x="566" y="0" type="line"/>
      <point x="468" y="0" type="line"/>
      <point x="261" y="611" type="line"/>
      <point x="261" y="81" type="line"/>
      <point x="355" y="81" type="line"/>
      <point x="355" y="0" type="line"/>
      <point x="79" y="0" type="line"/>
      <point x="79" y="81" type="line"/>
      <point x="173" y="81" type="line"/>
      <point x="173" y="648" type="line"/>
      <point x="79" y="648" type="line"/>
      <point x="79" y="729" type="line"/>
      <point x="173" y="729" type="line"/>
      <point x="302" y="729" type="line"/>
      <point x="518" y="94" type="line"/>
      <point x="730" y="729" type="line"/>
      <point x="953" y="729" type="line"/>
      <point x="953" y="648" type="line"/>
      <point x="859" y="648" type="line"/>
      <point x="859" y="81" type="line"/>
      <point x="953" y="81" type="line"/>
      <point x="953" y="0" type="line"/>
      <point x="677" y="0" type="line"/>
      <point x="677" y="81" type="line"/>
      <point x="771" y="81" type="line"/>
      <point x="771" y="611" type="line"/>
    </contour>
  </outline>
</glyph>
<glyph name="N" format="1">
  <advance width="894"/>
  <unicode hex="004E"/>
  <outline>
    <contour>
      <point x="355" y="81" type="line"/>
      <point x="355" y="0" type="line"/>
      <point x="79" y="0" type="line"/>
      <point x="79" y="81" type="line"/>
      <point x="173" y="81" type="line"/>
      <point x="173" y="648" type="line"/>
      <point x="79" y="648" type="line"/>
      <point x="79" y="729" type="line"/>
      <point x="274" y="729" type="line"/>
      <point x="655" y="133" type="line"/>
      <point x="655" y="729" type="line"/>
      <point x="743" y="729" type="line"/>
      <point x="837" y="729" type="line"/>
      <point x="837" y="648" type="line"/>
      <point x="743" y="648" type="line"/>
      <point x="743" y="0" type="line"/>
      <point x="638" y="0" type="line"/>
      <point x="261" y="591" type="line"/>
      <point x="261" y="81" type="line"/>
    </contour>
  </outline>
</glyph>
<glyph name="O" format="1">
  <advance width="884"/>
  <unicode hex="004F"/>
  <outline>
    <contour>
      <point x="794" y="353" type="qcurve" smooth="yes"/>
      <point x="794" y="191"/>
      <point x="602" y="-23"/>
      <point x="442" y="-23" type="qcurve" smooth="yes"/>
      <point x="284" y="-23"/>
      <point x="90" y="188"/>
      <point x="90" y="530"/>
      <point x="284" y="741"/>
      <point x="441" y="741" type="qcurve" smooth="yes"/>
      <point x="601" y="741"/>
      <point x="794" y="529"/>
    </contour>
    <contour>
      <point x="441" y="659" type="qcurve" smooth="yes"/>
      <point x="325" y="659"/>
      <point x="183" y="494"/>
      <point x="183" y="224"/>
      <point x="326" y="59"/>
      <point x="558" y="59"/>
      <point x="701" y="223"/>
      <point x="701" y="355" type="qcurve" smooth="yes"/>
      <point x="701" y="493"/>
      <point x="559" y="659"/>
    </contour>
  </outline>
</glyph>
<glyph name="P" format="1">
  <advance width="790"/>
  <unicode hex="0050"/>
  <outline>
    <contour>
      <point x="173" y="729" type="line"/>
      <point x="474" y="729" type="line" smooth="yes"/>
      <point x="582" y="729"/>
      <point x="699" y="618"/>
      <point x="699" y="515" type="qcurve" smooth="yes"/>
      <point x="699" y="422"/>
      <point x="586" y="309"/>
      <point x="495" y="309" type="qcurve" smooth="yes"/>
      <point x="266" y="309" type="line"/>
      <point x="266" y="81" type="line"/>
      <point x="360" y="81" type="line"/>
      <point x="360" y="0" type="line"/>
      <point x="79" y="0" type="line"/>
      <point x="79" y="81" type="line"/>
      <point x="173" y="81" type="line"/>
      <point x="173" y="648" type="line"/>
      <point x="79" y="648" type="line"/>
      <point x="79" y="729" type="line"/>
    </contour>
    <contour>
      <point x="266" y="391" type="line"/>
      <point x="460" y="391" type="line" smooth="yes"/>
      <point x="527" y="391"/>
      <point x="602" y="459"/>
      <point x="602" y="579"/>
      <point x="527" y="647"/>
      <point x="460" y="647" type="qcurve" smooth="yes"/>
      <point x="266" y="647" type="line"/>
    </contour>
  </outline>
</glyph>
<glyph name="Q" format="1">
  <advance width="884"/>
  <unicode hex="0051"/>
  <outline>
    <contour>
      <point x="785" y="-1" type="line"/>
      <point x="738" y="-59" type="line"/>
      <point x="633" y="28" type="line"/>
      <point x="547" y="-23"/>
      <point x="442" y="-23" type="qcurve" smooth="yes"/>
      <point x="284" y="-23"/>
      <point x="90" y="188"/>
      <point x="90" y="530"/>
      <point x="284" y="741"/>
      <point x="442" y="741" type="qcurve" smooth="yes"/>
      <point x="599" y="741"/>
      <point x="794" y="531"/>
      <point x="794" y="361" type="qcurve" smooth="yes"/>
      <point x="794" y="189"/>
      <point x="691" y="76" type="qcurve"/>
    </contour>
    <contour>
      <point x="533" y="205" type="line"/>
      <point x="622" y="132" type="line"/>
      <point x="701" y="221"/>
      <point x="701" y="360" type="qcurve" smooth="yes"/>
      <point x="701" y="494"/>
      <point x="558" y="659"/>
      <point x="326" y="659"/>
      <point x="183" y="494"/>
      <point x="183" y="224"/>
      <point x="325" y="59"/>
      <point x="441" y="59" type="qcurve" smooth="yes"/>
      <point x="501" y="59"/>
      <point x="561" y="87" type="qcurve"/>
      <point x="487" y="149" type="line"/>
    </contour>
  </outline>
</glyph>
<glyph name="R" format="1">
  <advance width="876"/>
  <unicode hex="0052"/>
  <outline>
    <contour>
      <point x="360" y="81" type="line"/>
      <point x="360" y="0" type="line"/>
      <point x="79" y="0" type="line"/>
      <point x="79" y="81" type="line"/>
      <point x="173" y="81" type="line"/>
      <point x="173" y="648" type="line"/>
      <point x="79" y="648" type="line"/>
      <point x="79" y="729" type="line"/>
      <point x="509" y="729" type="line" smooth="yes"/>
      <point x="616" y="729"/>
      <point x="731" y="628"/>
      <point x="731" y="534" type="qcurve" smooth="yes"/>
      <point x="731" y="472"/>
      <point x="677" y="390"/>
      <point x="616" y="360" type="qcurve"/>
      <point x="648" y="346"/>
      <point x="691" y="308"/>
      <point x="710" y="260"/>
      <point x="716" y="218"/>
      <point x="716" y="189" type="qcurve" smooth="yes"/>
      <point x="716" y="180"/>
      <point x="715" y="146"/>
      <point x="715" y="138" type="qcurve" smooth="yes"/>
      <point x="715" y="105"/>
      <point x="720" y="81" type="qcurve"/>
      <point x="806" y="81" type="line"/>
      <point x="806" y="0" type="line"/>
      <point x="646" y="0" type="line"/>
      <point x="626" y="46"/>
      <point x="626" y="119" type="qcurve" smooth="yes"/>
      <point x="626" y="184" type="line" smooth="yes"/>
      <point x="626" y="251"/>
      <point x="568" y="314"/>
      <point x="506" y="314" type="qcurve" smooth="yes"/>
      <point x="266" y="314" type="line"/>
      <point x="266" y="81" type="line"/>
    </contour>
    <contour>
      <point x="634" y="521" type="qcurve" smooth="yes"/>
      <point x="634" y="593"/>
      <point x="558" y="647"/>
      <point x="491" y="647" type="qcurve" smooth="yes"/>
      <point x="266" y="647" type="line"/>
      <point x="266" y="396" type="line"/>
      <point x="491" y="396" type="line" smooth="yes"/>
      <point x="565" y="396"/>
      <point x="634" y="456"/>
    </contour>
  </outline>
</glyph>
<glyph name="S" format="1">
  <advance width="771"/>
  <unicode hex="0053"/>
  <outline>
    <contour>
      <point x="392" y="59" type="qcurve" smooth="yes"/>
      <point x="451" y="59"/>
      <point x="524" y="85"/>
      <point x="564" y="125"/>
      <point x="578" y="171"/>
      <point x="578" y="191" type="qcurve" smooth="yes"/>
      <point x="578" y="273"/>
      <point x="444" y="309" type="qcurve" smooth="yes"/>
      <point x="263" y="357" type="line" smooth="yes"/>
      <point x="120" y="395"/>
      <point x="120" y="527" type="qcurve" smooth="yes"/>
      <point x="120" y="576"/>
      <point x="156" y="656"/>
      <point x="223" y="711"/>
      <point x="319" y="741"/>
      <point x="379" y="741" type="qcurve" smooth="yes"/>
      <point x="401" y="741"/>
      <point x="449" y="738"/>
      <point x="496" y="724"/>
      <point x="543" y="698"/>
      <point x="565" y="675" type="qcurve"/>
      <point x="565" y="747" type="line"/>
      <point x="652" y="747" type="line"/>
      <point x="652" y="515" type="line"/>
      <point x="558" y="515" type="line"/>
      <point x="557" y="587"/>
      <point x="464" y="663"/>
      <point x="376" y="663" type="qcurve" smooth="yes"/>
      <point x="301" y="663"/>
      <point x="213" y="595"/>
      <point x="213" y="540" type="qcurve" smooth="yes"/>
      <point x="213" y="498"/>
      <point x="267" y="450"/>
      <point x="333" y="432" type="qcurve" smooth="yes"/>
      <point x="516" y="383" type="line" smooth="yes"/>
      <point x="591" y="363"/>
      <point x="671" y="267"/>
      <point x="671" y="200" type="qcurve" smooth="yes"/>
      <point x="671" y="167"/>
      <point x="646" y="89"/>
      <point x="581" y="22"/>
      <point x="471" y="-23"/>
      <point x="386" y="-23" type="qcurve" smooth="yes"/>
      <point x="338" y="-23"/>
      <point x="237" y="-2"/>
      <point x="154" y="55"/>
      <point x="99" y="154"/>
      <point x="98" y="232" type="qcurve"/>
      <point x="186" y="232" type="line"/>
      <point x="186" y="227" type="line" smooth="yes"/>
      <point x="186" y="199"/>
      <point x="204" y="140"/>
      <point x="250" y="91"/>
      <point x="330" y="59"/>
    </contour>
  </outline>
</glyph>
<glyph name="T" format="1">
  <advance width="678"/>
  <unicode hex="0054"/>
  <outline>
    <contour>
      <point x="296" y="81" type="line"/>
      <point x="296" y="647" type="line"/>
      <point x="145" y="647" type="line"/>
      <point x="145" y="546" type="line"/>
      <point x="56" y="546" type="line"/>
      <point x="56" y="729" type="line"/>
      <point x="628" y="729" type="line"/>
      <point x="628" y="546" type="line"/>
      <point x="539" y="546" type="line"/>
      <point x="539" y="647" type="line"/>
      <point x="389" y="647" type="line"/>
      <point x="389" y="81" type="line"/>
      <point x="483" y="81" type="line"/>
      <point x="483" y="0" type="line"/>
      <point x="202" y="0" type="line"/>
      <point x="202" y="81" type="line"/>
    </contour>
  </outline>
</glyph>
<glyph name="U" format="1">
  <advance width="876"/>
  <unicode hex="0055"/>
  <outline>
    <contour>
      <point x="341" y="729" type="line"/>
      <point x="341" y="648" type="line"/>
      <point x="247" y="648" type="line"/>
      <point x="247" y="217" type="line" smooth="yes"/>
      <point x="247" y="138"/>
      <point x="348" y="59"/>
      <point x="433" y="59" type="qcurve" smooth="yes"/>
      <point x="521" y="59"/>
      <point x="621" y="143"/>
      <point x="621" y="217" type="qcurve" smooth="yes"/>
      <point x="621" y="648" type="line"/>
      <point x="527" y="648" type="line"/>
      <point x="527" y="729" type="line"/>
      <point x="808" y="729" type="line"/>
      <point x="808" y="648" type="line"/>
      <point x="714" y="648" type="line"/>
      <point x="714" y="217" type="line" smooth="yes"/>
      <point x="714" y="107"/>
      <point x="561" y="-23"/>
      <point x="433" y="-23" type="qcurve" smooth="yes"/>
      <point x="303" y="-23"/>
      <point x="154" y="106"/>
      <point x="154" y="217" type="qcurve" smooth="yes"/>
      <point x="154" y="648" type="line"/>
      <point x="60" y="648" type="line"/>
      <point x="60" y="729" type="line"/>
      <point x="247" y="729" type="line"/>
    </contour>
  </outline>
</glyph>
<glyph name="V" format="1">
  <advance width="823"/>
  <unicode hex="0056"/>
  <outline>
    <contour>
      <point x="466" y="0" type="line"/>
      <point x="366" y="0" type="line"/>
      <point x="133" y="648" type="line"/>
      <point x="50" y="648" type="line"/>
      <point x="50" y="729" type="line"/>
      <point x="298" y="729" type="line"/>
      <point x="298" y="648" type="line"/>
      <point x="232" y="648" type="line"/>
      <point x="418" y="112" type="line"/>
      <point x="593" y="648" type="line"/>
      <point x="526" y="648" type="line"/>
      <point x="526" y="729" type="line"/>
      <point x="773" y="729" type="line"/>
      <point x="773" y="648" type="line"/>
      <point x="691" y="648" type="line"/>
    </contour>
  </outline>
</glyph>
<glyph name="W" format="1">
  <advance width="1033"/>
  <unicode hex="0057"/>
  <outline>
    <contour>
      <point x="1023" y="729" type="line"/>
      <point x="1023" y="648" type="line"/>
      <point x="949" y="648" type="line"/>
      <point x="785" y="0" type="line"/>
      <point x="683" y="0" type="line"/>
      <point x="515" y="599" type="line"/>
      <point x="352" y="0" type="line"/>
      <point x="250" y="0" type="line"/>
      <point x="84" y="648" type="line"/>
      <point x="10" y="648" type="line"/>
      <point x="10" y="729" type="line"/>
      <point x="261" y="729" type="line"/>
      <point x="261" y="648" type="line"/>
      <point x="185" y="648" type="line"/>
      <point x="304" y="137" type="line"/>
      <point x="466" y="729" type="line"/>
      <point x="566" y="729" type="line"/>
      <point x="732" y="137" type="line"/>
      <point x="847" y="648" type="line"/>
      <point x="772" y="648" type="line"/>
      <point x="772" y="729" type="line"/>
    </contour>
  </outline>
</glyph>
<glyph name="X" format="1">
  <advance width="855"/>
  <unicode hex="0058"/>
  <outline>
    <contour>
      <point x="321" y="81" type="line"/>
      <point x="321" y="0" type="line"/>
      <point x="70" y="0" type="line"/>
      <point x="70" y="81" type="line"/>
      <point x="170" y="81" type="line"/>
      <point x="372" y="374" type="line"/>
      <point x="185" y="648" type="line"/>
      <point x="86" y="648" type="line"/>
      <point x="86" y="729" type="line"/>
      <point x="337" y="729" type="line"/>
      <point x="337" y="648" type="line"/>
      <point x="296" y="648" type="line"/>
      <point x="430" y="443" type="line"/>
      <point x="565" y="648" type="line"/>
      <point x="524" y="648" type="line"/>
      <point x="524" y="729" type="line"/>
      <point x="773" y="729" type="line"/>
      <point x="773" y="648" type="line"/>
      <point x="673" y="648" type="line"/>
      <point x="483" y="374" type="line"/>
      <point x="685" y="81" type="line"/>
      <point x="785" y="81" type="line"/>
      <point x="785" y="0" type="line"/>
      <point x="532" y="0" type="line"/>
      <point x="532" y="81" type="line"/>
      <point x="573" y="81" type="line"/>
      <point x="427" y="304" type="line"/>
      <point x="280" y="81" type="line"/>
    </contour>
  </outline>
</glyph>
<glyph name="Y" format="1">
  <advance width="786"/>
  <unicode hex="0059"/>
  <outline>
    <contour>
      <point x="298" y="729" type="line"/>
      <point x="298" y="648" type="line"/>
      <point x="233" y="648" type="line"/>
      <point x="398" y="374" type="line"/>
      <point x="558" y="648" type="line"/>
      <point x="492" y="648" type="line"/>
      <point x="492" y="729" type="line"/>
      <point x="751" y="729" type="line"/>
      <point x="751" y="648" type="line"/>
      <point x="667" y="648" type="line"/>
      <point x="443" y="286" type="line"/>
      <point x="443" y="81" type="line"/>
      <point x="537" y="81" type="line"/>
      <point x="537" y="0" type="line"/>
      <point x="256" y="0" type="line"/>
      <point x="256" y="81" type="line"/>
      <point x="350" y="81" type="line"/>
      <point x="350" y="286" type="line"/>
      <point x="120" y="648" type="line"/>
      <point x="35" y="648" type="line"/>
      <point x="35" y="729" type="line"/>
    </contour>
  </outline>
</glyph>
<glyph name="Z" format="1">
  <advance width="731"/>
  <unicode hex="005A"/>
  <outline>
    <contour>
      <point x="201" y="647" type="line"/>
      <point x="201" y="566" type="line"/>
      <point x="107" y="566" type="line"/>
      <point x="107" y="729" type="line"/>
      <point x="632" y="729" type="line"/>
      <point x="632" y="645" type="line"/>
      <point x="196" y="82" type="line"/>
      <point x="540" y="82" type="line"/>
      <point x="540" y="163" type="line"/>
      <point x="634" y="163" type="line"/>
      <point x="634" y="0" type="line"/>
      <point x="79" y="0" type="line"/>
      <point x="79" y="82" type="line"/>
      <point x="517" y="647" type="line"/>
    </contour>
  </outline>
</glyph>
<glyph name="b" format="1">
  <advance width="624"/>
  <unicode hex="0062"/>
  <outline>
    <contour>
      <point x="106" y="0" type="line"/>
      <point x="106" y="661" type="line"/>
      <point x="35" y="661" type="line"/>
      <point x="35" y="729" type="line"/>
      <point x="189" y="729" type="line"/>
      <point x="189" y="453" type="line"/>
      <point x="246" y="539"/>
      <point x="455" y="539"/>
      <point x="575" y="391"/>
      <point x="575" y="134"/>
      <point x="451" y="-23"/>
      <point x="240" y="-23"/>
      <point x="181" y="67" type="qcurve"/>
      <point x="181" y="0" type="line"/>
    </contour>
    <contour>
      <point x="488" y="257" type="qcurve" smooth="yes"/>
      <point x="488" y="349"/>
      <point x="405" y="461"/>
      <point x="269" y="461"/>
      <point x="189" y="350"/>
      <point x="189" y="166"/>
      <point x="269" y="55"/>
      <point x="403" y="55"/>
      <point x="488" y="166"/>
    </contour>
  </outline>
</glyph>
<glyph name="c" format="1">
  <advance width="551"/>
  <unicode hex="0063"/>
  <outline>
    <contour>
      <point x="282" y="539" type="qcurve" smooth="yes"/>
      <point x="299" y="539"/>
      <point x="335" y="532"/>
      <point x="371" y="517"/>
      <point x="404" y="491"/>
      <point x="418" y="471" type="qcurve"/>
      <point x="418" y="542" type="line"/>
      <point x="489" y="542" type="line"/>
      <point x="489" y="348" type="line"/>
      <point x="405" y="348" type="line"/>
      <point x="397" y="403"/>
      <point x="333" y="462"/>
      <point x="281" y="462" type="qcurve" smooth="yes"/>
      <point x="212" y="462"/>
      <point x="136" y="352"/>
      <point x="136" y="253" type="qcurve" smooth="yes"/>
      <point x="136" y="159"/>
      <point x="214" y="54"/>
      <point x="283" y="54" type="qcurve" smooth="yes"/>
      <point x="390" y="54"/>
      <point x="411" y="180" type="qcurve"/>
      <point x="495" y="180" type="line"/>
      <point x="487" y="83"/>
      <point x="375" y="-23"/>
      <point x="281" y="-23" type="qcurve" smooth="yes"/>
      <point x="174" y="-23"/>
      <point x="111" y="51" type="qcurve"/>
      <point x="49" y="127"/>
      <point x="49" y="253" type="qcurve" smooth="yes"/>
      <point x="49" y="383"/>
      <point x="112" y="461" type="qcurve" smooth="yes"/>
      <point x="176" y="539"/>
    </contour>
  </outline>
</glyph>
<glyph name="d" format="1">
  <advance width="632"/>
  <unicode hex="0064"/>
  <outline>
    <contour>
      <point x="289" y="461" type="qcurve" smooth="yes"/>
      <point x="221" y="461"/>
      <point x="137" y="349"/>
      <point x="137" y="258" type="qcurve" smooth="yes"/>
      <point x="137" y="166"/>
      <point x="221" y="55"/>
      <point x="290" y="55" type="qcurve" smooth="yes"/>
      <point x="356" y="55"/>
      <point x="436" y="165"/>
      <point x="436" y="256" type="qcurve" smooth="yes"/>
      <point x="436" y="350"/>
      <point x="356" y="461"/>
    </contour>
    <contour>
      <point x="590" y="68" type="line"/>
      <point x="590" y="0" type="line"/>
      <point x="445" y="0" type="line"/>
      <point x="445" y="69" type="line"/>
      <point x="411" y="20"/>
      <point x="332" y="-23"/>
      <point x="278" y="-23" type="qcurve" smooth="yes"/>
      <point x="172" y="-23"/>
      <point x="50" y="130"/>
      <point x="50" y="263" type="qcurve" smooth="yes"/>
      <point x="50" y="388"/>
      <point x="173" y="539"/>
      <point x="275" y="539" type="qcurve" smooth="yes"/>
      <point x="383" y="539"/>
      <point x="436" y="458" type="qcurve"/>
      <point x="437" y="661" type="line"/>
      <point x="365" y="661" type="line"/>
      <point x="365" y="729" type="line"/>
      <point x="519" y="729" type="line"/>
      <point x="519" y="68" type="line"/>
    </contour>
  </outline>
</glyph>
<glyph name="g" format="1">
  <advance width="614"/>
  <unicode hex="0067"/>
  <outline>
    <contour>
      <point x="282" y="462" type="qcurve" smooth="yes"/>
      <point x="215" y="462"/>
      <point x="137" y="352"/>
      <point x="137" y="258" type="qcurve" smooth="yes"/>
      <point x="137" y="163"/>
      <point x="215" y="54"/>
      <point x="283" y="54" type="qcurve" smooth="yes"/>
      <point x="349" y="54"/>
      <point x="425" y="161"/>
      <point x="425" y="255" type="qcurve" smooth="yes"/>
      <point x="425" y="353"/>
      <point x="350" y="462"/>
    </contour>
    <contour>
      <point x="510" y="456" type="line"/>
      <point x="510" y="86" type="line" smooth="yes"/>
      <point x="510" y="11"/>
      <point x="492" y="-90"/>
      <point x="444" y="-176"/>
      <point x="349" y="-218"/>
      <point x="276" y="-218" type="qcurve" smooth="yes"/>
      <point x="184" y="-218"/>
      <point x="74" y="-134"/>
      <point x="67" y="-60" type="qcurve"/>
      <point x="152" y="-60" type="line"/>
      <point x="166" y="-148"/>
      <point x="279" y="-148" type="qcurve" smooth="yes"/>
      <point x="363" y="-148"/>
      <point x="425" y="-53"/>
      <point x="425" y="44" type="qcurve" smooth="yes"/>
      <point x="425" y="71" type="line"/>
      <point x="390" y="21"/>
      <point x="315" y="-23"/>
      <point x="266" y="-23" type="qcurve" smooth="yes"/>
      <point x="174" y="-23"/>
      <point x="50" y="128"/>
      <point x="50" y="253" type="qcurve" smooth="yes"/>
      <point x="50" y="381"/>
      <point x="173" y="539"/>
      <point x="273" y="539" type="qcurve" smooth="yes"/>
      <point x="371" y="539"/>
      <point x="433" y="448" type="qcurve"/>
      <point x="433" y="524" type="line"/>
      <point x="581" y="524" type="line"/>
      <point x="581" y="456" type="line"/>
    </contour>
  </outline>
</glyph>
<glyph name="h" format="1">
  <advance width="641"/>
  <unicode hex="0068"/>
  <outline>
    <contour>
      <point x="117" y="661" type="line"/>
      <point x="46" y="661" type="line"/>
      <point x="46" y="729" type="line"/>
      <point x="200" y="729" type="line"/>
      <point x="200" y="452" type="line"/>
      <point x="237" y="500"/>
      <point x="312" y="539"/>
      <point x="368" y="539" type="qcurve" smooth="yes"/>
      <point x="444" y="539"/>
      <point x="488" y="500" type="qcurve"/>
      <point x="533" y="463"/>
      <point x="533" y="396" type="qcurve" smooth="yes"/>
      <point x="533" y="68" type="line"/>
      <point x="604" y="68" type="line"/>
      <point x="604" y="0" type="line"/>
      <point x="450" y="0" type="line"/>
      <point x="450" y="363" type="line" smooth="yes"/>
      <point x="450" y="418"/>
      <point x="383" y="466"/>
      <point x="342" y="466" type="qcurve" smooth="yes"/>
      <point x="278" y="466"/>
      <point x="200" y="369"/>
      <point x="200" y="289" type="qcurve" smooth="yes"/>
      <point x="200" y="68" type="line"/>
      <point x="271" y="68" type="line"/>
      <point x="271" y="0" type="line"/>
      <point x="46" y="0" type="line"/>
      <point x="46" y="68" type="line"/>
      <point x="117" y="68" type="line"/>
    </contour>
  </outline>
</glyph>
<glyph name="i" format="1">
  <advance width="320"/>
  <unicode hex="0069"/>
  <outline>
    <contour>
      <point x="208" y="729" type="line"/>
      <point x="208" y="624" type="line"/>
      <point x="124" y="624" type="line"/>
      <point x="124" y="729" type="line"/>
    </contour>
    <contour>
      <point x="125" y="456" type="line"/>
      <point x="125" y="68" type="line"/>
      <point x="54" y="68" type="line"/>
      <point x="54" y="0" type="line"/>
      <point x="279" y="0" type="line"/>
      <point x="279" y="68" type="line"/>
      <point x="208" y="68" type="line"/>
      <point x="208" y="524" type="line"/>
      <point x="54" y="524" type="line"/>
      <point x="54" y="456" type="line"/>
    </contour>
  </outline>
</glyph>
<glyph name="j" format="1">
  <advance width="304"/>
  <unicode hex="006A"/>
  <outline>
    <contour>
      <point x="125" y="456" type="line"/>
      <point x="54" y="456" type="line"/>
      <point x="54" y="524" type="line"/>
      <point x="208" y="524" type="line"/>
      <point x="208" y="-109" type="line" smooth="yes"/>
      <point x="208" y="-218"/>
      <point x="65" y="-218" type="qcurve" smooth="yes"/>
      <point x="52" y="-218"/>
      <point x="37" y="-215" type="qcurve"/>
      <point x="37" y="-144" type="line"/>
      <point x="54" y="-145"/>
      <point x="57" y="-145" type="qcurve" smooth="yes"/>
      <point x="95" y="-145"/>
      <point x="125" y="-115"/>
      <point x="125" y="-76" type="qcurve" smooth="yes"/>
    </contour>
    <contour>
      <point x="208" y="729" type="line"/>
      <point x="208" y="624" type="line"/>
      <point x="125" y="624" type="line"/>
      <point x="125" y="729" type="line"/>
    </contour>
  </outline>
</glyph>
<glyph name="k" format="1">
  <advance width="608"/>
  <unicode hex="006B"/>
  <outline>
    <contour>
      <point x="120" y="661" type="line"/>
      <point x="49" y="661" type="line"/>
      <point x="49" y="729" type="line"/>
      <point x="203" y="729" type="line"/>
      <point x="203" y="302" type="line"/>
      <point x="425" y="524" type="line"/>
      <point x="532" y="524" type="line"/>
      <point x="350" y="343" type="line"/>
      <point x="523" y="68" type="line"/>
      <point x="595" y="68" type="line"/>
      <point x="595" y="0" type="line"/>
      <point x="461" y="0" type="line"/>
      <point x="284" y="284" type="line"/>
      <point x="203" y="204" type="line"/>
      <point x="203" y="0" type="line"/>
      <point x="49" y="0" type="line"/>
      <point x="49" y="68" type="line"/>
      <point x="120" y="68" type="line"/>
    </contour>
  </outline>
</glyph>
<glyph name="l" format="1">
  <advance width="314"/>
  <unicode hex="006C"/>
  <outline>
    <contour>
      <point x="46" y="661" type="line"/>
      <point x="46" y="729" type="line"/>
      <point x="201" y="729" type="line"/>
      <point x="201" y="68" type="line"/>
      <point x="272" y="68" type="line"/>
      <point x="272" y="0" type="line"/>
      <point x="46" y="0" type="line"/>
      <point x="46" y="68" type="line"/>
      <point x="117" y="68" type="line"/>
      <point x="117" y="661" type="line"/>
    </contour>
  </outline>
</glyph>
<glyph name="m" format="1">
  <advance width="914"/>
  <unicode hex="006D"/>
  <outline>
    <contour>
      <point x="574" y="68" type="line"/>
      <point x="574" y="0" type="line"/>
      <point x="419" y="0" type="line"/>
      <point x="419" y="361" type="line" smooth="yes"/>
      <point x="419" y="411"/>
      <point x="368" y="466"/>
      <point x="322" y="466" type="qcurve" smooth="yes"/>
      <point x="271" y="466"/>
      <point x="199" y="386"/>
      <point x="199" y="329" type="qcurve" smooth="yes"/>
      <point x="199" y="68" type="line"/>
      <point x="270" y="68" type="line"/>
      <point x="270" y="0" type="line"/>
      <point x="44" y="0" type="line"/>
      <point x="44" y="68" type="line"/>
      <point x="115" y="68" type="line"/>
      <point x="115" y="456" type="line"/>
      <point x="44" y="456" type="line"/>
      <point x="44" y="524" type="line"/>
      <point x="192" y="524" type="line"/>
      <point x="192" y="450" type="line"/>
      <point x="226" y="497"/>
      <point x="301" y="539"/>
      <point x="353" y="539" type="qcurve" smooth="yes"/>
      <point x="450" y="539"/>
      <point x="494" y="459" type="qcurve"/>
      <point x="531" y="503"/>
      <point x="603" y="539"/>
      <point x="655" y="539" type="qcurve" smooth="yes"/>
      <point x="728" y="539"/>
      <point x="807" y="464"/>
      <point x="807" y="393" type="qcurve" smooth="yes"/>
      <point x="807" y="68" type="line"/>
      <point x="878" y="68" type="line"/>
      <point x="878" y="0" type="line"/>
      <point x="723" y="0" type="line"/>
      <point x="723" y="361" type="line" smooth="yes"/>
      <point x="723" y="411"/>
      <point x="672" y="466"/>
      <point x="626" y="466" type="qcurve" smooth="yes"/>
      <point x="575" y="466"/>
      <point x="503" y="386"/>
      <point x="503" y="329" type="qcurve" smooth="yes"/>
      <point x="503" y="68" type="line"/>
    </contour>
  </outline>
</glyph>
<glyph name="n" format="1">
  <advance width="639"/>
  <unicode hex="006E"/>
  <outline>
    <contour>
      <point x="603" y="68" type="line"/>
      <point x="603" y="0" type="line"/>
      <point x="449" y="0" type="line"/>
      <point x="449" y="363" type="line" smooth="yes"/>
      <point x="449" y="410"/>
      <point x="391" y="466"/>
      <point x="341" y="466" type="qcurve" smooth="yes"/>
      <point x="277" y="466"/>
      <point x="199" y="369"/>
      <point x="199" y="289" type="qcurve" smooth="yes"/>
      <point x="199" y="68" type="line"/>
      <point x="270" y="68" type="line"/>
      <point x="270" y="0" type="line"/>
      <point x="44" y="0" type="line"/>
      <point x="44" y="68" type="line"/>
      <point x="115" y="68" type="line"/>
      <point x="115" y="456" type="line"/>
      <point x="44" y="456" type="line"/>
      <point x="44" y="524" type="line"/>
      <point x="192" y="524" type="line"/>
      <point x="192" y="436" type="line"/>
      <point x="227" y="491"/>
      <point x="308" y="539"/>
      <point x="366" y="539" type="qcurve" smooth="yes"/>
      <point x="442" y="539"/>
      <point x="532" y="461"/>
      <point x="532" y="396" type="qcurve" smooth="yes"/>
      <point x="532" y="68" type="line"/>
    </contour>
  </outline>
</glyph>
<glyph name="p" format="1">
  <advance width="620"/>
  <unicode hex="0070"/>
  <outline>
    <contour>
      <point x="333" y="461" type="qcurve" smooth="yes"/>
      <point x="267" y="461"/>
      <point x="187" y="350"/>
      <point x="187" y="166"/>
      <point x="267" y="55"/>
      <point x="333" y="55" type="qcurve" smooth="yes"/>
      <point x="401" y="55"/>
      <point x="485" y="166"/>
      <point x="485" y="255" type="qcurve" smooth="yes"/>
      <point x="485" y="349"/>
      <point x="402" y="461"/>
    </contour>
    <contour>
      <point x="32" y="456" type="line"/>
      <point x="32" y="524" type="line"/>
      <point x="180" y="524" type="line"/>
      <point x="180" y="445" type="line"/>
      <point x="239" y="539"/>
      <point x="347" y="539" type="qcurve" smooth="yes"/>
      <point x="451" y="539"/>
      <point x="572" y="385"/>
      <point x="572" y="253" type="qcurve" smooth="yes"/>
      <point x="572" y="128"/>
      <point x="449" y="-23"/>
      <point x="348" y="-23" type="qcurve" smooth="yes"/>
      <point x="251" y="-23"/>
      <point x="187" y="55" type="qcurve"/>
      <point x="187" y="-150" type="line"/>
      <point x="258" y="-150" type="line"/>
      <point x="258" y="-218" type="line"/>
      <point x="32" y="-218" type="line"/>
      <point x="32" y="-150" type="line"/>
      <point x="103" y="-150" type="line"/>
      <point x="103" y="456" type="line"/>
    </contour>
  </outline>
</glyph>
<glyph name="q" format="1">
  <advance width="623"/>
  <unicode hex="0071"/>
  <outline>
    <contour>
      <point x="289" y="461" type="qcurve" smooth="yes"/>
      <point x="220" y="461"/>
      <point x="136" y="349"/>
      <point x="136" y="258" type="qcurve" smooth="yes"/>
      <point x="136" y="166"/>
      <point x="220" y="55"/>
      <point x="289" y="55" type="qcurve" smooth="yes"/>
      <point x="355" y="55"/>
      <point x="435" y="165"/>
      <point x="435" y="255" type="qcurve" smooth="yes"/>
      <point x="435" y="349"/>
      <point x="356" y="461"/>
    </contour>
    <contour>
      <point x="518" y="-150" type="line"/>
      <point x="589" y="-150" type="line"/>
      <point x="589" y="-218" type="line"/>
      <point x="364" y="-218" type="line"/>
      <point x="364" y="-150" type="line"/>
      <point x="435" y="-150" type="line"/>
      <point x="435" y="60" type="line"/>
      <point x="378" y="-23"/>
      <point x="273" y="-23" type="qcurve" smooth="yes"/>
      <point x="169" y="-23"/>
      <point x="49" y="125"/>
      <point x="49" y="252" type="qcurve" smooth="yes"/>
      <point x="49" y="382"/>
      <point x="173" y="539"/>
      <point x="277" y="539" type="qcurve" smooth="yes"/>
      <point x="384" y="539"/>
      <point x="444" y="454" type="qcurve"/>
      <point x="444" y="524" type="line"/>
      <point x="589" y="524" type="line"/>
      <point x="589" y="456" type="line"/>
      <point x="518" y="456" type="line"/>
    </contour>
  </outline>
</glyph>
<glyph name="r" format="1">
  <advance width="401"/>
  <unicode hex="0072"/>
  <outline>
    <contour>
      <point x="44" y="456" type="line"/>
      <point x="44" y="524" type="line"/>
      <point x="192" y="524" type="line"/>
      <point x="192" y="429" type="line"/>
      <point x="228" y="488"/>
      <point x="295" y="539"/>
      <point x="335" y="539" type="qcurve" smooth="yes"/>
      <point x="346" y="539"/>
      <point x="367" y="536" type="qcurve"/>
      <point x="367" y="451" type="line"/>
      <point x="283" y="449"/>
      <point x="241" y="412" type="qcurve" smooth="yes"/>
      <point x="200" y="375"/>
      <point x="199" y="272" type="qcurve" smooth="yes"/>
      <point x="198" y="68" type="line"/>
      <point x="270" y="68" type="line"/>
      <point x="270" y="0" type="line"/>
      <point x="44" y="0" type="line"/>
      <point x="44" y="68" type="line"/>
      <point x="115" y="68" type="line"/>
      <point x="115" y="456" type="line"/>
    </contour>
  </outline>
</glyph>
<glyph name="s" format="1">
  <advance width="528"/>
  <unicode hex="0073"/>
  <outline>
    <contour>
      <point x="140" y="156" type="line"/>
      <point x="146" y="109"/>
      <point x="199" y="54"/>
      <point x="268" y="54" type="qcurve" smooth="yes"/>
      <point x="323" y="54"/>
      <point x="390" y="99"/>
      <point x="390" y="136" type="qcurve" smooth="yes"/>
      <point x="390" y="165"/>
      <point x="352" y="199"/>
      <point x="309" y="209" type="qcurve" smooth="yes"/>
      <point x="231" y="228" type="line" smooth="yes"/>
      <point x="138" y="250"/>
      <point x="65" y="317"/>
      <point x="65" y="379" type="qcurve" smooth="yes"/>
      <point x="65" y="452"/>
      <point x="175" y="539"/>
      <point x="357" y="539"/>
      <point x="455" y="455"/>
      <point x="456" y="378" type="qcurve"/>
      <point x="368" y="378" type="line"/>
      <point x="365" y="462"/>
      <point x="263" y="462" type="qcurve" smooth="yes"/>
      <point x="212" y="462"/>
      <point x="152" y="419"/>
      <point x="152" y="383" type="qcurve" smooth="yes"/>
      <point x="152" y="355"/>
      <point x="198" y="320"/>
      <point x="249" y="308" type="qcurve" smooth="yes"/>
      <point x="329" y="289" type="line" smooth="yes"/>
      <point x="407" y="270"/>
      <point x="477" y="201"/>
      <point x="477" y="143" type="qcurve" smooth="yes"/>
      <point x="477" y="67"/>
      <point x="360" y="-23"/>
      <point x="261" y="-23" type="qcurve" smooth="yes"/>
      <point x="58" y="-23"/>
      <point x="52" y="156" type="qcurve"/>
    </contour>
  </outline>
</glyph>
<glyph name="t" format="1">
  <advance width="340"/>
  <unicode hex="0074"/>
  <outline>
    <contour>
      <point x="285" y="524" type="line"/>
      <point x="285" y="456" type="line"/>
      <point x="199" y="456" type="line"/>
      <point x="199" y="104" type="line" smooth="yes"/>
      <point x="199" y="76"/>
      <point x="218" y="57"/>
      <point x="245" y="57" type="qcurve" smooth="yes"/>
      <point x="270" y="57"/>
      <point x="285" y="61" type="qcurve"/>
      <point x="285" y="-9" type="line"/>
      <point x="246" y="-16"/>
      <point x="217" y="-16" type="qcurve" smooth="yes"/>
      <point x="168" y="-16"/>
      <point x="116" y="27"/>
      <point x="116" y="67" type="qcurve" smooth="yes"/>
      <point x="116" y="456" type="line"/>
      <point x="45" y="456" type="line"/>
      <point x="45" y="524" type="line"/>
      <point x="116" y="524" type="line"/>
      <point x="116" y="668" type="line"/>
      <point x="199" y="668" type="line"/>
      <point x="199" y="524" type="line"/>
    </contour>
  </outline>
</glyph>
<glyph name="u" format="1">
  <advance width="627"/>
  <unicode hex="0075"/>
  <outline>
    <contour>
      <point x="31" y="456" type="line"/>
      <point x="31" y="524" type="line"/>
      <point x="185" y="524" type="line"/>
      <point x="185" y="153" type="line" smooth="yes"/>
      <point x="185" y="106"/>
      <point x="243" y="50"/>
      <point x="293" y="50" type="qcurve" smooth="yes"/>
      <point x="358" y="50"/>
      <point x="397" y="98" type="qcurve" smooth="yes"/>
      <point x="436" y="147"/>
      <point x="436" y="227" type="qcurve" smooth="yes"/>
      <point x="436" y="456" type="line"/>
      <point x="365" y="456" type="line"/>
      <point x="365" y="524" type="line"/>
      <point x="519" y="524" type="line"/>
      <point x="519" y="68" type="line"/>
      <point x="590" y="68" type="line"/>
      <point x="590" y="0" type="line"/>
      <point x="444" y="0" type="line"/>
      <point x="444" y="73" type="line"/>
      <point x="407" y="21"/>
      <point x="327" y="-23"/>
      <point x="269" y="-23" type="qcurve" smooth="yes"/>
      <point x="193" y="-23"/>
      <point x="102" y="55"/>
      <point x="102" y="120" type="qcurve" smooth="yes"/>
      <point x="102" y="456" type="line"/>
    </contour>
  </outline>
</glyph>
<glyph name="v" format="1">
  <advance width="600"/>
  <unicode hex="0076"/>
  <outline>
    <contour>
      <point x="25" y="456" type="line"/>
      <point x="25" y="524" type="line"/>
      <point x="190" y="524" type="line"/>
      <point x="330" y="99" type="line"/>
      <point x="454" y="456" type="line"/>
      <point x="407" y="456" type="line"/>
      <point x="407" y="524" type="line"/>
      <point x="572" y="524" type="line"/>
      <point x="371" y="0" type="line"/>
      <point x="280" y="0" type="line"/>
      <point x="120" y="456" type="line"/>
    </contour>
  </outline>
</glyph>
<glyph name="w" format="1">
  <advance width="896"/>
  <unicode hex="0077"/>
  <outline>
    <contour>
      <point x="778" y="456" type="line"/>
      <point x="644" y="0" type="line"/>
      <point x="549" y="0" type="line"/>
      <point x="443" y="411" type="line"/>
      <point x="342" y="0" type="line"/>
      <point x="248" y="0" type="line"/>
      <point x="116" y="456" type="line"/>
      <point x="25" y="456" type="line"/>
      <point x="25" y="524" type="line"/>
      <point x="259" y="524" type="line"/>
      <point x="259" y="456" type="line"/>
      <point x="206" y="456" type="line"/>
      <point x="295" y="116" type="line"/>
      <point x="395" y="524" type="line"/>
      <point x="497" y="524" type="line"/>
      <point x="600" y="116" type="line"/>
      <point x="687" y="456" type="line"/>
      <point x="633" y="456" type="line"/>
      <point x="633" y="524" type="line"/>
      <point x="869" y="524" type="line"/>
      <point x="869" y="456" type="line"/>
    </contour>
  </outline>
</glyph>
<glyph name="x" format="1">
  <advance width="620"/>
  <unicode hex="0078"/>
  <outline>
    <contour>
      <point x="222" y="68" type="line"/>
      <point x="258" y="68" type="line"/>
      <point x="258" y="0" type="line"/>
      <point x="51" y="0" type="line"/>
      <point x="51" y="68" type="line"/>
      <point x="131" y="68" type="line"/>
      <point x="267" y="267" type="line"/>
      <point x="138" y="456" type="line"/>
      <point x="61" y="456" type="line"/>
      <point x="61" y="524" type="line"/>
      <point x="268" y="524" type="line"/>
      <point x="268" y="456" type="line"/>
      <point x="232" y="456" type="line"/>
      <point x="313" y="334" type="line"/>
      <point x="395" y="456" type="line"/>
      <point x="356" y="456" type="line"/>
      <point x="356" y="524" type="line"/>
      <point x="564" y="524" type="line"/>
      <point x="564" y="456" type="line"/>
      <point x="486" y="456" type="line"/>
      <point x="357" y="271" type="line"/>
      <point x="493" y="68" type="line"/>
      <point x="569" y="68" type="line"/>
      <point x="569" y="0" type="line"/>
      <point x="360" y="0" type="line"/>
      <point x="360" y="68" type="line"/>
      <point x="397" y="68" type="line"/>
      <point x="310" y="201" type="line"/>
    </contour>
  </outline>
</glyph>
<glyph name="y" format="1">
  <advance width="576"/>
  <unicode hex="0079"/>
  <outline>
    <contour>
      <point x="25" y="456" type="line"/>
      <point x="25" y="524" type="line"/>
      <point x="178" y="524" type="line"/>
      <point x="312" y="116" type="line"/>
      <point x="433" y="456" type="line"/>
      <point x="386" y="456" type="line"/>
      <point x="386" y="524" type="line"/>
      <point x="547" y="524" type="line"/>
      <point x="314" y="-110" type="line"/>
      <point x="273" y="-218"/>
      <point x="179" y="-218" type="qcurve" smooth="yes"/>
      <point x="148" y="-218"/>
      <point x="123" y="-205" type="qcurve"/>
      <point x="123" y="-130" type="line"/>
      <point x="150" y="-136"/>
      <point x="167" y="-136" type="qcurve" smooth="yes"/>
      <point x="193" y="-136"/>
      <point x="208" y="-124" type="qcurve" smooth="yes"/>
      <point x="223" y="-113"/>
      <point x="234" y="-85" type="qcurve" smooth="yes"/>
      <point x="266" y="-2" type="line"/>
      <point x="112" y="456" type="line"/>
    </contour>
  </outline>
</glyph>
<glyph name="z" format="1">
  <advance width="520"/>
  <unicode hex="007A"/>
  <outline>
    <contour>
      <point x="398" y="141" type="line"/>
      <point x="469" y="141" type="line"/>
      <point x="469" y="0" type="line"/>
      <point x="43" y="0" type="line"/>
      <point x="43" y="75" type="line"/>
      <point x="356" y="451" type="line"/>
      <point x="135" y="451" type="line"/>
      <point x="135" y="383" type="line"/>
      <point x="64" y="383" type="line"/>
      <point x="64" y="524" type="line"/>
      <point x="455" y="524" type="line"/>
      <point x="455" y="450" type="line"/>
      <point x="144" y="73" type="line"/>
      <point x="398" y="73" type="line"/>
    </contour>
  </outline>
</glyph>
<glyph name="uni0080" format="1">
  <advance width="578"/>
  <unicode hex="0080"/>
  <outline>
    <contour>
      <point x="474" y="83" type="line"/>
      <point x="557" y="83" type="line"/>
      <point x="557" y="0" type="line"/>
      <point x="474" y="0" type="line"/>
    </contour>
    <contour>
      <point x="65" y="369" type="line"/>
      <point x="71" y="539"/>
      <point x="275" y="539" type="qcurve" smooth="yes"/>
      <point x="372" y="539"/>
      <point x="472" y="466"/>
      <point x="472" y="396" type="qcurve" smooth="yes"/>
      <point x="472" y="88" type="line" smooth="yes"/>
      <point x="472" y="47"/>
      <point x="517" y="47" type="qcurve" smooth="yes"/>
      <point x="526" y="47"/>
      <point x="535" y="49" type="qcurve"/>
      <point x="535" y="-14" type="line"/>
      <point x="500" y="-23"/>
      <point x="478" y="-23" type="qcurve" smooth="yes"/>
      <point x="438" y="-23"/>
      <point x="397" y="14"/>
      <point x="392" y="54" type="qcurve"/>
      <point x="308" y="-23"/>
      <point x="214" y="-23" type="qcurve" smooth="yes"/>
      <point x="135" y="-23"/>
      <point x="42" y="61"/>
      <point x="42" y="132" type="qcurve" smooth="yes"/>
      <point x="42" y="155"/>
      <point x="51" y="193"/>
      <point x="62" y="222"/>
      <point x="90" y="247"/>
      <point x="109" y="263"/>
      <point x="154" y="278"/>
      <point x="178" y="285"/>
      <point x="238" y="295"/>
      <point x="266" y="299"/>
      <point x="302" y="304" type="qcurve" smooth="yes"/>
      <point x="351" y="310"/>
      <point x="389" y="336"/>
      <point x="389" y="362" type="qcurve" smooth="yes"/>
      <point x="389" y="384" type="line" smooth="yes"/>
      <point x="389" y="422"/>
      <point x="328" y="462"/>
      <point x="272" y="462" type="qcurve" smooth="yes"/>
      <point x="214" y="462"/>
      <point x="154" y="417"/>
      <point x="149" y="369" type="qcurve"/>
    </contour>
    <contour>
      <point x="232" y="50" type="qcurve" smooth="yes"/>
      <point x="301" y="50"/>
      <point x="389" y="123"/>
      <point x="389" y="165" type="qcurve" smooth="yes"/>
      <point x="389" y="259" type="line"/>
      <point x="364" y="247"/>
      <point x="263" y="231"/>
      <point x="189" y="219"/>
      <point x="129" y="174"/>
      <point x="129" y="94"/>
      <point x="183" y="50"/>
    </contour>
  </outline>
</glyph>
<glyph name="Agrave" format="1">
  <advance width="949"/>
  <unicode hex="00C0"/>
  <outline>
    <contour>
      <point x="593" y="0" type="line"/>
      <point x="593" y="81" type="line"/>
      <point x="659" y="81" type="line"/>
      <point x="612" y="219" type="line"/>
      <point x="331" y="219" type="line"/>
      <point x="282" y="81" type="line"/>
      <point x="348" y="81" type="line"/>
      <point x="348" y="0" type="line"/>
      <point x="61" y="0" type="line"/>
      <point x="61" y="81" type="line"/>
      <point x="184" y="81" type="line"/>
      <point x="386" y="648" type="line"/>
      <point x="321" y="648" type="line"/>
      <point x="321" y="729" type="line"/>
      <point x="535" y="729" type="line"/>
      <point x="763" y="81" type="line"/>
      <point x="885" y="81" type="line"/>
      <point x="885" y="0" type="line"/>
    </contour>
    <contour>
      <point x="586" y="297" type="line"/>
      <point x="474" y="629" type="line"/>
      <point x="354" y="297" type="line"/>
    </contour>
    <contour>
      <point x="415" y="939" type="line"/>
      <point x="511" y="791" type="line"/>
      <point x="451" y="791" type="line"/>
      <point x="302" y="939" type="line"/>
    </contour>
  </outline>
</glyph>
<glyph name="Aacute" format="1">
  <advance width="964"/>
  <unicode hex="00C1"/>
  <outline>
    <contour>
      <point x="602" y="0" type="line"/>
      <point x="602" y="81" type="line"/>
      <point x="668" y="81" type="line"/>
      <point x="621" y="219" type="line"/>
      <point x="340" y="219" type="line"/>
      <point x="291" y="81" type="line"/>
      <point x="357" y="81" type="line"/>
      <point x="357" y="0" type="line"/>
      <point x="70" y="0" type="line"/>
      <point x="70" y="81" type="line"/>
      <point x="193" y="81" type="line"/>
      <point x="395" y="648" type="line"/>
      <point x="330" y="648" type="line"/>
      <point x="330" y="729" type="line"/>
      <point x="544" y="729" type="line"/>
      <point x="772" y="81" type="line"/>
      <point x="894" y="81" type="line"/>
      <point x="894" y="0" type="line"/>
    </contour>
    <contour>
      <point x="595" y="297" type="line"/>
      <point x="483" y="629" type="line"/>
      <point x="363" y="297" type="line"/>
    </contour>
    <contour>
      <point x="531" y="939" type="line"/>
      <point x="644" y="939" type="line"/>
      <point x="495" y="791" type="line"/>
      <point x="435" y="791" type="line"/>
    </contour>
  </outline>
</glyph>
<glyph name="AE" format="1">
  <advance width="1161"/>
  <unicode hex="00C6"/>
  <outline>
    <contour>
      <point x="70" y="81" type="line"/>
      <point x="159" y="81" type="line"/>
      <point x="425" y="729" type="line"/>
      <point x="1047" y="729" type="line"/>
      <point x="1047" y="566" type="line"/>
      <point x="953" y="566" type="line"/>
      <point x="953" y="647" type="line"/>
      <point x="676" y="647" type="line"/>
      <point x="676" y="414" type="line"/>
      <point x="1028" y="414" type="line"/>
      <point x="1028" y="332" type="line"/>
      <point x="676" y="332" type="line"/>
      <point x="676" y="82" type="line"/>
      <point x="971" y="82" type="line"/>
      <point x="971" y="164" type="line"/>
      <point x="1065" y="164" type="line"/>
      <point x="1065" y="0" type="line"/>
      <point x="583" y="0" type="line"/>
      <point x="583" y="214" type="line"/>
      <point x="314" y="214" type="line"/>
      <point x="261" y="81" type="line"/>
      <point x="357" y="81" type="line"/>
      <point x="357" y="0" type="line"/>
      <point x="70" y="0" type="line"/>
    </contour>
    <contour>
      <point x="583" y="296" type="line"/>
      <point x="583" y="647" type="line"/>
      <point x="483" y="647" type="line"/>
      <point x="345" y="296" type="line"/>
    </contour>
  </outline>
</glyph>
<glyph name="Ccedilla" format="1">
  <advance width="821"/>
  <unicode hex="00C7"/>
  <outline>
    <contour>
      <point x="420" y="58" type="qcurve" smooth="yes"/>
      <point x="510" y="58"/>
      <point x="605" y="158"/>
      <point x="623" y="266" type="qcurve"/>
      <point x="719" y="266" type="line"/>
      <point x="686" y="-23"/>
      <point x="421" y="-23" type="qcurve"/>
      <point x="408" y="-56" type="line"/>
      <point x="415" y="-55"/>
      <point x="428" y="-54"/>
      <point x="436" y="-54" type="qcurve" smooth="yes"/>
      <point x="515" y="-54"/>
      <point x="515" y="-121" type="qcurve" smooth="yes"/>
      <point x="515" y="-164"/>
      <point x="449" y="-214"/>
      <point x="392" y="-214" type="qcurve" smooth="yes"/>
      <point x="342" y="-214"/>
      <point x="267" y="-180" type="qcurve"/>
      <point x="288" y="-140" type="line"/>
      <point x="307" y="-150"/>
      <point x="361" y="-173"/>
      <point x="386" y="-173" type="qcurve" smooth="yes"/>
      <point x="409" y="-173"/>
      <point x="440" y="-147"/>
      <point x="440" y="-128" type="qcurve" smooth="yes"/>
      <point x="440" y="-91"/>
      <point x="394" y="-91" type="qcurve" smooth="yes"/>
      <point x="381" y="-91"/>
      <point x="363" y="-99" type="qcurve"/>
      <point x="352" y="-92" type="line"/>
      <point x="383" y="-23" type="line"/>
      <point x="355" y="-19"/>
      <point x="312" y="-9"/>
      <point x="297" y="-4" type="qcurve" smooth="yes"/>
      <point x="267" y="6"/>
      <point x="234" y="29" type="qcurve" smooth="yes"/>
      <point x="165" y="78"/>
      <point x="90" y="250"/>
      <point x="90" y="356" type="qcurve" smooth="yes"/>
      <point x="90" y="407"/>
      <point x="107" y="503"/>
      <point x="131" y="557" type="qcurve" smooth="yes"/>
      <point x="155" y="609"/>
      <point x="190" y="649" type="qcurve" smooth="yes"/>
      <point x="226" y="689"/>
      <point x="347" y="741"/>
      <point x="423" y="741" type="qcurve" smooth="yes"/>
      <point x="483" y="741"/>
      <point x="577" y="705"/>
      <point x="617" y="657" type="qcurve"/>
      <point x="617" y="742" type="line"/>
      <point x="705" y="742" type="line"/>
      <point x="704" y="503" type="line"/>
      <point x="609" y="503" type="line"/>
      <point x="593" y="581"/>
      <point x="501" y="659"/>
      <point x="413" y="659" type="qcurve" smooth="yes"/>
      <point x="305" y="659"/>
      <point x="244" y="578" type="qcurve" smooth="yes"/>
      <point x="183" y="498"/>
      <point x="183" y="357" type="qcurve" smooth="yes"/>
      <point x="183" y="219"/>
      <point x="247" y="139" type="qcurve" smooth="yes"/>
      <point x="311" y="58"/>
    </contour>
  </outline>
</glyph>
<glyph name="Egrave" format="1">
  <advance width="792"/>
  <unicode hex="00C8"/>
  <outline>
    <contour>
      <point x="173" y="730" type="line"/>
      <point x="678" y="730" type="line"/>
      <point x="678" y="567" type="line"/>
      <point x="584" y="567" type="line"/>
      <point x="584" y="648" type="line"/>
      <point x="266" y="648" type="line"/>
      <point x="266" y="415" type="line"/>
      <point x="663" y="415" type="line"/>
      <point x="663" y="333" type="line"/>
      <point x="266" y="333" type="line"/>
      <point x="266" y="83" type="line"/>
      <point x="602" y="83" type="line"/>
      <point x="602" y="164" type="line"/>
      <point x="696" y="164" type="line"/>
      <point x="696" y="1" type="line"/>
      <point x="79" y="1" type="line"/>
      <point x="79" y="82" type="line"/>
      <point x="173" y="82" type="line"/>
      <point x="173" y="649" type="line"/>
      <point x="79" y="649" type="line"/>
      <point x="79" y="730" type="line"/>
    </contour>
    <contour>
      <point x="369" y="939" type="line"/>
      <point x="465" y="791" type="line"/>
      <point x="405" y="791" type="line"/>
      <point x="256" y="939" type="line"/>
    </contour>
  </outline>
</glyph>
<glyph name="Eacute" format="1">
  <advance width="792"/>
  <unicode hex="00C9"/>
  <outline>
    <contour>
      <point x="173" y="730" type="line"/>
      <point x="678" y="730" type="line"/>
      <point x="678" y="567" type="line"/>
      <point x="584" y="567" type="line"/>
      <point x="584" y="648" type="line"/>
      <point x="266" y="648" type="line"/>
      <point x="266" y="415" type="line"/>
      <point x="663" y="415" type="line"/>
      <point x="663" y="333" type="line"/>
      <point x="266" y="333" type="line"/>
      <point x="266" y="83" type="line"/>
      <point x="602" y="83" type="line"/>
      <point x="602" y="164" type="line"/>
      <point x="696" y="164" type="line"/>
      <point x="696" y="1" type="line"/>
      <point x="79" y="1" type="line"/>
      <point x="79" y="82" type="line"/>
      <point x="173" y="82" type="line"/>
      <point x="173" y="649" type="line"/>
      <point x="79" y="649" type="line"/>
      <point x="79" y="730" type="line"/>
    </contour>
    <contour>
      <point x="355" y="939" type="line"/>
      <point x="468" y="939" type="line"/>
      <point x="319" y="791" type="line"/>
      <point x="259" y="791" type="line"/>
    </contour>
  </outline>
</glyph>
<glyph name="Igrave" format="1">
  <advance width="436"/>
  <unicode hex="00CC"/>
  <outline>
    <contour>
      <point x="173" y="729" type="line"/>
      <point x="267" y="729" type="line"/>
      <point x="361" y="729" type="line"/>
      <point x="361" y="648" type="line"/>
      <point x="267" y="648" type="line"/>
      <point x="267" y="81" type="line"/>
      <point x="361" y="81" type="line"/>
      <point x="361" y="0" type="line"/>
      <point x="79" y="0" type="line"/>
      <point x="79" y="81" type="line"/>
      <point x="173" y="81" type="line"/>
      <point x="173" y="648" type="line"/>
      <point x="79" y="648" type="line"/>
      <point x="79" y="729" type="line"/>
    </contour>
    <contour>
      <point x="192" y="939" type="line"/>
      <point x="288" y="791" type="line"/>
      <point x="228" y="791" type="line"/>
      <point x="79" y="939" type="line"/>
    </contour>
  </outline>
</glyph>
<glyph name="Iacute" format="1">
  <advance width="436"/>
  <unicode hex="00CD"/>
  <outline>
    <contour>
      <point x="173" y="729" type="line"/>
      <point x="267" y="729" type="line"/>
      <point x="361" y="729" type="line"/>
      <point x="361" y="648" type="line"/>
      <point x="267" y="648" type="line"/>
      <point x="267" y="81" type="line"/>
      <point x="361" y="81" type="line"/>
      <point x="361" y="0" type="line"/>
      <point x="79" y="0" type="line"/>
      <point x="79" y="81" type="line"/>
      <point x="173" y="81" type="line"/>
      <point x="173" y="648" type="line"/>
      <point x="79" y="648" type="line"/>
      <point x="79" y="729" type="line"/>
    </contour>
    <contour>
      <point x="246" y="939" type="line"/>
      <point x="359" y="939" type="line"/>
      <point x="210" y="791" type="line"/>
      <point x="150" y="791" type="line"/>
    </contour>
  </outline>
</glyph>
<glyph name="Ograve" format="1">
  <advance width="884"/>
  <unicode hex="00D2"/>
  <outline>
    <contour>
      <point x="411" y="939" type="line"/>
      <point x="507" y="791" type="line"/>
      <point x="447" y="791" type="line"/>
      <point x="298" y="939" type="line"/>
    </contour>
    <contour>
      <point x="794" y="353" type="qcurve" smooth="yes"/>
      <point x="794" y="191"/>
      <point x="602" y="-23"/>
      <point x="442" y="-23" type="qcurve" smooth="yes"/>
      <point x="284" y="-23"/>
      <point x="90" y="188"/>
      <point x="90" y="530"/>
      <point x="284" y="741"/>
      <point x="441" y="741" type="qcurve" smooth="yes"/>
      <point x="601" y="741"/>
      <point x="794" y="529"/>
    </contour>
    <contour>
      <point x="441" y="659" type="qcurve" smooth="yes"/>
      <point x="325" y="659"/>
      <point x="183" y="494"/>
      <point x="183" y="224"/>
      <point x="326" y="59"/>
      <point x="558" y="59"/>
      <point x="701" y="223"/>
      <point x="701" y="355" type="qcurve" smooth="yes"/>
      <point x="701" y="493"/>
      <point x="559" y="659"/>
    </contour>
  </outline>
</glyph>
<glyph name="Oslash" format="1">
  <advance width="894"/>
  <unicode hex="00D8"/>
  <outline>
    <contour>
      <point x="90" y="19" type="line"/>
      <point x="171" y="108" type="line"/>
      <point x="95" y="214"/>
      <point x="95" y="360" type="qcurve" smooth="yes"/>
      <point x="95" y="530"/>
      <point x="290" y="741"/>
      <point x="447" y="741" type="qcurve" smooth="yes"/>
      <point x="584" y="741"/>
      <point x="677" y="660" type="qcurve"/>
      <point x="764" y="755" type="line"/>
      <point x="804" y="719" type="line"/>
      <point x="715" y="622" type="line"/>
      <point x="799" y="516"/>
      <point x="799" y="358" type="qcurve" smooth="yes"/>
      <point x="799" y="188"/>
      <point x="604" y="-23"/>
      <point x="447" y="-23" type="qcurve" smooth="yes"/>
      <point x="303" y="-23"/>
      <point x="206" y="67" type="qcurve"/>
      <point x="129" y="-17" type="line"/>
    </contour>
    <contour>
      <point x="234" y="176" type="qcurve"/>
      <point x="618" y="595" type="line"/>
      <point x="545" y="659"/>
      <point x="447" y="659" type="qcurve" smooth="yes"/>
      <point x="331" y="659"/>
      <point x="188" y="494"/>
      <point x="188" y="360" type="qcurve" smooth="yes"/>
      <point x="188" y="256"/>
    </contour>
    <contour>
      <point x="653" y="554" type="qcurve"/>
      <point x="266" y="133" type="line"/>
      <point x="340" y="59"/>
      <point x="447" y="59" type="qcurve" smooth="yes"/>
      <point x="563" y="59"/>
      <point x="706" y="224"/>
      <point x="706" y="358" type="qcurve" smooth="yes"/>
      <point x="706" y="472"/>
    </contour>
  </outline>
</glyph>
<glyph name="Yacute" format="1">
  <advance width="897"/>
  <unicode hex="00DD"/>
  <outline>
    <contour>
      <point x="450" y="939" type="line"/>
      <point x="563" y="939" type="line"/>
      <point x="414" y="791" type="line"/>
      <point x="354" y="791" type="line"/>
    </contour>
    <contour>
      <point x="566" y="81" type="line"/>
      <point x="566" y="0" type="line"/>
      <point x="472" y="0" type="line"/>
      <point x="472" y="81" type="line"/>
    </contour>
    <contour>
      <point x="379" y="81" type="line"/>
      <point x="379" y="0" type="line"/>
      <point x="285" y="0" type="line"/>
      <point x="285" y="81" type="line"/>
    </contour>
    <contour>
      <point x="472" y="286" type="line"/>
      <point x="472" y="0" type="line"/>
      <point x="379" y="0" type="line"/>
      <point x="379" y="286" type="line"/>
      <point x="98" y="729" type="line"/>
      <point x="213" y="729" type="line"/>
      <point x="427" y="374" type="line"/>
      <point x="635" y="729" type="line"/>
      <point x="746" y="729" type="line"/>
    </contour>
    <contour>
      <point x="781" y="729" type="line"/>
      <point x="781" y="648" type="line"/>
      <point x="677" y="648" type="line"/>
      <point x="677" y="729" type="line"/>
    </contour>
    <contour>
      <point x="636" y="729" type="line"/>
      <point x="636" y="648" type="line"/>
      <point x="522" y="648" type="line"/>
      <point x="522" y="729" type="line"/>
    </contour>
    <contour>
      <point x="328" y="729" type="line"/>
      <point x="328" y="648" type="line"/>
      <point x="214" y="648" type="line"/>
      <point x="214" y="729" type="line"/>
    </contour>
    <contour>
      <point x="179" y="729" type="line"/>
      <point x="179" y="648" type="line"/>
      <point x="65" y="648" type="line"/>
      <point x="65" y="729" type="line"/>
    </contour>
  </outline>
</glyph>
<glyph name="agrave" format="1">
  <advance width="612"/>
  <unicode hex="00E0"/>
  <outline>
    <contour>
      <point x="265" y="740" type="line"/>
      <point x="361" y="592" type="line"/>
      <point x="301" y="592" type="line"/>
      <point x="152" y="740" type="line"/>
    </contour>
    <contour>
      <point x="580" y="68" type="line"/>
      <point x="580" y="0" type="line"/>
      <point x="436" y="0" type="line"/>
      <point x="436" y="69" type="line"/>
      <point x="402" y="20"/>
      <point x="323" y="-23"/>
      <point x="269" y="-23" type="qcurve" smooth="yes"/>
      <point x="163" y="-23"/>
      <point x="41" y="130"/>
      <point x="41" y="263" type="qcurve" smooth="yes"/>
      <point x="41" y="388"/>
      <point x="164" y="539"/>
      <point x="266" y="539" type="qcurve" smooth="yes"/>
      <point x="374" y="539"/>
      <point x="427" y="458" type="qcurve"/>
      <point x="427" y="525" type="line"/>
      <point x="510" y="525" type="line"/>
      <point x="510" y="68" type="line"/>
    </contour>
    <contour>
      <point x="280" y="461" type="qcurve" smooth="yes"/>
      <point x="212" y="461"/>
      <point x="128" y="349"/>
      <point x="128" y="258" type="qcurve" smooth="yes"/>
      <point x="128" y="166"/>
      <point x="212" y="55"/>
      <point x="281" y="55" type="qcurve" smooth="yes"/>
      <point x="347" y="55"/>
      <point x="427" y="165"/>
      <point x="427" y="256" type="qcurve" smooth="yes"/>
      <point x="427" y="350"/>
      <point x="347" y="461"/>
    </contour>
  </outline>
</glyph>
<glyph name="ccedilla" format="1">
  <advance width="551"/>
  <unicode hex="00E7"/>
  <outline>
    <contour>
      <point x="243" y="-21" type="line"/>
      <point x="189" y="-11"/>
      <point x="112" y="45"/>
      <point x="93" y="75" type="qcurve" smooth="yes"/>
      <point x="73" y="107"/>
      <point x="63" y="146" type="qcurve" smooth="yes"/>
      <point x="58" y="166"/>
      <point x="53" y="196"/>
      <point x="50" y="220"/>
      <point x="49" y="241"/>
      <point x="49" y="253" type="qcurve" smooth="yes"/>
      <point x="49" y="383"/>
      <point x="112" y="461" type="qcurve" smooth="yes"/>
      <point x="176" y="539"/>
      <point x="282" y="539" type="qcurve" smooth="yes"/>
      <point x="373" y="539"/>
      <point x="418" y="471" type="qcurve"/>
      <point x="418" y="542" type="line"/>
      <point x="489" y="542" type="line"/>
      <point x="489" y="348" type="line"/>
      <point x="405" y="348" type="line"/>
      <point x="397" y="403"/>
      <point x="333" y="462"/>
      <point x="281" y="462" type="qcurve" smooth="yes"/>
      <point x="212" y="462"/>
      <point x="136" y="352"/>
      <point x="136" y="252" type="qcurve" smooth="yes"/>
      <point x="136" y="158"/>
      <point x="214" y="53"/>
      <point x="283" y="53" type="qcurve" smooth="yes"/>
      <point x="390" y="53"/>
      <point x="411" y="180" type="qcurve"/>
      <point x="495" y="180" type="line"/>
      <point x="492" y="133"/>
      <point x="460" y="58"/>
      <point x="404" y="5"/>
      <point x="328" y="-23"/>
      <point x="282" y="-23" type="qcurve"/>
      <point x="269" y="-56" type="line"/>
      <point x="276" y="-55"/>
      <point x="290" y="-54"/>
      <point x="297" y="-54" type="qcurve" smooth="yes"/>
      <point x="334" y="-54"/>
      <point x="376" y="-89"/>
      <point x="376" y="-121" type="qcurve" smooth="yes"/>
      <point x="376" y="-164"/>
      <point x="310" y="-214"/>
      <point x="253" y="-214" type="qcurve" smooth="yes"/>
      <point x="206" y="-214"/>
      <point x="128" y="-181" type="qcurve"/>
      <point x="149" y="-140" type="line"/>
      <point x="168" y="-150"/>
      <point x="222" y="-173"/>
      <point x="247" y="-173" type="qcurve" smooth="yes"/>
      <point x="270" y="-173"/>
      <point x="301" y="-147"/>
      <point x="301" y="-128" type="qcurve" smooth="yes"/>
      <point x="301" y="-91"/>
      <point x="255" y="-91" type="qcurve" smooth="yes"/>
      <point x="242" y="-91"/>
      <point x="224" y="-99" type="qcurve"/>
      <point x="212" y="-92" type="line"/>
    </contour>
  </outline>
</glyph>
<glyph name="egrave" format="1">
  <advance width="569"/>
  <unicode hex="00E8"/>
  <outline>
    <contour>
      <point x="262" y="740" type="line"/>
      <point x="358" y="592" type="line"/>
      <point x="298" y="592" type="line"/>
      <point x="149" y="740" type="line"/>
    </contour>
    <contour>
      <point x="522" y="234" type="qcurve"/>
      <point x="136" y="234" type="line"/>
      <point x="137" y="162"/>
      <point x="164" y="122" type="qcurve"/>
      <point x="207" y="54"/>
      <point x="290" y="54" type="qcurve" smooth="yes"/>
      <point x="392" y="54"/>
      <point x="427" y="159" type="qcurve"/>
      <point x="511" y="159" type="line"/>
      <point x="495" y="73"/>
      <point x="377" y="-23"/>
      <point x="287" y="-23" type="qcurve" smooth="yes"/>
      <point x="177" y="-23"/>
      <point x="49" y="126"/>
      <point x="49" y="384"/>
      <point x="180" y="539"/>
      <point x="289" y="539" type="qcurve" smooth="yes"/>
      <point x="363" y="539"/>
      <point x="476" y="465"/>
      <point x="501" y="401" type="qcurve" smooth="yes"/>
      <point x="522" y="346"/>
    </contour>
    <contour>
      <point x="138" y="302" type="qcurve"/>
      <point x="432" y="302" type="line"/>
      <point x="433" y="304"/>
      <point x="433" y="308" type="qcurve" smooth="yes"/>
      <point x="433" y="373"/>
      <point x="349" y="462"/>
      <point x="288" y="462" type="qcurve" smooth="yes"/>
      <point x="225" y="462"/>
      <point x="143" y="375"/>
    </contour>
  </outline>
</glyph>
<glyph name="eacute" format="1">
  <advance width="569"/>
  <unicode hex="00E9"/>
  <outline>
    <contour>
      <point x="317" y="739" type="line"/>
      <point x="430" y="739" type="line"/>
      <point x="281" y="591" type="line"/>
      <point x="221" y="591" type="line"/>
    </contour>
    <contour>
      <point x="522" y="234" type="qcurve"/>
      <point x="136" y="234" type="line"/>
      <point x="137" y="162"/>
      <point x="164" y="122" type="qcurve"/>
      <point x="207" y="54"/>
      <point x="290" y="54" type="qcurve" smooth="yes"/>
      <point x="392" y="54"/>
      <point x="427" y="159" type="qcurve"/>
      <point x="511" y="159" type="line"/>
      <point x="495" y="73"/>
      <point x="377" y="-23"/>
      <point x="287" y="-23" type="qcurve" smooth="yes"/>
      <point x="177" y="-23"/>
      <point x="49" y="126"/>
      <point x="49" y="384"/>
      <point x="180" y="539"/>
      <point x="289" y="539" type="qcurve" smooth="yes"/>
      <point x="363" y="539"/>
      <point x="476" y="465"/>
      <point x="501" y="401" type="qcurve" smooth="yes"/>
      <point x="522" y="346"/>
    </contour>
    <contour>
      <point x="138" y="302" type="qcurve"/>
      <point x="432" y="302" type="line"/>
      <point x="433" y="304"/>
      <point x="433" y="308" type="qcurve" smooth="yes"/>
      <point x="433" y="373"/>
      <point x="349" y="462"/>
      <point x="288" y="462" type="qcurve" smooth="yes"/>
      <point x="225" y="462"/>
      <point x="143" y="375"/>
    </contour>
  </outline>
</glyph>
<glyph name="igrave" format="1">
  <advance width="347"/>
  <unicode hex="00EC"/>
  <outline>
    <contour>
      <point x="167" y="738" type="line"/>
      <point x="263" y="590" type="line"/>
      <point x="203" y="590" type="line"/>
      <point x="54" y="738" type="line"/>
    </contour>
    <contour>
      <point x="152" y="455" type="line"/>
      <point x="152" y="67" type="line"/>
      <point x="81" y="67" type="line"/>
      <point x="81" y="-1" type="line"/>
      <point x="306" y="-1" type="line"/>
      <point x="306" y="67" type="line"/>
      <point x="235" y="67" type="line"/>
      <point x="235" y="523" type="line"/>
      <point x="81" y="523" type="line"/>
      <point x="81" y="455" type="line"/>
    </contour>
  </outline>
</glyph>
<glyph name="iacute" format="1">
  <advance width="346"/>
  <unicode hex="00ED"/>
  <outline>
    <contour>
      <point x="192" y="739" type="line"/>
      <point x="305" y="739" type="line"/>
      <point x="156" y="591" type="line"/>
      <point x="96" y="591" type="line"/>
    </contour>
    <contour>
      <point x="125" y="456" type="line"/>
      <point x="125" y="68" type="line"/>
      <point x="54" y="68" type="line"/>
      <point x="54" y="0" type="line"/>
      <point x="279" y="0" type="line"/>
      <point x="279" y="68" type="line"/>
      <point x="208" y="68" type="line"/>
      <point x="208" y="524" type="line"/>
      <point x="54" y="524" type="line"/>
      <point x="54" y="456" type="line"/>
    </contour>
  </outline>
</glyph>
<glyph name="icircumflex" format="1">
  <advance width="382"/>
  <unicode hex="00EE"/>
  <outline>
    <contour>
      <point x="134" y="741" type="line"/>
      <point x="229" y="741" type="line"/>
      <point x="325" y="591" type="line"/>
      <point x="262" y="591" type="line"/>
      <point x="181" y="687" type="line"/>
      <point x="102" y="591" type="line"/>
      <point x="38" y="591" type="line"/>
    </contour>
    <contour>
      <point x="156" y="456" type="line"/>
      <point x="156" y="68" type="line"/>
      <point x="85" y="68" type="line"/>
      <point x="85" y="0" type="line"/>
      <point x="310" y="0" type="line"/>
      <point x="310" y="68" type="line"/>
      <point x="239" y="68" type="line"/>
      <point x="239" y="524" type="line"/>
      <point x="85" y="524" type="line"/>
      <point x="85" y="456" type="line"/>
    </contour>
  </outline>
</glyph>
<glyph name="idieresis" format="1">
  <advance width="361"/>
  <unicode hex="00EF"/>
  <outline>
    <contour>
      <point x="158" y="702" type="line"/>
      <point x="158" y="599" type="line"/>
      <point x="54" y="599" type="line"/>
      <point x="54" y="702" type="line"/>
    </contour>
    <contour>
      <point x="320" y="702" type="line"/>
      <point x="320" y="599" type="line"/>
      <point x="216" y="599" type="line"/>
      <point x="216" y="702" type="line"/>
    </contour>
    <contour>
      <point x="146" y="456" type="line"/>
      <point x="146" y="68" type="line"/>
      <point x="75" y="68" type="line"/>
      <point x="75" y="0" type="line"/>
      <point x="300" y="0" type="line"/>
      <point x="300" y="68" type="line"/>
      <point x="229" y="68" type="line"/>
      <point x="229" y="524" type="line"/>
      <point x="75" y="524" type="line"/>
      <point x="75" y="456" type="line"/>
    </contour>
  </outline>
</glyph>
<glyph name="ograve" format="1">
  <advance width="571"/>
  <unicode hex="00F2"/>
  <outline>
    <contour>
      <point x="258" y="741" type="line"/>
      <point x="354" y="593" type="line"/>
      <point x="294" y="593" type="line"/>
      <point x="145" y="741" type="line"/>
    </contour>
    <contour>
      <point x="286" y="539" type="qcurve" smooth="yes"/>
      <point x="399" y="539"/>
      <point x="524" y="390"/>
      <point x="524" y="254" type="qcurve" smooth="yes"/>
      <point x="524" y="125"/>
      <point x="397" y="-23"/>
      <point x="287" y="-23" type="qcurve" smooth="yes"/>
      <point x="175" y="-23"/>
      <point x="50" y="126"/>
      <point x="50" y="390"/>
      <point x="176" y="539"/>
    </contour>
    <contour>
      <point x="287" y="462" type="qcurve" smooth="yes"/>
      <point x="217" y="462"/>
      <point x="137" y="353"/>
      <point x="137" y="163"/>
      <point x="217" y="54"/>
      <point x="287" y="54" type="qcurve" smooth="yes"/>
      <point x="356" y="54"/>
      <point x="437" y="163"/>
      <point x="437" y="255" type="qcurve" smooth="yes"/>
      <point x="437" y="352"/>
      <point x="358" y="462"/>
    </contour>
  </outline>
</glyph>
<glyph name="oacute" format="1">
  <advance width="571"/>
  <unicode hex="00F3"/>
  <outline>
    <contour>
      <point x="312" y="740" type="line"/>
      <point x="425" y="740" type="line"/>
      <point x="276" y="592" type="line"/>
      <point x="216" y="592" type="line"/>
    </contour>
    <contour>
      <point x="286" y="539" type="qcurve" smooth="yes"/>
      <point x="399" y="539"/>
      <point x="524" y="390"/>
      <point x="524" y="254" type="qcurve" smooth="yes"/>
      <point x="524" y="125"/>
      <point x="397" y="-23"/>
      <point x="287" y="-23" type="qcurve" smooth="yes"/>
      <point x="175" y="-23"/>
      <point x="50" y="126"/>
      <point x="50" y="390"/>
      <point x="176" y="539"/>
    </contour>
    <contour>
      <point x="287" y="462" type="qcurve" smooth="yes"/>
      <point x="217" y="462"/>
      <point x="137" y="353"/>
      <point x="137" y="163"/>
      <point x="217" y="54"/>
      <point x="287" y="54" type="qcurve" smooth="yes"/>
      <point x="356" y="54"/>
      <point x="437" y="163"/>
      <point x="437" y="255" type="qcurve" smooth="yes"/>
      <point x="437" y="352"/>
      <point x="358" y="462"/>
    </contour>
  </outline>
</glyph>
<glyph name="ugrave" format="1">
  <advance width="627"/>
  <unicode hex="00F9"/>
  <outline>
    <contour>
      <point x="280" y="739" type="line"/>
      <point x="376" y="591" type="line"/>
      <point x="316" y="591" type="line"/>
      <point x="167" y="739" type="line"/>
    </contour>
    <contour>
      <point x="102" y="456" type="line"/>
      <point x="102" y="120" type="line" smooth="yes"/>
      <point x="102" y="55"/>
      <point x="193" y="-23"/>
      <point x="269" y="-23" type="qcurve" smooth="yes"/>
      <point x="327" y="-23"/>
      <point x="407" y="21"/>
      <point x="444" y="73" type="qcurve"/>
      <point x="444" y="0" type="line"/>
      <point x="590" y="0" type="line"/>
      <point x="590" y="68" type="line"/>
      <point x="519" y="68" type="line"/>
      <point x="519" y="524" type="line"/>
      <point x="365" y="524" type="line"/>
      <point x="365" y="456" type="line"/>
      <point x="436" y="456" type="line"/>
      <point x="436" y="227" type="line" smooth="yes"/>
      <point x="436" y="147"/>
      <point x="397" y="98" type="qcurve" smooth="yes"/>
      <point x="358" y="50"/>
      <point x="293" y="50" type="qcurve" smooth="yes"/>
      <point x="243" y="50"/>
      <point x="185" y="106"/>
      <point x="185" y="153" type="qcurve" smooth="yes"/>
      <point x="185" y="524" type="line"/>
      <point x="31" y="524" type="line"/>
      <point x="31" y="456" type="line"/>
    </contour>
  </outline>
</glyph>
<glyph name="uacute" format="1">
  <advance width="627"/>
  <unicode hex="00FA"/>
  <outline>
    <contour>
      <point x="333" y="740" type="line"/>
      <point x="446" y="740" type="line"/>
      <point x="297" y="592" type="line"/>
      <point x="237" y="592" type="line"/>
    </contour>
    <contour>
      <point x="102" y="456" type="line"/>
      <point x="102" y="120" type="line" smooth="yes"/>
      <point x="102" y="55"/>
      <point x="193" y="-23"/>
      <point x="269" y="-23" type="qcurve" smooth="yes"/>
      <point x="327" y="-23"/>
      <point x="407" y="21"/>
      <point x="444" y="73" type="qcurve"/>
      <point x="444" y="0" type="line"/>
      <point x="590" y="0" type="line"/>
      <point x="590" y="68" type="line"/>
      <point x="519" y="68" type="line"/>
      <point x="519" y="524" type="line"/>
      <point x="365" y="524" type="line"/>
      <point x="365" y="456" type="line"/>
      <point x="436" y="456" type="line"/>
      <point x="436" y="227" type="line" smooth="yes"/>
      <point x="436" y="147"/>
      <point x="397" y="98" type="qcurve" smooth="yes"/>
      <point x="358" y="50"/>
      <point x="293" y="50" type="qcurve" smooth="yes"/>
      <point x="243" y="50"/>
      <point x="185" y="106"/>
      <point x="185" y="153" type="qcurve" smooth="yes"/>
      <point x="185" y="524" type="line"/>
      <point x="31" y="524" type="line"/>
      <point x="31" y="456" type="line"/>
    </contour>
  </outline>
</glyph>
<glyph name="yacute" format="1">
  <advance width="634"/>
  <unicode hex="00FD"/>
  <outline>
    <contour>
      <point x="365" y="739" type="line"/>
      <point x="478" y="739" type="line"/>
      <point x="329" y="591" type="line"/>
      <point x="269" y="591" type="line"/>
    </contour>
    <contour>
      <point x="52" y="456" type="line"/>
      <point x="52" y="524" type="line"/>
      <point x="205" y="524" type="line"/>
      <point x="339" y="116" type="line"/>
      <point x="460" y="456" type="line"/>
      <point x="413" y="456" type="line"/>
      <point x="413" y="524" type="line"/>
      <point x="574" y="524" type="line"/>
      <point x="341" y="-110" type="line"/>
      <point x="300" y="-218"/>
      <point x="206" y="-218" type="qcurve" smooth="yes"/>
      <point x="175" y="-218"/>
      <point x="150" y="-205" type="qcurve"/>
      <point x="150" y="-130" type="line"/>
      <point x="177" y="-136"/>
      <point x="194" y="-136" type="qcurve" smooth="yes"/>
      <point x="220" y="-136"/>
      <point x="235" y="-124" type="qcurve" smooth="yes"/>
      <point x="250" y="-113"/>
      <point x="261" y="-85" type="qcurve" smooth="yes"/>
      <point x="293" y="-2" type="line"/>
      <point x="139" y="456" type="line"/>
    </contour>
  </outline>
</glyph>
<glyph name="Amacron" format="1">
  <advance width="949"/>
  <unicode hex="0100"/>
  <outline>
    <contour>
      <point x="626" y="871" type="line"/>
      <point x="626" y="801" type="line"/>
      <point x="352" y="801" type="line"/>
      <point x="352" y="871" type="line"/>
    </contour>
    <contour>
      <point x="593" y="0" type="line"/>
      <point x="593" y="81" type="line"/>
      <point x="659" y="81" type="line"/>
      <point x="612" y="219" type="line"/>
      <point x="331" y="219" type="line"/>
      <point x="282" y="81" type="line"/>
      <point x="348" y="81" type="line"/>
      <point x="348" y="0" type="line"/>
      <point x="61" y="0" type="line"/>
      <point x="61" y="81" type="line"/>
      <point x="184" y="81" type="line"/>
      <point x="386" y="648" type="line"/>
      <point x="321" y="648" type="line"/>
      <point x="321" y="729" type="line"/>
      <point x="415" y="729" type="line"/>
      <point x="535" y="729" type="line"/>
      <point x="763" y="81" type="line"/>
      <point x="885" y="81" type="line"/>
      <point x="885" y="0" type="line"/>
    </contour>
    <contour>
      <point x="586" y="297" type="line"/>
      <point x="474" y="629" type="line"/>
      <point x="354" y="297" type="line"/>
    </contour>
  </outline>
</glyph>
<glyph name="Cacute" format="1">
  <advance width="857"/>
  <unicode hex="0106"/>
  <outline>
    <contour>
      <point x="464" y="940" type="line"/>
      <point x="577" y="940" type="line"/>
      <point x="428" y="792" type="line"/>
      <point x="368" y="792" type="line"/>
    </contour>
    <contour>
      <point x="440" y="741" type="qcurve" smooth="yes"/>
      <point x="557" y="741"/>
      <point x="627" y="683" type="qcurve"/>
      <point x="627" y="742" type="line"/>
      <point x="721" y="742" type="line"/>
      <point x="721" y="503" type="line"/>
      <point x="626" y="503" type="line"/>
      <point x="610" y="581"/>
      <point x="516" y="659"/>
      <point x="429" y="659" type="qcurve" smooth="yes"/>
      <point x="323" y="659"/>
      <point x="200" y="497"/>
      <point x="200" y="220"/>
      <point x="328" y="59"/>
      <point x="437" y="59" type="qcurve" smooth="yes"/>
      <point x="527" y="59"/>
      <point x="623" y="160"/>
      <point x="640" y="266" type="qcurve"/>
      <point x="736" y="266" type="line"/>
      <point x="703" y="-23"/>
      <point x="436" y="-23" type="qcurve" smooth="yes"/>
      <point x="361" y="-23"/>
      <point x="242" y="28"/>
      <point x="171" y="106"/>
      <point x="124" y="211"/>
      <point x="107" y="307"/>
      <point x="107" y="406"/>
      <point x="124" y="504"/>
      <point x="172" y="610"/>
      <point x="243" y="689"/>
      <point x="364" y="741"/>
    </contour>
  </outline>
</glyph>
<glyph name="cacute" format="1">
  <advance width="665"/>
  <unicode hex="0107"/>
  <outline>
    <contour>
      <point x="369" y="740" type="line"/>
      <point x="482" y="740" type="line"/>
      <point x="333" y="592" type="line"/>
      <point x="273" y="592" type="line"/>
    </contour>
    <contour>
      <point x="471" y="495" type="line"/>
      <point x="412" y="538"/>
      <point x="335" y="539" type="qcurve"/>
      <point x="229" y="539"/>
      <point x="102" y="383"/>
      <point x="102" y="253" type="qcurve" smooth="yes"/>
      <point x="102" y="126"/>
      <point x="227" y="-23"/>
      <point x="334" y="-23" type="qcurve" smooth="yes"/>
      <point x="428" y="-23"/>
      <point x="540" y="84"/>
      <point x="548" y="180" type="qcurve"/>
      <point x="464" y="180" type="line"/>
      <point x="443" y="54"/>
      <point x="336" y="54" type="qcurve" smooth="yes"/>
      <point x="267" y="54"/>
      <point x="189" y="160"/>
      <point x="189" y="253" type="qcurve" smooth="yes"/>
      <point x="189" y="351"/>
      <point x="266" y="462"/>
      <point x="334" y="462" type="qcurve" smooth="yes"/>
      <point x="386" y="462"/>
      <point x="450" y="403"/>
      <point x="458" y="348" type="qcurve"/>
      <point x="542" y="348" type="line"/>
      <point x="542" y="542" type="line"/>
      <point x="471" y="542" type="line"/>
    </contour>
  </outline>
</glyph>
<glyph name="Emacron" format="1">
  <advance width="824"/>
  <unicode hex="0112"/>
  <outline>
    <contour>
      <point x="564" y="871" type="line"/>
      <point x="564" y="801" type="line"/>
      <point x="290" y="801" type="line"/>
      <point x="290" y="871" type="line"/>
    </contour>
    <contour>
      <point x="188" y="82" type="line"/>
      <point x="188" y="1" type="line"/>
      <point x="94" y="1" type="line"/>
      <point x="94" y="82" type="line"/>
    </contour>
    <contour>
      <point x="188" y="730" type="line"/>
      <point x="188" y="649" type="line"/>
      <point x="94" y="649" type="line"/>
      <point x="94" y="730" type="line"/>
    </contour>
    <contour>
      <point x="711" y="164" type="line"/>
      <point x="711" y="83" type="line"/>
      <point x="617" y="83" type="line"/>
      <point x="617" y="164" type="line"/>
    </contour>
    <contour>
      <point x="693" y="648" type="line"/>
      <point x="693" y="567" type="line"/>
      <point x="599" y="567" type="line"/>
      <point x="599" y="648" type="line"/>
    </contour>
    <contour>
      <point x="281" y="333" type="line"/>
      <point x="281" y="83" type="line"/>
      <point x="711" y="83" type="line"/>
      <point x="711" y="1" type="line"/>
      <point x="188" y="1" type="line"/>
      <point x="188" y="730" type="line"/>
      <point x="693" y="730" type="line"/>
      <point x="693" y="648" type="line"/>
      <point x="281" y="648" type="line"/>
      <point x="281" y="415" type="line"/>
      <point x="678" y="415" type="line"/>
      <point x="678" y="333" type="line"/>
    </contour>
  </outline>
</glyph>
<glyph name="gcommaaccent" format="1">
  <advance width="697"/>
  <unicode hex="0123"/>
  <outline>
    <contour>
      <point x="370" y="583" type="line"/>
      <point x="289" y="583" type="line"/>
      <point x="289" y="652" type="line" smooth="yes"/>
      <point x="289" y="740"/>
      <point x="370" y="740" type="qcurve"/>
      <point x="370" y="698" type="line"/>
      <point x="367" y="698" type="line" smooth="yes"/>
      <point x="355" y="698"/>
      <point x="341" y="695"/>
      <point x="329" y="674"/>
      <point x="329" y="653" type="qcurve"/>
      <point x="370" y="653" type="line"/>
    </contour>
    <contour>
      <point x="335" y="462" type="qcurve" smooth="yes"/>
      <point x="268" y="462"/>
      <point x="190" y="352"/>
      <point x="190" y="258" type="qcurve" smooth="yes"/>
      <point x="190" y="163"/>
      <point x="268" y="54"/>
      <point x="336" y="54" type="qcurve" smooth="yes"/>
      <point x="402" y="54"/>
      <point x="478" y="161"/>
      <point x="478" y="255" type="qcurve" smooth="yes"/>
      <point x="478" y="353"/>
      <point x="403" y="462"/>
    </contour>
    <contour>
      <point x="563" y="456" type="line"/>
      <point x="563" y="86" type="line" smooth="yes"/>
      <point x="563" y="11"/>
      <point x="545" y="-90"/>
      <point x="497" y="-176"/>
      <point x="402" y="-218"/>
      <point x="329" y="-218" type="qcurve" smooth="yes"/>
      <point x="237" y="-218"/>
      <point x="127" y="-134"/>
      <point x="120" y="-60" type="qcurve"/>
      <point x="205" y="-60" type="line"/>
      <point x="219" y="-148"/>
      <point x="332" y="-148" type="qcurve" smooth="yes"/>
      <point x="416" y="-148"/>
      <point x="478" y="-53"/>
      <point x="478" y="44" type="qcurve" smooth="yes"/>
      <point x="478" y="71" type="line"/>
      <point x="443" y="21"/>
      <point x="368" y="-23"/>
      <point x="319" y="-23" type="qcurve" smooth="yes"/>
      <point x="227" y="-23"/>
      <point x="103" y="128"/>
      <point x="103" y="253" type="qcurve" smooth="yes"/>
      <point x="103" y="381"/>
      <point x="226" y="539"/>
      <point x="326" y="539" type="qcurve" smooth="yes"/>
      <point x="424" y="539"/>
      <point x="486" y="448" type="qcurve"/>
      <point x="486" y="524" type="line"/>
      <point x="634" y="524" type="line"/>
      <point x="634" y="456" type="line"/>
    </contour>
  </outline>
</glyph>
<glyph name="Imacron" format="1">
  <advance width="466"/>
  <unicode hex="012A"/>
  <outline>
    <contour>
      <point x="378" y="871" type="line"/>
      <point x="378" y="801" type="line"/>
      <point x="104" y="801" type="line"/>
      <point x="104" y="871" type="line"/>
    </contour>
    <contour>
      <point x="376" y="81" type="line"/>
      <point x="376" y="0" type="line"/>
      <point x="282" y="0" type="line"/>
      <point x="282" y="81" type="line"/>
    </contour>
    <contour>
      <point x="376" y="729" type="line"/>
      <point x="376" y="648" type="line"/>
      <point x="282" y="648" type="line"/>
      <point x="282" y="729" type="line"/>
    </contour>
    <contour>
      <point x="188" y="81" type="line"/>
      <point x="188" y="0" type="line"/>
      <point x="94" y="0" type="line"/>
      <point x="94" y="81" type="line"/>
    </contour>
    <contour>
      <point x="188" y="729" type="line"/>
      <point x="188" y="648" type="line"/>
      <point x="94" y="648" type="line"/>
      <point x="94" y="729" type="line"/>
    </contour>
    <contour>
      <point x="282" y="729" type="line"/>
      <point x="282" y="0" type="line"/>
      <point x="188" y="0" type="line"/>
      <point x="188" y="729" type="line"/>
    </contour>
  </outline>
</glyph>
<glyph name="dotlessi" format="1">
  <advance width="320"/>
  <unicode hex="0131"/>
  <outline>
    <contour>
      <point x="54" y="456" type="line"/>
      <point x="54" y="524" type="line"/>
      <point x="208" y="524" type="line"/>
      <point x="208" y="68" type="line"/>
      <point x="279" y="68" type="line"/>
      <point x="279" y="0" type="line"/>
      <point x="54" y="0" type="line"/>
      <point x="54" y="68" type="line"/>
      <point x="125" y="68" type="line"/>
      <point x="125" y="456" type="line"/>
    </contour>
  </outline>
</glyph>
<glyph name="Lacute" format="1">
  <advance width="737"/>
  <unicode hex="0139"/>
  <outline>
    <contour>
      <point x="256" y="939" type="line"/>
      <point x="369" y="939" type="line"/>
      <point x="220" y="791" type="line"/>
      <point x="160" y="791" type="line"/>
    </contour>
    <contour>
      <point x="375" y="729" type="line"/>
      <point x="375" y="648" type="line"/>
      <point x="281" y="648" type="line"/>
      <point x="281" y="729" type="line"/>
    </contour>
    <contour>
      <point x="641" y="163" type="line"/>
      <point x="641" y="82" type="line"/>
      <point x="547" y="82" type="line"/>
      <point x="547" y="163" type="line"/>
    </contour>
    <contour>
      <point x="188" y="81" type="line"/>
      <point x="188" y="0" type="line"/>
      <point x="94" y="0" type="line"/>
      <point x="94" y="81" type="line"/>
    </contour>
    <contour>
      <point x="188" y="729" type="line"/>
      <point x="188" y="648" type="line"/>
      <point x="94" y="648" type="line"/>
      <point x="94" y="729" type="line"/>
    </contour>
    <contour>
      <point x="281" y="729" type="line"/>
      <point x="281" y="82" type="line"/>
      <point x="641" y="82" type="line"/>
      <point x="641" y="0" type="line"/>
      <point x="188" y="0" type="line"/>
      <point x="188" y="729" type="line"/>
    </contour>
  </outline>
</glyph>
<glyph name="lacute" format="1">
  <advance width="408"/>
  <unicode hex="013A"/>
  <outline>
    <contour>
      <point x="272" y="939" type="line"/>
      <point x="385" y="939" type="line"/>
      <point x="236" y="791" type="line"/>
      <point x="176" y="791" type="line"/>
    </contour>
    <contour>
      <point x="167" y="661" type="line"/>
      <point x="167" y="68" type="line"/>
      <point x="96" y="68" type="line"/>
      <point x="96" y="0" type="line"/>
      <point x="322" y="0" type="line"/>
      <point x="322" y="68" type="line"/>
      <point x="251" y="68" type="line"/>
      <point x="251" y="729" type="line"/>
      <point x="96" y="729" type="line"/>
      <point x="96" y="661" type="line"/>
    </contour>
  </outline>
</glyph>
<glyph name="Nacute" format="1">
  <advance width="920"/>
  <unicode hex="0143"/>
  <outline>
    <contour>
      <point x="499" y="939" type="line"/>
      <point x="612" y="939" type="line"/>
      <point x="463" y="791" type="line"/>
      <point x="403" y="791" type="line"/>
    </contour>
    <contour>
      <point x="852" y="729" type="line"/>
      <point x="852" y="648" type="line"/>
      <point x="758" y="648" type="line"/>
      <point x="758" y="729" type="line"/>
    </contour>
    <contour>
      <point x="370" y="81" type="line"/>
      <point x="370" y="0" type="line"/>
      <point x="276" y="0" type="line"/>
      <point x="276" y="81" type="line"/>
    </contour>
    <contour>
      <point x="188" y="81" type="line"/>
      <point x="188" y="0" type="line"/>
      <point x="94" y="0" type="line"/>
      <point x="94" y="81" type="line"/>
    </contour>
    <contour>
      <point x="188" y="729" type="line"/>
      <point x="188" y="648" type="line"/>
      <point x="94" y="648" type="line"/>
      <point x="94" y="729" type="line"/>
    </contour>
    <contour>
      <point x="758" y="729" type="line"/>
      <point x="758" y="0" type="line"/>
      <point x="653" y="0" type="line"/>
      <point x="276" y="591" type="line"/>
      <point x="276" y="0" type="line"/>
      <point x="188" y="0" type="line"/>
      <point x="188" y="729" type="line"/>
      <point x="289" y="729" type="line"/>
      <point x="670" y="133" type="line"/>
      <point x="670" y="729" type="line"/>
    </contour>
  </outline>
</glyph>
<glyph name="nacute" format="1">
  <advance width="724"/>
  <unicode hex="0144"/>
  <outline>
    <contour>
      <point x="392" y="739" type="line"/>
      <point x="505" y="739" type="line"/>
      <point x="356" y="591" type="line"/>
      <point x="296" y="591" type="line"/>
    </contour>
    <contour>
      <point x="578" y="68" type="line"/>
      <point x="578" y="396" type="line" smooth="yes"/>
      <point x="578" y="461"/>
      <point x="488" y="539"/>
      <point x="412" y="539" type="qcurve" smooth="yes"/>
      <point x="354" y="539"/>
      <point x="273" y="491"/>
      <point x="238" y="436" type="qcurve"/>
      <point x="238" y="524" type="line"/>
      <point x="90" y="524" type="line"/>
      <point x="90" y="456" type="line"/>
      <point x="161" y="456" type="line"/>
      <point x="161" y="68" type="line"/>
      <point x="90" y="68" type="line"/>
      <point x="90" y="0" type="line"/>
      <point x="316" y="0" type="line"/>
      <point x="316" y="68" type="line"/>
      <point x="245" y="68" type="line"/>
      <point x="245" y="289" type="line" smooth="yes"/>
      <point x="245" y="369"/>
      <point x="323" y="466"/>
      <point x="387" y="466" type="qcurve" smooth="yes"/>
      <point x="437" y="466"/>
      <point x="495" y="410"/>
      <point x="495" y="363" type="qcurve" smooth="yes"/>
      <point x="495" y="0" type="line"/>
      <point x="649" y="0" type="line"/>
      <point x="649" y="68" type="line"/>
    </contour>
  </outline>
</glyph>
<glyph name="omacron" format="1">
  <advance width="675"/>
  <unicode hex="014D"/>
  <outline>
    <contour>
      <point x="476" y="669" type="line"/>
      <point x="476" y="599" type="line"/>
      <point x="202" y="599" type="line"/>
      <point x="202" y="669" type="line"/>
    </contour>
    <contour>
      <point x="339" y="539" type="qcurve" smooth="yes"/>
      <point x="452" y="539"/>
      <point x="577" y="390"/>
      <point x="577" y="254" type="qcurve" smooth="yes"/>
      <point x="577" y="125"/>
      <point x="450" y="-23"/>
      <point x="340" y="-23" type="qcurve" smooth="yes"/>
      <point x="228" y="-23"/>
      <point x="103" y="126"/>
      <point x="103" y="390"/>
      <point x="229" y="539"/>
    </contour>
    <contour>
      <point x="340" y="462" type="qcurve" smooth="yes"/>
      <point x="270" y="462"/>
      <point x="190" y="353"/>
      <point x="190" y="163"/>
      <point x="270" y="54"/>
      <point x="340" y="54" type="qcurve" smooth="yes"/>
      <point x="409" y="54"/>
      <point x="490" y="163"/>
      <point x="490" y="255" type="qcurve" smooth="yes"/>
      <point x="490" y="352"/>
      <point x="411" y="462"/>
    </contour>
  </outline>
</glyph>
<glyph name="OE" format="1">
  <advance width="1102"/>
  <unicode hex="0152"/>
  <outline>
    <contour>
      <point x="1000" y="647" type="line"/>
      <point x="1000" y="566" type="line"/>
      <point x="906" y="566" type="line"/>
      <point x="906" y="647" type="line"/>
      <point x="665" y="647" type="line"/>
      <point x="665" y="409" type="line"/>
      <point x="993" y="409" type="line"/>
      <point x="993" y="327" type="line"/>
      <point x="665" y="327" type="line"/>
      <point x="665" y="82" type="line"/>
      <point x="912" y="82" type="line"/>
      <point x="912" y="163" type="line"/>
      <point x="1006" y="163" type="line"/>
      <point x="1006" y="0" type="line"/>
      <point x="572" y="0" type="line"/>
      <point x="572" y="74" type="line"/>
      <point x="505" y="-20"/>
      <point x="388" y="-20" type="qcurve" smooth="yes"/>
      <point x="348" y="-20"/>
      <point x="271" y="0"/>
      <point x="189" y="53"/>
      <point x="129" y="134"/>
      <point x="90" y="270"/>
      <point x="90" y="356" type="qcurve" smooth="yes"/>
      <point x="90" y="444"/>
      <point x="130" y="583"/>
      <point x="191" y="667"/>
      <point x="273" y="721"/>
      <point x="350" y="741"/>
      <point x="389" y="741" type="qcurve" smooth="yes"/>
      <point x="510" y="741"/>
      <point x="572" y="653" type="qcurve"/>
      <point x="572" y="729" type="line"/>
      <point x="1001" y="729" type="line"/>
      <point x="1001" y="647" type="line"/>
    </contour>
    <contour>
      <point x="183" y="360" type="qcurve" smooth="yes"/>
      <point x="183" y="287"/>
      <point x="209" y="177"/>
      <point x="250" y="114"/>
      <point x="307" y="75"/>
      <point x="359" y="62"/>
      <point x="388" y="62" type="qcurve" smooth="yes"/>
      <point x="513" y="62"/>
      <point x="572" y="182" type="qcurve"/>
      <point x="572" y="539" type="line"/>
      <point x="513" y="659"/>
      <point x="389" y="659" type="qcurve" smooth="yes"/>
      <point x="358" y="659"/>
      <point x="305" y="645"/>
      <point x="248" y="606"/>
      <point x="209" y="542"/>
      <point x="183" y="432"/>
    </contour>
  </outline>
</glyph>
<glyph name="sacute" format="1">
  <advance width="640"/>
  <unicode hex="015B"/>
  <outline>
    <contour>
      <point x="350" y="740" type="line"/>
      <point x="463" y="740" type="line"/>
      <point x="314" y="592" type="line"/>
      <point x="254" y="592" type="line"/>
    </contour>
    <contour>
      <point x="197" y="156" type="line"/>
      <point x="203" y="109"/>
      <point x="256" y="54"/>
      <point x="325" y="54" type="qcurve" smooth="yes"/>
      <point x="380" y="54"/>
      <point x="447" y="99"/>
      <point x="447" y="136" type="qcurve" smooth="yes"/>
      <point x="447" y="165"/>
      <point x="409" y="199"/>
      <point x="366" y="209" type="qcurve" smooth="yes"/>
      <point x="288" y="228" type="line" smooth="yes"/>
      <point x="195" y="250"/>
      <point x="122" y="317"/>
      <point x="122" y="379" type="qcurve" smooth="yes"/>
      <point x="122" y="452"/>
      <point x="232" y="539"/>
      <point x="414" y="539"/>
      <point x="512" y="455"/>
      <point x="513" y="378" type="qcurve"/>
      <point x="425" y="378" type="line"/>
      <point x="422" y="462"/>
      <point x="320" y="462" type="qcurve" smooth="yes"/>
      <point x="269" y="462"/>
      <point x="209" y="419"/>
      <point x="209" y="383" type="qcurve" smooth="yes"/>
      <point x="209" y="355"/>
      <point x="255" y="320"/>
      <point x="306" y="308" type="qcurve" smooth="yes"/>
      <point x="386" y="289" type="line" smooth="yes"/>
      <point x="464" y="270"/>
      <point x="534" y="201"/>
      <point x="534" y="143" type="qcurve" smooth="yes"/>
      <point x="534" y="67"/>
      <point x="417" y="-23"/>
      <point x="318" y="-23" type="qcurve" smooth="yes"/>
      <point x="115" y="-23"/>
      <point x="109" y="156" type="qcurve"/>
    </contour>
  </outline>
</glyph>
<glyph name="Umacron" format="1">
  <advance width="876"/>
  <unicode hex="016A"/>
  <outline>
    <contour>
      <point x="565" y="871" type="line"/>
      <point x="565" y="801" type="line"/>
      <point x="291" y="801" type="line"/>
      <point x="291" y="871" type="line"/>
    </contour>
    <contour>
      <point x="808" y="729" type="line"/>
      <point x="808" y="648" type="line"/>
      <point x="714" y="648" type="line"/>
      <point x="714" y="729" type="line"/>
    </contour>
    <contour>
      <point x="154" y="729" type="line"/>
      <point x="154" y="648" type="line"/>
      <point x="60" y="648" type="line"/>
      <point x="60" y="729" type="line"/>
    </contour>
    <contour>
      <point x="621" y="729" type="line"/>
      <point x="621" y="648" type="line"/>
      <point x="527" y="648" type="line"/>
      <point x="527" y="729" type="line"/>
    </contour>
    <contour>
      <point x="341" y="729" type="line"/>
      <point x="341" y="648" type="line"/>
      <point x="247" y="648" type="line"/>
      <point x="247" y="729" type="line"/>
    </contour>
    <contour>
      <point x="621" y="729" type="line"/>
      <point x="714" y="729" type="line"/>
      <point x="714" y="217" type="line" smooth="yes"/>
      <point x="714" y="107"/>
      <point x="561" y="-23"/>
      <point x="433" y="-23" type="qcurve" smooth="yes"/>
      <point x="303" y="-23"/>
      <point x="154" y="106"/>
      <point x="154" y="217" type="qcurve" smooth="yes"/>
      <point x="154" y="729" type="line"/>
      <point x="247" y="729" type="line"/>
      <point x="247" y="217" type="line" smooth="yes"/>
      <point x="247" y="138"/>
      <point x="348" y="59"/>
      <point x="433" y="59" type="qcurve" smooth="yes"/>
      <point x="521" y="59"/>
      <point x="621" y="143"/>
      <point x="621" y="217" type="qcurve" smooth="yes"/>
    </contour>
  </outline>
</glyph>
<glyph name="umacron" format="1">
  <advance width="699"/>
  <unicode hex="016B"/>
  <outline>
    <contour>
      <point x="480" y="669" type="line"/>
      <point x="480" y="599" type="line"/>
      <point x="206" y="599" type="line"/>
      <point x="206" y="669" type="line"/>
    </contour>
    <contour>
      <point x="135" y="456" type="line"/>
      <point x="135" y="120" type="line" smooth="yes"/>
      <point x="135" y="55"/>
      <point x="226" y="-23"/>
      <point x="302" y="-23" type="qcurve" smooth="yes"/>
      <point x="360" y="-23"/>
      <point x="440" y="21"/>
      <point x="477" y="73" type="qcurve"/>
      <point x="477" y="0" type="line"/>
      <point x="623" y="0" type="line"/>
      <point x="623" y="68" type="line"/>
      <point x="552" y="68" type="line"/>
      <point x="552" y="524" type="line"/>
      <point x="398" y="524" type="line"/>
      <point x="398" y="456" type="line"/>
      <point x="469" y="456" type="line"/>
      <point x="469" y="227" type="line" smooth="yes"/>
      <point x="469" y="147"/>
      <point x="430" y="98" type="qcurve" smooth="yes"/>
      <point x="391" y="50"/>
      <point x="326" y="50" type="qcurve" smooth="yes"/>
      <point x="276" y="50"/>
      <point x="218" y="106"/>
      <point x="218" y="153" type="qcurve" smooth="yes"/>
      <point x="218" y="524" type="line"/>
      <point x="64" y="524" type="line"/>
      <point x="64" y="456" type="line"/>
    </contour>
  </outline>
</glyph>
<glyph name="Zacute" format="1">
  <advance width="763"/>
  <unicode hex="0179"/>
  <outline>
    <contour>
      <point x="413" y="939" type="line"/>
      <point x="526" y="939" type="line"/>
      <point x="377" y="791" type="line"/>
      <point x="317" y="791" type="line"/>
    </contour>
    <contour>
      <point x="648" y="163" type="line"/>
      <point x="648" y="82" type="line"/>
      <point x="554" y="82" type="line"/>
      <point x="554" y="163" type="line"/>
    </contour>
    <contour>
      <point x="215" y="647" type="line"/>
      <point x="215" y="566" type="line"/>
      <point x="121" y="566" type="line"/>
      <point x="121" y="647" type="line"/>
    </contour>
    <contour>
      <point x="646" y="729" type="line"/>
      <point x="646" y="645" type="line"/>
      <point x="210" y="82" type="line"/>
      <point x="648" y="82" type="line"/>
      <point x="648" y="0" type="line"/>
      <point x="93" y="0" type="line"/>
      <point x="93" y="82" type="line"/>
      <point x="531" y="647" type="line"/>
      <point x="121" y="647" type="line"/>
      <point x="121" y="729" type="line"/>
    </contour>
  </outline>
</glyph>
<glyph name="zacute" format="1">
  <advance width="621"/>
  <unicode hex="017A"/>
  <outline>
    <contour>
      <point x="336" y="739" type="line"/>
      <point x="449" y="739" type="line"/>
      <point x="300" y="591" type="line"/>
      <point x="240" y="591" type="line"/>
    </contour>
    <contour>
      <point x="444" y="73" type="line"/>
      <point x="190" y="73" type="line"/>
      <point x="501" y="450" type="line"/>
      <point x="501" y="524" type="line"/>
      <point x="110" y="524" type="line"/>
      <point x="110" y="383" type="line"/>
      <point x="181" y="383" type="line"/>
      <point x="181" y="451" type="line"/>
      <point x="402" y="451" type="line"/>
      <point x="89" y="75" type="line"/>
      <point x="89" y="0" type="line"/>
      <point x="515" y="0" type="line"/>
      <point x="515" y="141" type="line"/>
      <point x="444" y="141" type="line"/>
    </contour>
  </outline>
</glyph>
<glyph name="uni01C4" format="1">
  <advance width="1311"/>
  <unicode hex="01C4"/>
  <outline>
    <contour>
      <point x="1131" y="790" type="line"/>
      <point x="1036" y="790" type="line"/>
      <point x="940" y="940" type="line"/>
      <point x="1003" y="940" type="line"/>
      <point x="1084" y="844" type="line"/>
      <point x="1163" y="940" type="line"/>
      <point x="1227" y="940" type="line"/>
    </contour>
    <contour>
      <point x="1348" y="163" type="line"/>
      <point x="1348" y="82" type="line"/>
      <point x="1254" y="82" type="line"/>
      <point x="1254" y="163" type="line"/>
    </contour>
    <contour>
      <point x="915" y="647" type="line"/>
      <point x="915" y="566" type="line"/>
      <point x="821" y="566" type="line"/>
      <point x="821" y="647" type="line"/>
    </contour>
    <contour>
      <point x="1346" y="729" type="line"/>
      <point x="1346" y="645" type="line"/>
      <point x="910" y="82" type="line"/>
      <point x="1348" y="82" type="line"/>
      <point x="1348" y="0" type="line"/>
      <point x="793" y="0" type="line"/>
      <point x="793" y="82" type="line"/>
      <point x="1231" y="647" type="line"/>
      <point x="821" y="647" type="line"/>
      <point x="821" y="729" type="line"/>
    </contour>
    <contour>
      <point x="188" y="81" type="line"/>
      <point x="188" y="0" type="line"/>
      <point x="94" y="0" type="line"/>
      <point x="94" y="81" type="line"/>
    </contour>
    <contour>
      <point x="188" y="729" type="line"/>
      <point x="188" y="648" type="line"/>
      <point x="94" y="648" type="line"/>
      <point x="94" y="729" type="line"/>
    </contour>
    <contour>
      <point x="188" y="0" type="line"/>
      <point x="188" y="729" type="line"/>
      <point x="469" y="729" type="line" smooth="yes"/>
      <point x="608" y="729"/>
      <point x="766" y="535"/>
      <point x="766" y="195"/>
      <point x="607" y="0"/>
      <point x="469" y="0" type="qcurve" smooth="yes"/>
    </contour>
    <contour>
      <point x="281" y="82" type="line"/>
      <point x="453" y="82" type="line" smooth="yes"/>
      <point x="561" y="82"/>
      <point x="673" y="226"/>
      <point x="673" y="364" type="qcurve" smooth="yes"/>
      <point x="673" y="503"/>
      <point x="561" y="647"/>
      <point x="453" y="647" type="qcurve" smooth="yes"/>
      <point x="281" y="647" type="line"/>
    </contour>
  </outline>
</glyph>
<glyph name="uni01C5" format="1">
  <advance width="1208"/>
  <unicode hex="01C5"/>
  <outline>
    <contour>
      <point x="1064" y="590" type="line"/>
      <point x="969" y="590" type="line"/>
      <point x="873" y="740" type="line"/>
      <point x="936" y="740" type="line"/>
      <point x="1017" y="644" type="line"/>
      <point x="1096" y="740" type="line"/>
      <point x="1160" y="740" type="line"/>
    </contour>
    <contour>
      <point x="1152" y="73" type="line"/>
      <point x="898" y="73" type="line"/>
      <point x="1209" y="450" type="line"/>
      <point x="1209" y="524" type="line"/>
      <point x="818" y="524" type="line"/>
      <point x="818" y="383" type="line"/>
      <point x="889" y="383" type="line"/>
      <point x="889" y="451" type="line"/>
      <point x="1110" y="451" type="line"/>
      <point x="797" y="75" type="line"/>
      <point x="797" y="0" type="line"/>
      <point x="1223" y="0" type="line"/>
      <point x="1223" y="141" type="line"/>
      <point x="1152" y="141" type="line"/>
    </contour>
    <contour>
      <point x="188" y="81" type="line"/>
      <point x="188" y="0" type="line"/>
      <point x="94" y="0" type="line"/>
      <point x="94" y="81" type="line"/>
    </contour>
    <contour>
      <point x="188" y="729" type="line"/>
      <point x="188" y="648" type="line"/>
      <point x="94" y="648" type="line"/>
      <point x="94" y="729" type="line"/>
    </contour>
    <contour>
      <point x="188" y="0" type="line"/>
      <point x="188" y="729" type="line"/>
      <point x="469" y="729" type="line" smooth="yes"/>
      <point x="608" y="729"/>
      <point x="766" y="535"/>
      <point x="766" y="195"/>
      <point x="607" y="0"/>
      <point x="469" y="0" type="qcurve" smooth="yes"/>
    </contour>
    <contour>
      <point x="281" y="82" type="line"/>
      <point x="453" y="82" type="line" smooth="yes"/>
      <point x="561" y="82"/>
      <point x="673" y="226"/>
      <point x="673" y="364" type="qcurve" smooth="yes"/>
      <point x="673" y="503"/>
      <point x="561" y="647"/>
      <point x="453" y="647" type="qcurve" smooth="yes"/>
      <point x="281" y="647" type="line"/>
    </contour>
  </outline>
</glyph>
<glyph name="uni01C6" format="1">
  <advance width="1056"/>
  <unicode hex="01C6"/>
  <outline>
    <contour>
      <point x="912" y="590" type="line"/>
      <point x="817" y="590" type="line"/>
      <point x="721" y="740" type="line"/>
      <point x="784" y="740" type="line"/>
      <point x="865" y="644" type="line"/>
      <point x="944" y="740" type="line"/>
      <point x="1008" y="740" type="line"/>
    </contour>
    <contour>
      <point x="1000" y="73" type="line"/>
      <point x="746" y="73" type="line"/>
      <point x="1057" y="450" type="line"/>
      <point x="1057" y="524" type="line"/>
      <point x="666" y="524" type="line"/>
      <point x="666" y="383" type="line"/>
      <point x="737" y="383" type="line"/>
      <point x="737" y="451" type="line"/>
      <point x="958" y="451" type="line"/>
      <point x="645" y="75" type="line"/>
      <point x="645" y="0" type="line"/>
      <point x="1071" y="0" type="line"/>
      <point x="1071" y="141" type="line"/>
      <point x="1000" y="141" type="line"/>
    </contour>
    <contour>
      <point x="343" y="461" type="qcurve" smooth="yes"/>
      <point x="410" y="461"/>
      <point x="490" y="350"/>
      <point x="490" y="256" type="qcurve" smooth="yes"/>
      <point x="490" y="165"/>
      <point x="410" y="55"/>
      <point x="344" y="55" type="qcurve" smooth="yes"/>
      <point x="275" y="55"/>
      <point x="191" y="166"/>
      <point x="191" y="258" type="qcurve" smooth="yes"/>
      <point x="191" y="349"/>
      <point x="275" y="461"/>
    </contour>
    <contour>
      <point x="573" y="68" type="line"/>
      <point x="573" y="729" type="line"/>
      <point x="419" y="729" type="line"/>
      <point x="419" y="661" type="line"/>
      <point x="491" y="661" type="line"/>
      <point x="490" y="458" type="line"/>
      <point x="437" y="539"/>
      <point x="329" y="539" type="qcurve" smooth="yes"/>
      <point x="227" y="539"/>
      <point x="104" y="388"/>
      <point x="104" y="263" type="qcurve" smooth="yes"/>
      <point x="104" y="130"/>
      <point x="226" y="-23"/>
      <point x="332" y="-23" type="qcurve" smooth="yes"/>
      <point x="386" y="-23"/>
      <point x="465" y="20"/>
      <point x="499" y="69" type="qcurve"/>
      <point x="499" y="0" type="line"/>
      <point x="644" y="0" type="line"/>
      <point x="644" y="68" type="line"/>
    </contour>
  </outline>
</glyph>
<glyph name="uni01DA" format="1">
  <advance width="698"/>
  <unicode hex="01DA"/>
  <outline>
    <contour>
      <point x="393" y="755" type="line"/>
      <point x="298" y="755" type="line"/>
      <point x="202" y="905" type="line"/>
      <point x="265" y="905" type="line"/>
      <point x="346" y="809" type="line"/>
      <point x="425" y="905" type="line"/>
      <point x="489" y="905" type="line"/>
    </contour>
    <contour>
      <point x="314" y="702" type="line"/>
      <point x="314" y="599" type="line"/>
      <point x="210" y="599" type="line"/>
      <point x="210" y="702" type="line"/>
    </contour>
    <contour>
      <point x="476" y="702" type="line"/>
      <point x="476" y="599" type="line"/>
      <point x="372" y="599" type="line"/>
      <point x="372" y="702" type="line"/>
    </contour>
    <contour>
      <point x="135" y="456" type="line"/>
      <point x="135" y="120" type="line" smooth="yes"/>
      <point x="135" y="55"/>
      <point x="226" y="-23"/>
      <point x="302" y="-23" type="qcurve" smooth="yes"/>
      <point x="360" y="-23"/>
      <point x="440" y="21"/>
      <point x="477" y="73" type="qcurve"/>
      <point x="477" y="0" type="line"/>
      <point x="623" y="0" type="line"/>
      <point x="623" y="68" type="line"/>
      <point x="552" y="68" type="line"/>
      <point x="552" y="524" type="line"/>
      <point x="398" y="524" type="line"/>
      <point x="398" y="456" type="line"/>
      <point x="469" y="456" type="line"/>
      <point x="469" y="227" type="line" smooth="yes"/>
      <point x="469" y="147"/>
      <point x="430" y="98" type="qcurve" smooth="yes"/>
      <point x="391" y="50"/>
      <point x="326" y="50" type="qcurve" smooth="yes"/>
      <point x="276" y="50"/>
      <point x="218" y="106"/>
      <point x="218" y="153" type="qcurve" smooth="yes"/>
      <point x="218" y="524" type="line"/>
      <point x="64" y="524" type="line"/>
      <point x="64" y="456" type="line"/>
    </contour>
  </outline>
</glyph>
<glyph name="uni01DC" format="1">
  <advance width="698"/>
  <unicode hex="01DC"/>
  <outline>
    <contour>
      <point x="279" y="903" type="line"/>
      <point x="375" y="755" type="line"/>
      <point x="315" y="755" type="line"/>
      <point x="166" y="903" type="line"/>
    </contour>
    <contour>
      <point x="314" y="702" type="line"/>
      <point x="314" y="599" type="line"/>
      <point x="210" y="599" type="line"/>
      <point x="210" y="702" type="line"/>
    </contour>
    <contour>
      <point x="476" y="702" type="line"/>
      <point x="476" y="599" type="line"/>
      <point x="372" y="599" type="line"/>
      <point x="372" y="702" type="line"/>
    </contour>
    <contour>
      <point x="135" y="456" type="line"/>
      <point x="135" y="120" type="line" smooth="yes"/>
      <point x="135" y="55"/>
      <point x="226" y="-23"/>
      <point x="302" y="-23" type="qcurve" smooth="yes"/>
      <point x="360" y="-23"/>
      <point x="440" y="21"/>
      <point x="477" y="73" type="qcurve"/>
      <point x="477" y="0" type="line"/>
      <point x="623" y="0" type="line"/>
      <point x="623" y="68" type="line"/>
      <point x="552" y="68" type="line"/>
      <point x="552" y="524" type="line"/>
      <point x="398" y="524" type="line"/>
      <point x="398" y="456" type="line"/>
      <point x="469" y="456" type="line"/>
      <point x="469" y="227" type="line" smooth="yes"/>
      <point x="469" y="147"/>
      <point x="430" y="98" type="qcurve" smooth="yes"/>
      <point x="391" y="50"/>
      <point x="326" y="50" type="qcurve" smooth="yes"/>
      <point x="276" y="50"/>
      <point x="218" y="106"/>
      <point x="218" y="153" type="qcurve" smooth="yes"/>
      <point x="218" y="524" type="line"/>
      <point x="64" y="524" type="line"/>
      <point x="64" y="456" type="line"/>
    </contour>
  </outline>
</glyph>
<glyph name="uni01DE" format="1">
  <advance width="860"/>
  <unicode hex="01DE"/>
  <outline>
    <contour>
      <point x="577" y="1024" type="line"/>
      <point x="577" y="954" type="line"/>
      <point x="303" y="954" type="line"/>
      <point x="303" y="1024" type="line"/>
    </contour>
    <contour>
      <point x="460" y="904" type="line"/>
      <point x="460" y="801" type="line"/>
      <point x="356" y="801" type="line"/>
      <point x="356" y="904" type="line"/>
    </contour>
    <contour>
      <point x="622" y="904" type="line"/>
      <point x="622" y="801" type="line"/>
      <point x="518" y="801" type="line"/>
      <point x="518" y="904" type="line"/>
    </contour>
    <contour>
      <point x="593" y="0" type="line"/>
      <point x="593" y="81" type="line"/>
      <point x="659" y="81" type="line"/>
      <point x="612" y="219" type="line"/>
      <point x="331" y="219" type="line"/>
      <point x="282" y="81" type="line"/>
      <point x="348" y="81" type="line"/>
      <point x="348" y="0" type="line"/>
      <point x="61" y="0" type="line"/>
      <point x="61" y="81" type="line"/>
      <point x="184" y="81" type="line"/>
      <point x="386" y="648" type="line"/>
      <point x="321" y="648" type="line"/>
      <point x="321" y="729" type="line"/>
      <point x="415" y="729" type="line"/>
      <point x="535" y="729" type="line"/>
      <point x="763" y="81" type="line"/>
      <point x="885" y="81" type="line"/>
      <point x="885" y="0" type="line"/>
    </contour>
    <contour>
      <point x="586" y="297" type="line"/>
      <point x="474" y="629" type="line"/>
      <point x="354" y="297" type="line"/>
    </contour>
  </outline>
</glyph>
<glyph name="uni01DF" format="1">
  <advance width="627"/>
  <unicode hex="01DF"/>
  <outline>
    <contour>
      <point x="410" y="825" type="line"/>
      <point x="410" y="755" type="line"/>
      <point x="136" y="755" type="line"/>
      <point x="136" y="825" type="line"/>
    </contour>
    <contour>
      <point x="322" y="702" type="line"/>
      <point x="322" y="599" type="line"/>
      <point x="218" y="599" type="line"/>
      <point x="218" y="702" type="line"/>
    </contour>
    <contour>
      <point x="484" y="702" type="line"/>
      <point x="484" y="599" type="line"/>
      <point x="380" y="599" type="line"/>
      <point x="380" y="702" type="line"/>
    </contour>
    <contour>
      <point x="641" y="68" type="line"/>
      <point x="641" y="0" type="line"/>
      <point x="497" y="0" type="line"/>
      <point x="497" y="69" type="line"/>
      <point x="463" y="20"/>
      <point x="384" y="-23"/>
      <point x="330" y="-23" type="qcurve" smooth="yes"/>
      <point x="224" y="-23"/>
      <point x="102" y="130"/>
      <point x="102" y="263" type="qcurve" smooth="yes"/>
      <point x="102" y="388"/>
      <point x="225" y="539"/>
      <point x="327" y="539" type="qcurve" smooth="yes"/>
      <point x="435" y="539"/>
      <point x="488" y="458" type="qcurve"/>
      <point x="488" y="525" type="line"/>
      <point x="571" y="525" type="line"/>
      <point x="571" y="68" type="line"/>
    </contour>
    <contour>
      <point x="341" y="461" type="qcurve" smooth="yes"/>
      <point x="273" y="461"/>
      <point x="189" y="349"/>
      <point x="189" y="258" type="qcurve" smooth="yes"/>
      <point x="189" y="166"/>
      <point x="273" y="55"/>
      <point x="342" y="55" type="qcurve" smooth="yes"/>
      <point x="408" y="55"/>
      <point x="488" y="165"/>
      <point x="488" y="256" type="qcurve" smooth="yes"/>
      <point x="488" y="350"/>
      <point x="408" y="461"/>
    </contour>
  </outline>
</glyph>
<glyph name="uni01E0" format="1">
  <advance width="860"/>
  <unicode hex="01E0"/>
  <outline>
    <contour>
      <point x="579" y="995" type="line"/>
      <point x="579" y="925" type="line"/>
      <point x="305" y="925" type="line"/>
      <point x="305" y="995" type="line"/>
    </contour>
    <contour>
      <point x="494" y="885" type="line"/>
      <point x="494" y="781" type="line"/>
      <point x="390" y="781" type="line"/>
      <point x="390" y="885" type="line"/>
    </contour>
    <contour>
      <point x="593" y="0" type="line"/>
      <point x="593" y="81" type="line"/>
      <point x="659" y="81" type="line"/>
      <point x="612" y="219" type="line"/>
      <point x="331" y="219" type="line"/>
      <point x="282" y="81" type="line"/>
      <point x="348" y="81" type="line"/>
      <point x="348" y="0" type="line"/>
      <point x="61" y="0" type="line"/>
      <point x="61" y="81" type="line"/>
      <point x="184" y="81" type="line"/>
      <point x="386" y="648" type="line"/>
      <point x="321" y="648" type="line"/>
      <point x="321" y="729" type="line"/>
      <point x="415" y="729" type="line"/>
      <point x="535" y="729" type="line"/>
      <point x="763" y="81" type="line"/>
      <point x="885" y="81" type="line"/>
      <point x="885" y="0" type="line"/>
    </contour>
    <contour>
      <point x="586" y="297" type="line"/>
      <point x="474" y="629" type="line"/>
      <point x="354" y="297" type="line"/>
    </contour>
  </outline>
</glyph>
<glyph name="uni0202" format="1">
  <advance width="860"/>
  <unicode hex="0202"/>
  <outline>
    <contour>
      <point x="590" y="781" type="qcurve"/>
      <point x="531" y="781" type="line"/>
      <point x="523" y="847"/>
      <point x="439" y="847" type="qcurve" smooth="yes"/>
      <point x="399" y="847"/>
      <point x="351" y="813"/>
      <point x="348" y="781" type="qcurve"/>
      <point x="289" y="781" type="line"/>
      <point x="300" y="916"/>
      <point x="441" y="916" type="qcurve" smooth="yes"/>
      <point x="477" y="916"/>
      <point x="537" y="897"/>
      <point x="589" y="833"/>
    </contour>
    <contour>
      <point x="593" y="0" type="line"/>
      <point x="593" y="81" type="line"/>
      <point x="659" y="81" type="line"/>
      <point x="612" y="219" type="line"/>
      <point x="331" y="219" type="line"/>
      <point x="282" y="81" type="line"/>
      <point x="348" y="81" type="line"/>
      <point x="348" y="0" type="line"/>
      <point x="61" y="0" type="line"/>
      <point x="61" y="81" type="line"/>
      <point x="184" y="81" type="line"/>
      <point x="386" y="648" type="line"/>
      <point x="321" y="648" type="line"/>
      <point x="321" y="729" type="line"/>
      <point x="415" y="729" type="line"/>
      <point x="535" y="729" type="line"/>
      <point x="763" y="81" type="line"/>
      <point x="885" y="81" type="line"/>
      <point x="885" y="0" type="line"/>
    </contour>
    <contour>
      <point x="586" y="297" type="line"/>
      <point x="474" y="629" type="line"/>
      <point x="354" y="297" type="line"/>
    </contour>
  </outline>
</glyph>
<glyph name="uni0203" format="1">
  <advance width="627"/>
  <unicode hex="0203"/>
  <outline>
    <contour>
      <point x="420" y="579" type="qcurve"/>
      <point x="361" y="579" type="line"/>
      <point x="353" y="645"/>
      <point x="269" y="645" type="qcurve" smooth="yes"/>
      <point x="229" y="645"/>
      <point x="181" y="611"/>
      <point x="178" y="579" type="qcurve"/>
      <point x="119" y="579" type="line"/>
      <point x="130" y="714"/>
      <point x="271" y="714" type="qcurve" smooth="yes"/>
      <point x="307" y="714"/>
      <point x="367" y="695"/>
      <point x="419" y="631"/>
    </contour>
    <contour>
      <point x="641" y="68" type="line"/>
      <point x="641" y="0" type="line"/>
      <point x="497" y="0" type="line"/>
      <point x="497" y="69" type="line"/>
      <point x="463" y="20"/>
      <point x="384" y="-23"/>
      <point x="330" y="-23" type="qcurve" smooth="yes"/>
      <point x="224" y="-23"/>
      <point x="102" y="130"/>
      <point x="102" y="263" type="qcurve" smooth="yes"/>
      <point x="102" y="388"/>
      <point x="225" y="539"/>
      <point x="327" y="539" type="qcurve" smooth="yes"/>
      <point x="435" y="539"/>
      <point x="488" y="458" type="qcurve"/>
      <point x="488" y="525" type="line"/>
      <point x="571" y="525" type="line"/>
      <point x="571" y="68" type="line"/>
    </contour>
    <contour>
      <point x="341" y="461" type="qcurve" smooth="yes"/>
      <point x="273" y="461"/>
      <point x="189" y="349"/>
      <point x="189" y="258" type="qcurve" smooth="yes"/>
      <point x="189" y="166"/>
      <point x="273" y="55"/>
      <point x="342" y="55" type="qcurve" smooth="yes"/>
      <point x="408" y="55"/>
      <point x="488" y="165"/>
      <point x="488" y="256" type="qcurve" smooth="yes"/>
      <point x="488" y="350"/>
      <point x="408" y="461"/>
    </contour>
  </outline>
</glyph>
<glyph name="uni0206" format="1">
  <advance width="761"/>
  <unicode hex="0206"/>
  <outline>
    <contour>
      <point x="490" y="781" type="qcurve"/>
      <point x="431" y="781" type="line"/>
      <point x="423" y="847"/>
      <point x="339" y="847" type="qcurve" smooth="yes"/>
      <point x="299" y="847"/>
      <point x="251" y="813"/>
      <point x="248" y="781" type="qcurve"/>
      <point x="189" y="781" type="line"/>
      <point x="200" y="916"/>
      <point x="341" y="916" type="qcurve" smooth="yes"/>
      <point x="377" y="916"/>
      <point x="437" y="897"/>
      <point x="489" y="833"/>
    </contour>
    <contour>
      <point x="188" y="82" type="line"/>
      <point x="188" y="1" type="line"/>
      <point x="94" y="1" type="line"/>
      <point x="94" y="82" type="line"/>
    </contour>
    <contour>
      <point x="188" y="730" type="line"/>
      <point x="188" y="649" type="line"/>
      <point x="94" y="649" type="line"/>
      <point x="94" y="730" type="line"/>
    </contour>
    <contour>
      <point x="711" y="164" type="line"/>
      <point x="711" y="83" type="line"/>
      <point x="617" y="83" type="line"/>
      <point x="617" y="164" type="line"/>
    </contour>
    <contour>
      <point x="693" y="648" type="line"/>
      <point x="693" y="567" type="line"/>
      <point x="599" y="567" type="line"/>
      <point x="599" y="648" type="line"/>
    </contour>
    <contour>
      <point x="281" y="333" type="line"/>
      <point x="281" y="83" type="line"/>
      <point x="711" y="83" type="line"/>
      <point x="711" y="1" type="line"/>
      <point x="188" y="1" type="line"/>
      <point x="188" y="730" type="line"/>
      <point x="693" y="730" type="line"/>
      <point x="693" y="648" type="line"/>
      <point x="281" y="648" type="line"/>
      <point x="281" y="415" type="line"/>
      <point x="678" y="415" type="line"/>
      <point x="678" y="333" type="line"/>
    </contour>
  </outline>
</glyph>
<glyph name="uni0207" format="1">
  <advance width="556"/>
  <unicode hex="0207"/>
  <outline>
    <contour>
      <point x="430" y="579" type="qcurve"/>
      <point x="371" y="579" type="line"/>
      <point x="363" y="645"/>
      <point x="279" y="645" type="qcurve" smooth="yes"/>
      <point x="239" y="645"/>
      <point x="191" y="611"/>
      <point x="188" y="579" type="qcurve"/>
      <point x="129" y="579" type="line"/>
      <point x="140" y="714"/>
      <point x="281" y="714" type="qcurve" smooth="yes"/>
      <point x="317" y="714"/>
      <point x="377" y="695"/>
      <point x="429" y="631"/>
    </contour>
    <contour>
      <point x="574" y="234" type="qcurve"/>
      <point x="188" y="234" type="line"/>
      <point x="189" y="162"/>
      <point x="216" y="122" type="qcurve"/>
      <point x="259" y="54"/>
      <point x="342" y="54" type="qcurve" smooth="yes"/>
      <point x="444" y="54"/>
      <point x="479" y="159" type="qcurve"/>
      <point x="563" y="159" type="line"/>
      <point x="547" y="73"/>
      <point x="429" y="-23"/>
      <point x="339" y="-23" type="qcurve" smooth="yes"/>
      <point x="229" y="-23"/>
      <point x="101" y="126"/>
      <point x="101" y="384"/>
      <point x="232" y="539"/>
      <point x="341" y="539" type="qcurve" smooth="yes"/>
      <point x="415" y="539"/>
      <point x="528" y="465"/>
      <point x="553" y="401" type="qcurve" smooth="yes"/>
      <point x="574" y="346"/>
    </contour>
    <contour>
      <point x="190" y="302" type="qcurve"/>
      <point x="484" y="302" type="line"/>
      <point x="485" y="304"/>
      <point x="485" y="308" type="qcurve" smooth="yes"/>
      <point x="485" y="373"/>
      <point x="401" y="462"/>
      <point x="340" y="462" type="qcurve" smooth="yes"/>
      <point x="277" y="462"/>
      <point x="195" y="375"/>
    </contour>
  </outline>
</glyph>
<glyph name="uni020A" format="1">
  <advance width="466"/>
  <unicode hex="020A"/>
  <outline>
    <contour>
      <point x="382" y="781" type="qcurve"/>
      <point x="323" y="781" type="line"/>
      <point x="315" y="847"/>
      <point x="231" y="847" type="qcurve" smooth="yes"/>
      <point x="191" y="847"/>
      <point x="143" y="813"/>
      <point x="140" y="781" type="qcurve"/>
      <point x="81" y="781" type="line"/>
      <point x="92" y="916"/>
      <point x="233" y="916" type="qcurve" smooth="yes"/>
      <point x="269" y="916"/>
      <point x="329" y="897"/>
      <point x="381" y="833"/>
    </contour>
    <contour>
      <point x="376" y="81" type="line"/>
      <point x="376" y="0" type="line"/>
      <point x="282" y="0" type="line"/>
      <point x="282" y="81" type="line"/>
    </contour>
    <contour>
      <point x="376" y="729" type="line"/>
      <point x="376" y="648" type="line"/>
      <point x="282" y="648" type="line"/>
      <point x="282" y="729" type="line"/>
    </contour>
    <contour>
      <point x="188" y="81" type="line"/>
      <point x="188" y="0" type="line"/>
      <point x="94" y="0" type="line"/>
      <point x="94" y="81" type="line"/>
    </contour>
    <contour>
      <point x="188" y="729" type="line"/>
      <point x="188" y="648" type="line"/>
      <point x="94" y="648" type="line"/>
      <point x="94" y="729" type="line"/>
    </contour>
    <contour>
      <point x="282" y="729" type="line"/>
      <point x="282" y="0" type="line"/>
      <point x="188" y="0" type="line"/>
      <point x="188" y="729" type="line"/>
    </contour>
  </outline>
</glyph>
<glyph name="uni020E" format="1">
  <advance width="778"/>
  <unicode hex="020E"/>
  <outline>
    <contour>
      <point x="540" y="781" type="qcurve"/>
      <point x="481" y="781" type="line"/>
      <point x="473" y="847"/>
      <point x="389" y="847" type="qcurve" smooth="yes"/>
      <point x="349" y="847"/>
      <point x="301" y="813"/>
      <point x="298" y="781" type="qcurve"/>
      <point x="239" y="781" type="line"/>
      <point x="250" y="916"/>
      <point x="391" y="916" type="qcurve" smooth="yes"/>
      <point x="427" y="916"/>
      <point x="487" y="897"/>
      <point x="539" y="833"/>
    </contour>
    <contour>
      <point x="810" y="353" type="qcurve" smooth="yes"/>
      <point x="810" y="191"/>
      <point x="618" y="-23"/>
      <point x="458" y="-23" type="qcurve" smooth="yes"/>
      <point x="300" y="-23"/>
      <point x="106" y="188"/>
      <point x="106" y="530"/>
      <point x="300" y="741"/>
      <point x="457" y="741" type="qcurve" smooth="yes"/>
      <point x="617" y="741"/>
      <point x="810" y="529"/>
    </contour>
    <contour>
      <point x="457" y="659" type="qcurve" smooth="yes"/>
      <point x="341" y="659"/>
      <point x="199" y="494"/>
      <point x="199" y="224"/>
      <point x="342" y="59"/>
      <point x="574" y="59"/>
      <point x="717" y="223"/>
      <point x="717" y="355" type="qcurve" smooth="yes"/>
      <point x="717" y="493"/>
      <point x="575" y="659"/>
    </contour>
  </outline>
</glyph>
<glyph name="uni020F" format="1">
  <advance width="556"/>
  <unicode hex="020F"/>
  <outline>
    <contour>
      <point x="425" y="579" type="qcurve"/>
      <point x="366" y="579" type="line"/>
      <point x="358" y="645"/>
      <point x="274" y="645" type="qcurve" smooth="yes"/>
      <point x="234" y="645"/>
      <point x="186" y="611"/>
      <point x="183" y="579" type="qcurve"/>
      <point x="124" y="579" type="line"/>
      <point x="135" y="714"/>
      <point x="276" y="714" type="qcurve" smooth="yes"/>
      <point x="312" y="714"/>
      <point x="372" y="695"/>
      <point x="424" y="631"/>
    </contour>
    <contour>
      <point x="339" y="539" type="qcurve" smooth="yes"/>
      <point x="452" y="539"/>
      <point x="577" y="390"/>
      <point x="577" y="254" type="qcurve" smooth="yes"/>
      <point x="577" y="125"/>
      <point x="450" y="-23"/>
      <point x="340" y="-23" type="qcurve" smooth="yes"/>
      <point x="228" y="-23"/>
      <point x="103" y="126"/>
      <point x="103" y="390"/>
      <point x="229" y="539"/>
    </contour>
    <contour>
      <point x="340" y="462" type="qcurve" smooth="yes"/>
      <point x="270" y="462"/>
      <point x="190" y="353"/>
      <point x="190" y="163"/>
      <point x="270" y="54"/>
      <point x="340" y="54" type="qcurve" smooth="yes"/>
      <point x="409" y="54"/>
      <point x="490" y="163"/>
      <point x="490" y="255" type="qcurve" smooth="yes"/>
      <point x="490" y="352"/>
      <point x="411" y="462"/>
    </contour>
  </outline>
</glyph>
<glyph name="uni0212" format="1">
  <advance width="1083"/>
  <unicode hex="0212"/>
  <outline>
    <contour>
      <point x="511" y="788" type="qcurve"/>
      <point x="452" y="788" type="line"/>
      <point x="444" y="854"/>
      <point x="360" y="854" type="qcurve" smooth="yes"/>
      <point x="320" y="854"/>
      <point x="272" y="820"/>
      <point x="269" y="788" type="qcurve"/>
      <point x="210" y="788" type="line"/>
      <point x="221" y="923"/>
      <point x="362" y="923" type="qcurve" smooth="yes"/>
      <point x="398" y="923"/>
      <point x="458" y="904"/>
      <point x="510" y="840"/>
    </contour>
    <contour>
      <point x="821" y="81" type="line"/>
      <point x="821" y="0" type="line"/>
      <point x="727" y="0" type="line"/>
      <point x="727" y="81" type="line"/>
    </contour>
    <contour>
      <point x="375" y="81" type="line"/>
      <point x="375" y="0" type="line"/>
      <point x="281" y="0" type="line"/>
      <point x="281" y="81" type="line"/>
    </contour>
    <contour>
      <point x="188" y="81" type="line"/>
      <point x="188" y="0" type="line"/>
      <point x="94" y="0" type="line"/>
      <point x="94" y="81" type="line"/>
    </contour>
    <contour>
      <point x="188" y="729" type="line"/>
      <point x="188" y="648" type="line"/>
      <point x="94" y="648" type="line"/>
      <point x="94" y="729" type="line"/>
    </contour>
    <contour>
      <point x="631" y="360" type="qcurve"/>
      <point x="663" y="346"/>
      <point x="706" y="308"/>
      <point x="725" y="260"/>
      <point x="731" y="218"/>
      <point x="731" y="189" type="qcurve" smooth="yes"/>
      <point x="731" y="180"/>
      <point x="730" y="146"/>
      <point x="730" y="138" type="qcurve" smooth="yes"/>
      <point x="730" y="97"/>
      <point x="748" y="41"/>
      <point x="774" y="23" type="qcurve"/>
      <point x="774" y="0" type="line"/>
      <point x="661" y="0" type="line"/>
      <point x="641" y="46"/>
      <point x="641" y="119" type="qcurve" smooth="yes"/>
      <point x="641" y="184" type="line" smooth="yes"/>
      <point x="641" y="251"/>
      <point x="583" y="314"/>
      <point x="521" y="314" type="qcurve" smooth="yes"/>
      <point x="281" y="314" type="line"/>
      <point x="281" y="0" type="line"/>
      <point x="188" y="0" type="line"/>
      <point x="188" y="729" type="line"/>
      <point x="524" y="729" type="line" smooth="yes"/>
      <point x="631" y="729"/>
      <point x="746" y="628"/>
      <point x="746" y="534" type="qcurve" smooth="yes"/>
      <point x="746" y="472"/>
      <point x="692" y="390"/>
    </contour>
    <contour>
      <point x="649" y="521" type="qcurve" smooth="yes"/>
      <point x="649" y="593"/>
      <point x="573" y="647"/>
      <point x="506" y="647" type="qcurve" smooth="yes"/>
      <point x="281" y="647" type="line"/>
      <point x="281" y="396" type="line"/>
      <point x="506" y="396" type="line" smooth="yes"/>
      <point x="580" y="396"/>
      <point x="649" y="456"/>
    </contour>
  </outline>
</glyph>
<glyph name="uni0213" format="1">
  <advance width="483"/>
  <unicode hex="0213"/>
  <outline>
    <contour>
      <point x="436" y="579" type="qcurve"/>
      <point x="377" y="579" type="line"/>
      <point x="369" y="645"/>
      <point x="285" y="645" type="qcurve" smooth="yes"/>
      <point x="245" y="645"/>
      <point x="197" y="611"/>
      <point x="194" y="579" type="qcurve"/>
      <point x="135" y="579" type="line"/>
      <point x="146" y="714"/>
      <point x="287" y="714" type="qcurve" smooth="yes"/>
      <point x="323" y="714"/>
      <point x="383" y="695"/>
      <point x="435" y="631"/>
    </contour>
    <contour>
      <point x="161" y="456" type="line"/>
      <point x="161" y="68" type="line"/>
      <point x="90" y="68" type="line"/>
      <point x="90" y="0" type="line"/>
      <point x="316" y="0" type="line"/>
      <point x="316" y="68" type="line"/>
      <point x="244" y="68" type="line"/>
      <point x="245" y="272" type="line" smooth="yes"/>
      <point x="246" y="375"/>
      <point x="287" y="412" type="qcurve" smooth="yes"/>
      <point x="329" y="449"/>
      <point x="413" y="451" type="qcurve"/>
      <point x="413" y="536" type="line"/>
      <point x="392" y="539"/>
      <point x="381" y="539" type="qcurve" smooth="yes"/>
      <point x="341" y="539"/>
      <point x="274" y="488"/>
      <point x="238" y="429" type="qcurve"/>
      <point x="238" y="524" type="line"/>
      <point x="90" y="524" type="line"/>
      <point x="90" y="456" type="line"/>
    </contour>
  </outline>
</glyph>
<glyph name="uni0216" format="1">
  <advance width="910"/>
  <unicode hex="0216"/>
  <outline>
    <contour>
      <point x="604" y="781" type="qcurve"/>
      <point x="545" y="781" type="line"/>
      <point x="537" y="847"/>
      <point x="453" y="847" type="qcurve" smooth="yes"/>
      <point x="413" y="847"/>
      <point x="365" y="813"/>
      <point x="362" y="781" type="qcurve"/>
      <point x="303" y="781" type="line"/>
      <point x="314" y="916"/>
      <point x="455" y="916" type="qcurve" smooth="yes"/>
      <point x="491" y="916"/>
      <point x="551" y="897"/>
      <point x="603" y="833"/>
    </contour>
    <contour>
      <point x="808" y="729" type="line"/>
      <point x="808" y="648" type="line"/>
      <point x="714" y="648" type="line"/>
      <point x="714" y="729" type="line"/>
    </contour>
    <contour>
      <point x="154" y="729" type="line"/>
      <point x="154" y="648" type="line"/>
      <point x="60" y="648" type="line"/>
      <point x="60" y="729" type="line"/>
    </contour>
    <contour>
      <point x="621" y="729" type="line"/>
      <point x="621" y="648" type="line"/>
      <point x="527" y="648" type="line"/>
      <point x="527" y="729" type="line"/>
    </contour>
    <contour>
      <point x="341" y="729" type="line"/>
      <point x="341" y="648" type="line"/>
      <point x="247" y="648" type="line"/>
      <point x="247" y="729" type="line"/>
    </contour>
    <contour>
      <point x="621" y="729" type="line"/>
      <point x="714" y="729" type="line"/>
      <point x="714" y="217" type="line" smooth="yes"/>
      <point x="714" y="107"/>
      <point x="561" y="-23"/>
      <point x="433" y="-23" type="qcurve" smooth="yes"/>
      <point x="303" y="-23"/>
      <point x="154" y="106"/>
      <point x="154" y="217" type="qcurve" smooth="yes"/>
      <point x="154" y="729" type="line"/>
      <point x="247" y="729" type="line"/>
      <point x="247" y="217" type="line" smooth="yes"/>
      <point x="247" y="138"/>
      <point x="348" y="59"/>
      <point x="433" y="59" type="qcurve" smooth="yes"/>
      <point x="521" y="59"/>
      <point x="621" y="143"/>
      <point x="621" y="217" type="qcurve" smooth="yes"/>
    </contour>
  </outline>
</glyph>
<glyph name="uni0217" format="1">
  <advance width="698"/>
  <unicode hex="0217"/>
  <outline>
    <contour>
      <point x="495" y="579" type="qcurve"/>
      <point x="436" y="579" type="line"/>
      <point x="428" y="645"/>
      <point x="344" y="645" type="qcurve" smooth="yes"/>
      <point x="304" y="645"/>
      <point x="256" y="611"/>
      <point x="253" y="579" type="qcurve"/>
      <point x="194" y="579" type="line"/>
      <point x="205" y="714"/>
      <point x="346" y="714" type="qcurve" smooth="yes"/>
      <point x="382" y="714"/>
      <point x="442" y="695"/>
      <point x="494" y="631"/>
    </contour>
    <contour>
      <point x="135" y="456" type="line"/>
      <point x="135" y="120" type="line" smooth="yes"/>
      <point x="135" y="55"/>
      <point x="226" y="-23"/>
      <point x="302" y="-23" type="qcurve" smooth="yes"/>
      <point x="360" y="-23"/>
      <point x="440" y="21"/>
      <point x="477" y="73" type="qcurve"/>
      <point x="477" y="0" type="line"/>
      <point x="623" y="0" type="line"/>
      <point x="623" y="68" type="line"/>
      <point x="552" y="68" type="line"/>
      <point x="552" y="524" type="line"/>
      <point x="398" y="524" type="line"/>
      <point x="398" y="456" type="line"/>
      <point x="469" y="456" type="line"/>
      <point x="469" y="227" type="line" smooth="yes"/>
      <point x="469" y="147"/>
      <point x="430" y="98" type="qcurve" smooth="yes"/>
      <point x="391" y="50"/>
      <point x="326" y="50" type="qcurve" smooth="yes"/>
      <point x="276" y="50"/>
      <point x="218" y="106"/>
      <point x="218" y="153" type="qcurve" smooth="yes"/>
      <point x="218" y="524" type="line"/>
      <point x="64" y="524" type="line"/>
      <point x="64" y="456" type="line"/>
    </contour>
  </outline>
</glyph>
<glyph name="uni0230" format="1">
  <advance width="778"/>
  <unicode hex="0230"/>
  <outline>
    <contour>
      <point x="526" y="995" type="line"/>
      <point x="526" y="925" type="line"/>
      <point x="252" y="925" type="line"/>
      <point x="252" y="995" type="line"/>
    </contour>
    <contour>
      <point x="441" y="885" type="line"/>
      <point x="441" y="781" type="line"/>
      <point x="337" y="781" type="line"/>
      <point x="337" y="885" type="line"/>
    </contour>
    <contour>
      <point x="810" y="353" type="qcurve" smooth="yes"/>
      <point x="810" y="191"/>
      <point x="618" y="-23"/>
      <point x="458" y="-23" type="qcurve" smooth="yes"/>
      <point x="300" y="-23"/>
      <point x="106" y="188"/>
      <point x="106" y="530"/>
      <point x="300" y="741"/>
      <point x="457" y="741" type="qcurve" smooth="yes"/>
      <point x="617" y="741"/>
      <point x="810" y="529"/>
    </contour>
    <contour>
      <point x="457" y="659" type="qcurve" smooth="yes"/>
      <point x="341" y="659"/>
      <point x="199" y="494"/>
      <point x="199" y="224"/>
      <point x="342" y="59"/>
      <point x="574" y="59"/>
      <point x="717" y="223"/>
      <point x="717" y="355" type="qcurve" smooth="yes"/>
      <point x="717" y="493"/>
      <point x="575" y="659"/>
    </contour>
  </outline>
</glyph>
<glyph name="Alphatonos" format="1">
  <advance width="860"/>
  <unicode hex="0386"/>
  <outline>
    <contour>
      <point x="206" y="741" type="line"/>
      <point x="319" y="741" type="line"/>
      <point x="170" y="593" type="line"/>
      <point x="110" y="593" type="line"/>
    </contour>
    <contour>
      <point x="593" y="0" type="line"/>
      <point x="593" y="81" type="line"/>
      <point x="659" y="81" type="line"/>
      <point x="612" y="219" type="line"/>
      <point x="331" y="219" type="line"/>
      <point x="282" y="81" type="line"/>
      <point x="348" y="81" type="line"/>
      <point x="348" y="0" type="line"/>
      <point x="61" y="0" type="line"/>
      <point x="61" y="81" type="line"/>
      <point x="184" y="81" type="line"/>
      <point x="386" y="648" type="line"/>
      <point x="321" y="648" type="line"/>
      <point x="321" y="729" type="line"/>
      <point x="415" y="729" type="line"/>
      <point x="535" y="729" type="line"/>
      <point x="763" y="81" type="line"/>
      <point x="885" y="81" type="line"/>
      <point x="885" y="0" type="line"/>
    </contour>
    <contour>
      <point x="586" y="297" type="line"/>
      <point x="474" y="629" type="line"/>
      <point x="354" y="297" type="line"/>
    </contour>
  </outline>
</glyph>
<glyph name="Epsilontonos" format="1">
  <advance width="786"/>
  <unicode hex="0388"/>
  <outline>
    <contour>
      <point x="310" y="82" type="line"/>
      <point x="310" y="1" type="line"/>
      <point x="216" y="1" type="line"/>
      <point x="216" y="82" type="line"/>
    </contour>
    <contour>
      <point x="310" y="730" type="line"/>
      <point x="310" y="649" type="line"/>
      <point x="216" y="649" type="line"/>
      <point x="216" y="730" type="line"/>
    </contour>
    <contour>
      <point x="833" y="164" type="line"/>
      <point x="833" y="83" type="line"/>
      <point x="739" y="83" type="line"/>
      <point x="739" y="164" type="line"/>
    </contour>
    <contour>
      <point x="815" y="648" type="line"/>
      <point x="815" y="567" type="line"/>
      <point x="721" y="567" type="line"/>
      <point x="721" y="648" type="line"/>
    </contour>
    <contour>
      <point x="403" y="333" type="line"/>
      <point x="403" y="83" type="line"/>
      <point x="833" y="83" type="line"/>
      <point x="833" y="1" type="line"/>
      <point x="310" y="1" type="line"/>
      <point x="310" y="730" type="line"/>
      <point x="815" y="730" type="line"/>
      <point x="815" y="648" type="line"/>
      <point x="403" y="648" type="line"/>
      <point x="403" y="415" type="line"/>
      <point x="800" y="415" type="line"/>
      <point x="800" y="333" type="line"/>
    </contour>
    <contour>
      <point x="56" y="740" type="line"/>
      <point x="169" y="740" type="line"/>
      <point x="20" y="592" type="line"/>
      <point x="-40" y="592" type="line"/>
    </contour>
  </outline>
</glyph>
<glyph name="Etatonos" format="1">
  <advance width="916"/>
  <unicode hex="0389"/>
  <outline>
    <contour>
      <point x="976" y="81" type="line"/>
      <point x="976" y="0" type="line"/>
      <point x="882" y="0" type="line"/>
      <point x="882" y="81" type="line"/>
    </contour>
    <contour>
      <point x="976" y="729" type="line"/>
      <point x="976" y="648" type="line"/>
      <point x="882" y="648" type="line"/>
      <point x="882" y="729" type="line"/>
    </contour>
    <contour>
      <point x="789" y="729" type="line"/>
      <point x="789" y="648" type="line"/>
      <point x="695" y="648" type="line"/>
      <point x="695" y="729" type="line"/>
    </contour>
    <contour>
      <point x="789" y="81" type="line"/>
      <point x="789" y="0" type="line"/>
      <point x="695" y="0" type="line"/>
      <point x="695" y="81" type="line"/>
    </contour>
    <contour>
      <point x="508" y="81" type="line"/>
      <point x="508" y="0" type="line"/>
      <point x="414" y="0" type="line"/>
      <point x="414" y="81" type="line"/>
    </contour>
    <contour>
      <point x="508" y="729" type="line"/>
      <point x="508" y="648" type="line"/>
      <point x="414" y="648" type="line"/>
      <point x="414" y="729" type="line"/>
    </contour>
    <contour>
      <point x="321" y="81" type="line"/>
      <point x="321" y="0" type="line"/>
      <point x="227" y="0" type="line"/>
      <point x="227" y="81" type="line"/>
    </contour>
    <contour>
      <point x="321" y="729" type="line"/>
      <point x="321" y="648" type="line"/>
      <point x="227" y="648" type="line"/>
      <point x="227" y="729" type="line"/>
    </contour>
    <contour>
      <point x="789" y="332" type="line"/>
      <point x="414" y="332" type="line"/>
      <point x="414" y="0" type="line"/>
      <point x="321" y="0" type="line"/>
      <point x="321" y="729" type="line"/>
      <point x="414" y="729" type="line"/>
      <point x="414" y="414" type="line"/>
      <point x="789" y="414" type="line"/>
      <point x="789" y="729" type="line"/>
      <point x="882" y="729" type="line"/>
      <point x="882" y="0" type="line"/>
      <point x="789" y="0" type="line"/>
    </contour>
    <contour>
      <point x="56" y="740" type="line"/>
      <point x="169" y="740" type="line"/>
      <point x="20" y="592" type="line"/>
      <point x="-40" y="592" type="line"/>
    </contour>
  </outline>
</glyph>
<glyph name="Iotatonos" format="1">
  <advance width="369"/>
  <unicode hex="038A"/>
  <outline>
    <contour>
      <point x="491" y="81" type="line"/>
      <point x="491" y="0" type="line"/>
      <point x="397" y="0" type="line"/>
      <point x="397" y="81" type="line"/>
    </contour>
    <contour>
      <point x="491" y="729" type="line"/>
      <point x="491" y="648" type="line"/>
      <point x="397" y="648" type="line"/>
      <point x="397" y="729" type="line"/>
    </contour>
    <contour>
      <point x="303" y="81" type="line"/>
      <point x="303" y="0" type="line"/>
      <point x="209" y="0" type="line"/>
      <point x="209" y="81" type="line"/>
    </contour>
    <contour>
      <point x="303" y="729" type="line"/>
      <point x="303" y="648" type="line"/>
      <point x="209" y="648" type="line"/>
      <point x="209" y="729" type="line"/>
    </contour>
    <contour>
      <point x="397" y="729" type="line"/>
      <point x="397" y="0" type="line"/>
      <point x="303" y="0" type="line"/>
      <point x="303" y="729" type="line"/>
    </contour>
    <contour>
      <point x="56" y="740" type="line"/>
      <point x="169" y="740" type="line"/>
      <point x="20" y="592" type="line"/>
      <point x="-40" y="592" type="line"/>
    </contour>
  </outline>
</glyph>
<glyph name="Omicrontonos" format="1">
  <advance width="833"/>
  <unicode hex="038C"/>
  <outline>
    <contour>
      <point x="74" y="732" type="line"/>
      <point x="187" y="732" type="line"/>
      <point x="38" y="584" type="line"/>
      <point x="-22" y="584" type="line"/>
    </contour>
    <contour>
      <point x="870" y="353" type="qcurve" smooth="yes"/>
      <point x="870" y="191"/>
      <point x="678" y="-23"/>
      <point x="518" y="-23" type="qcurve" smooth="yes"/>
      <point x="360" y="-23"/>
      <point x="166" y="188"/>
      <point x="166" y="530"/>
      <point x="360" y="741"/>
      <point x="517" y="741" type="qcurve" smooth="yes"/>
      <point x="677" y="741"/>
      <point x="870" y="529"/>
    </contour>
    <contour>
      <point x="517" y="659" type="qcurve" smooth="yes"/>
      <point x="401" y="659"/>
      <point x="259" y="494"/>
      <point x="259" y="224"/>
      <point x="402" y="59"/>
      <point x="634" y="59"/>
      <point x="777" y="223"/>
      <point x="777" y="355" type="qcurve" smooth="yes"/>
      <point x="777" y="493"/>
      <point x="635" y="659"/>
    </contour>
  </outline>
</glyph>
<glyph name="Upsilontonos" format="1">
  <advance width="845"/>
  <unicode hex="038E"/>
  <outline>
    <contour>
      <point x="56" y="741" type="line"/>
      <point x="169" y="741" type="line"/>
      <point x="20" y="593" type="line"/>
      <point x="-40" y="593" type="line"/>
    </contour>
    <contour>
      <point x="741" y="87" type="line"/>
      <point x="741" y="6" type="line"/>
      <point x="647" y="6" type="line"/>
      <point x="647" y="87" type="line"/>
    </contour>
    <contour>
      <point x="554" y="87" type="line"/>
      <point x="554" y="6" type="line"/>
      <point x="460" y="6" type="line"/>
      <point x="460" y="87" type="line"/>
    </contour>
    <contour>
      <point x="1015" y="735" type="line"/>
      <point x="1015" y="654" type="line"/>
      <point x="921" y="654" type="line"/>
      <point x="921" y="735" type="line"/>
    </contour>
    <contour>
      <point x="810" y="735" type="line"/>
      <point x="810" y="654" type="line"/>
      <point x="716" y="654" type="line"/>
      <point x="716" y="735" type="line"/>
    </contour>
    <contour>
      <point x="482" y="735" type="line"/>
      <point x="482" y="654" type="line"/>
      <point x="388" y="654" type="line"/>
      <point x="388" y="735" type="line"/>
    </contour>
    <contour>
      <point x="273" y="735" type="line"/>
      <point x="273" y="654" type="line"/>
      <point x="179" y="654" type="line"/>
      <point x="179" y="735" type="line"/>
    </contour>
    <contour>
      <point x="647" y="292" type="line"/>
      <point x="647" y="6" type="line"/>
      <point x="554" y="6" type="line"/>
      <point x="554" y="292" type="line"/>
      <point x="273" y="735" type="line"/>
      <point x="388" y="735" type="line"/>
      <point x="602" y="380" type="line"/>
      <point x="810" y="735" type="line"/>
      <point x="921" y="735" type="line"/>
    </contour>
  </outline>
</glyph>
<glyph name="Iotadieresis" format="1">
  <advance width="466"/>
  <unicode hex="03AA"/>
  <outline>
    <contour>
      <point x="201" y="904" type="line"/>
      <point x="201" y="801" type="line"/>
      <point x="97" y="801" type="line"/>
      <point x="97" y="904" type="line"/>
    </contour>
    <contour>
      <point x="363" y="904" type="line"/>
      <point x="363" y="801" type="line"/>
      <point x="259" y="801" type="line"/>
      <point x="259" y="904" type="line"/>
    </contour>
    <contour>
      <point x="376" y="81" type="line"/>
      <point x="376" y="0" type="line"/>
      <point x="282" y="0" type="line"/>
      <point x="282" y="81" type="line"/>
    </contour>
    <contour>
      <point x="376" y="729" type="line"/>
      <point x="376" y="648" type="line"/>
      <point x="282" y="648" type="line"/>
      <point x="282" y="729" type="line"/>
    </contour>
    <contour>
      <point x="188" y="81" type="line"/>
      <point x="188" y="0" type="line"/>
      <point x="94" y="0" type="line"/>
      <point x="94" y="81" type="line"/>
    </contour>
    <contour>
      <point x="188" y="729" type="line"/>
      <point x="188" y="648" type="line"/>
      <point x="94" y="648" type="line"/>
      <point x="94" y="729" type="line"/>
    </contour>
    <contour>
      <point x="282" y="729" type="line"/>
      <point x="282" y="0" type="line"/>
      <point x="188" y="0" type="line"/>
      <point x="188" y="729" type="line"/>
    </contour>
  </outline>
</glyph>
<glyph name="omicrontonos" format="1">
  <advance width="553"/>
  <unicode hex="03CC"/>
  <outline>
    <contour>
      <point x="355" y="744" type="line"/>
      <point x="468" y="744" type="line"/>
      <point x="319" y="596" type="line"/>
      <point x="259" y="596" type="line"/>
    </contour>
    <contour>
      <point x="339" y="539" type="qcurve" smooth="yes"/>
      <point x="452" y="539"/>
      <point x="577" y="390"/>
      <point x="577" y="254" type="qcurve" smooth="yes"/>
      <point x="577" y="125"/>
      <point x="450" y="-23"/>
      <point x="340" y="-23" type="qcurve" smooth="yes"/>
      <point x="228" y="-23"/>
      <point x="103" y="126"/>
      <point x="103" y="390"/>
      <point x="229" y="539"/>
    </contour>
    <contour>
      <point x="340" y="462" type="qcurve" smooth="yes"/>
      <point x="270" y="462"/>
      <point x="190" y="353"/>
      <point x="190" y="163"/>
      <point x="270" y="54"/>
      <point x="340" y="54" type="qcurve" smooth="yes"/>
      <point x="409" y="54"/>
      <point x="490" y="163"/>
      <point x="490" y="255" type="qcurve" smooth="yes"/>
      <point x="490" y="352"/>
      <point x="411" y="462"/>
    </contour>
  </outline>
</glyph>
<glyph name="afii10023" format="1">
  <advance width="824"/>
  <unicode hex="0401"/>
  <outline>
    <contour>
      <point x="318" y="904" type="line"/>
      <point x="318" y="801" type="line"/>
      <point x="214" y="801" type="line"/>
      <point x="214" y="904" type="line"/>
    </contour>
    <contour>
      <point x="480" y="904" type="line"/>
      <point x="480" y="801" type="line"/>
      <point x="376" y="801" type="line"/>
      <point x="376" y="904" type="line"/>
    </contour>
    <contour>
      <point x="188" y="82" type="line"/>
      <point x="188" y="1" type="line"/>
      <point x="94" y="1" type="line"/>
      <point x="94" y="82" type="line"/>
    </contour>
    <contour>
      <point x="188" y="730" type="line"/>
      <point x="188" y="649" type="line"/>
      <point x="94" y="649" type="line"/>
      <point x="94" y="730" type="line"/>
    </contour>
    <contour>
      <point x="711" y="164" type="line"/>
      <point x="711" y="83" type="line"/>
      <point x="617" y="83" type="line"/>
      <point x="617" y="164" type="line"/>
    </contour>
    <contour>
      <point x="693" y="648" type="line"/>
      <point x="693" y="567" type="line"/>
      <point x="599" y="567" type="line"/>
      <point x="599" y="648" type="line"/>
    </contour>
    <contour>
      <point x="281" y="333" type="line"/>
      <point x="281" y="83" type="line"/>
      <point x="711" y="83" type="line"/>
      <point x="711" y="1" type="line"/>
      <point x="188" y="1" type="line"/>
      <point x="188" y="730" type="line"/>
      <point x="693" y="730" type="line"/>
      <point x="693" y="648" type="line"/>
      <point x="281" y="648" type="line"/>
      <point x="281" y="415" type="line"/>
      <point x="678" y="415" type="line"/>
      <point x="678" y="333" type="line"/>
    </contour>
  </outline>
</glyph>
<glyph name="uni04D0" format="1">
  <advance width="860"/>
  <unicode hex="04D0"/>
  <outline>
    <contour>
      <point x="292" y="936" type="qcurve"/>
      <point x="351" y="936" type="line"/>
      <point x="359" y="870"/>
      <point x="443" y="870" type="qcurve" smooth="yes"/>
      <point x="483" y="870"/>
      <point x="531" y="904"/>
      <point x="534" y="936" type="qcurve"/>
      <point x="593" y="936" type="line"/>
      <point x="582" y="801"/>
      <point x="441" y="801" type="qcurve" smooth="yes"/>
      <point x="405" y="801"/>
      <point x="345" y="820"/>
      <point x="293" y="884"/>
    </contour>
    <contour>
      <point x="593" y="0" type="line"/>
      <point x="593" y="81" type="line"/>
      <point x="659" y="81" type="line"/>
      <point x="612" y="219" type="line"/>
      <point x="331" y="219" type="line"/>
      <point x="282" y="81" type="line"/>
      <point x="348" y="81" type="line"/>
      <point x="348" y="0" type="line"/>
      <point x="61" y="0" type="line"/>
      <point x="61" y="81" type="line"/>
      <point x="184" y="81" type="line"/>
      <point x="386" y="648" type="line"/>
      <point x="321" y="648" type="line"/>
      <point x="321" y="729" type="line"/>
      <point x="415" y="729" type="line"/>
      <point x="535" y="729" type="line"/>
      <point x="763" y="81" type="line"/>
      <point x="885" y="81" type="line"/>
      <point x="885" y="0" type="line"/>
    </contour>
    <contour>
      <point x="586" y="297" type="line"/>
      <point x="474" y="629" type="line"/>
      <point x="354" y="297" type="line"/>
    </contour>
  </outline>
</glyph>
<glyph name="uni04D3" format="1">
  <advance width="627"/>
  <unicode hex="04D3"/>
  <outline>
    <contour>
      <point x="246" y="702" type="line"/>
      <point x="246" y="599" type="line"/>
      <point x="142" y="599" type="line"/>
      <point x="142" y="702" type="line"/>
    </contour>
    <contour>
      <point x="408" y="702" type="line"/>
      <point x="408" y="599" type="line"/>
      <point x="304" y="599" type="line"/>
      <point x="304" y="702" type="line"/>
    </contour>
    <contour>
      <point x="641" y="68" type="line"/>
      <point x="641" y="0" type="line"/>
      <point x="497" y="0" type="line"/>
      <point x="497" y="69" type="line"/>
      <point x="463" y="20"/>
      <point x="384" y="-23"/>
      <point x="330" y="-23" type="qcurve" smooth="yes"/>
      <point x="224" y="-23"/>
      <point x="102" y="130"/>
      <point x="102" y="263" type="qcurve" smooth="yes"/>
      <point x="102" y="388"/>
      <point x="225" y="539"/>
      <point x="327" y="539" type="qcurve" smooth="yes"/>
      <point x="435" y="539"/>
      <point x="488" y="458" type="qcurve"/>
      <point x="488" y="525" type="line"/>
      <point x="571" y="525" type="line"/>
      <point x="571" y="68" type="line"/>
    </contour>
    <contour>
      <point x="341" y="461" type="qcurve" smooth="yes"/>
      <point x="273" y="461"/>
      <point x="189" y="349"/>
      <point x="189" y="258" type="qcurve" smooth="yes"/>
      <point x="189" y="166"/>
      <point x="273" y="55"/>
      <point x="342" y="55" type="qcurve" smooth="yes"/>
      <point x="408" y="55"/>
      <point x="488" y="165"/>
      <point x="488" y="256" type="qcurve" smooth="yes"/>
      <point x="488" y="350"/>
      <point x="408" y="461"/>
    </contour>
  </outline>
</glyph>
<glyph name="uni04D6" format="1">
  <advance width="824"/>
  <unicode hex="04D6"/>
  <outline>
    <contour>
      <point x="185" y="936" type="qcurve"/>
      <point x="244" y="936" type="line"/>
      <point x="252" y="870"/>
      <point x="336" y="870" type="qcurve" smooth="yes"/>
      <point x="376" y="870"/>
      <point x="424" y="904"/>
      <point x="427" y="936" type="qcurve"/>
      <point x="486" y="936" type="line"/>
      <point x="475" y="801"/>
      <point x="334" y="801" type="qcurve" smooth="yes"/>
      <point x="298" y="801"/>
      <point x="238" y="820"/>
      <point x="186" y="884"/>
    </contour>
    <contour>
      <point x="188" y="82" type="line"/>
      <point x="188" y="1" type="line"/>
      <point x="94" y="1" type="line"/>
      <point x="94" y="82" type="line"/>
    </contour>
    <contour>
      <point x="188" y="730" type="line"/>
      <point x="188" y="649" type="line"/>
      <point x="94" y="649" type="line"/>
      <point x="94" y="730" type="line"/>
    </contour>
    <contour>
      <point x="711" y="164" type="line"/>
      <point x="711" y="83" type="line"/>
      <point x="617" y="83" type="line"/>
      <point x="617" y="164" type="line"/>
    </contour>
    <contour>
      <point x="693" y="648" type="line"/>
      <point x="693" y="567" type="line"/>
      <point x="599" y="567" type="line"/>
      <point x="599" y="648" type="line"/>
    </contour>
    <contour>
      <point x="281" y="333" type="line"/>
      <point x="281" y="83" type="line"/>
      <point x="711" y="83" type="line"/>
      <point x="711" y="1" type="line"/>
      <point x="188" y="1" type="line"/>
      <point x="188" y="730" type="line"/>
      <point x="693" y="730" type="line"/>
      <point x="693" y="648" type="line"/>
      <point x="281" y="648" type="line"/>
      <point x="281" y="415" type="line"/>
      <point x="678" y="415" type="line"/>
      <point x="678" y="333" type="line"/>
    </contour>
  </outline>
</glyph>
<glyph name="uni04D7" format="1">
  <advance width="556"/>
  <unicode hex="04D7"/>
  <outline>
    <contour>
      <point x="129" y="734" type="qcurve"/>
      <point x="188" y="734" type="line"/>
      <point x="196" y="668"/>
      <point x="280" y="668" type="qcurve" smooth="yes"/>
      <point x="320" y="668"/>
      <point x="368" y="702"/>
      <point x="371" y="734" type="qcurve"/>
      <point x="430" y="734" type="line"/>
      <point x="419" y="599"/>
      <point x="278" y="599" type="qcurve" smooth="yes"/>
      <point x="242" y="599"/>
      <point x="182" y="618"/>
      <point x="130" y="682"/>
    </contour>
    <contour>
      <point x="574" y="234" type="qcurve"/>
      <point x="188" y="234" type="line"/>
      <point x="189" y="162"/>
      <point x="216" y="122" type="qcurve"/>
      <point x="259" y="54"/>
      <point x="342" y="54" type="qcurve" smooth="yes"/>
      <point x="444" y="54"/>
      <point x="479" y="159" type="qcurve"/>
      <point x="563" y="159" type="line"/>
      <point x="547" y="73"/>
      <point x="429" y="-23"/>
      <point x="339" y="-23" type="qcurve" smooth="yes"/>
      <point x="229" y="-23"/>
      <point x="101" y="126"/>
      <point x="101" y="384"/>
      <point x="232" y="539"/>
      <point x="341" y="539" type="qcurve" smooth="yes"/>
      <point x="415" y="539"/>
      <point x="528" y="465"/>
      <point x="553" y="401" type="qcurve" smooth="yes"/>
      <point x="574" y="346"/>
    </contour>
    <contour>
      <point x="190" y="302" type="qcurve"/>
      <point x="484" y="302" type="line"/>
      <point x="485" y="304"/>
      <point x="485" y="308" type="qcurve" smooth="yes"/>
      <point x="485" y="373"/>
      <point x="401" y="462"/>
      <point x="340" y="462" type="qcurve" smooth="yes"/>
      <point x="277" y="462"/>
      <point x="195" y="375"/>
    </contour>
  </outline>
</glyph>
<glyph name="uni04E6" format="1">
  <advance width="778"/>
  <unicode hex="04E6"/>
  <outline>
    <contour>
      <point x="360" y="904" type="line"/>
      <point x="360" y="801" type="line"/>
      <point x="256" y="801" type="line"/>
      <point x="256" y="904" type="line"/>
    </contour>
    <contour>
      <point x="522" y="904" type="line"/>
      <point x="522" y="801" type="line"/>
      <point x="418" y="801" type="line"/>
      <point x="418" y="904" type="line"/>
    </contour>
    <contour>
      <point x="810" y="353" type="qcurve" smooth="yes"/>
      <point x="810" y="191"/>
      <point x="618" y="-23"/>
      <point x="458" y="-23" type="qcurve" smooth="yes"/>
      <point x="300" y="-23"/>
      <point x="106" y="188"/>
      <point x="106" y="530"/>
      <point x="300" y="741"/>
      <point x="457" y="741" type="qcurve" smooth="yes"/>
      <point x="617" y="741"/>
      <point x="810" y="529"/>
    </contour>
    <contour>
      <point x="457" y="659" type="qcurve" smooth="yes"/>
      <point x="341" y="659"/>
      <point x="199" y="494"/>
      <point x="199" y="224"/>
      <point x="342" y="59"/>
      <point x="574" y="59"/>
      <point x="717" y="223"/>
      <point x="717" y="355" type="qcurve" smooth="yes"/>
      <point x="717" y="493"/>
      <point x="575" y="659"/>
    </contour>
  </outline>
</glyph>
<glyph name="uni04F1" format="1">
  <advance width="500"/>
  <unicode hex="04F1"/>
  <outline>
    <contour>
      <point x="220" y="702" type="line"/>
      <point x="220" y="599" type="line"/>
      <point x="116" y="599" type="line"/>
      <point x="116" y="702" type="line"/>
    </contour>
    <contour>
      <point x="382" y="702" type="line"/>
      <point x="382" y="599" type="line"/>
      <point x="278" y="599" type="line"/>
      <point x="278" y="702" type="line"/>
    </contour>
    <contour>
      <point x="52" y="456" type="line"/>
      <point x="52" y="524" type="line"/>
      <point x="205" y="524" type="line"/>
      <point x="339" y="116" type="line"/>
      <point x="460" y="456" type="line"/>
      <point x="413" y="456" type="line"/>
      <point x="413" y="524" type="line"/>
      <point x="574" y="524" type="line"/>
      <point x="341" y="-110" type="line"/>
      <point x="300" y="-218"/>
      <point x="206" y="-218" type="qcurve" smooth="yes"/>
      <point x="175" y="-218"/>
      <point x="150" y="-205" type="qcurve"/>
      <point x="150" y="-130" type="line"/>
      <point x="177" y="-136"/>
      <point x="194" y="-136" type="qcurve" smooth="yes"/>
      <point x="220" y="-136"/>
      <point x="235" y="-124" type="qcurve" smooth="yes"/>
      <point x="250" y="-113"/>
      <point x="261" y="-85" type="qcurve" smooth="yes"/>
      <point x="293" y="-2" type="line"/>
      <point x="139" y="456" type="line"/>
    </contour>
  </outline>
</glyph>
<glyph name="uni04F3" format="1">
  <advance width="500"/>
  <unicode hex="04F3"/>
  <outline>
    <contour>
      <point x="228" y="749" type="line"/>
      <point x="341" y="749" type="line"/>
      <point x="192" y="599" type="line"/>
      <point x="132" y="599" type="line"/>
    </contour>
    <contour>
      <point x="402" y="749" type="line"/>
      <point x="515" y="749" type="line"/>
      <point x="366" y="599" type="line"/>
      <point x="306" y="599" type="line"/>
    </contour>
    <contour>
      <point x="52" y="456" type="line"/>
      <point x="52" y="524" type="line"/>
      <point x="205" y="524" type="line"/>
      <point x="339" y="116" type="line"/>
      <point x="460" y="456" type="line"/>
      <point x="413" y="456" type="line"/>
      <point x="413" y="524" type="line"/>
      <point x="574" y="524" type="line"/>
      <point x="341" y="-110" type="line"/>
      <point x="300" y="-218"/>
      <point x="206" y="-218" type="qcurve" smooth="yes"/>
      <point x="175" y="-218"/>
      <point x="150" y="-205" type="qcurve"/>
      <point x="150" y="-130" type="line"/>
      <point x="177" y="-136"/>
      <point x="194" y="-136" type="qcurve" smooth="yes"/>
      <point x="220" y="-136"/>
      <point x="235" y="-124" type="qcurve" smooth="yes"/>
      <point x="250" y="-113"/>
      <point x="261" y="-85" type="qcurve" smooth="yes"/>
      <point x="293" y="-2" type="line"/>
      <point x="139" y="456" type="line"/>
    </contour>
  </outline>
</glyph>
